<svg width="119" height="184" viewBox="0 0 119 184" fill="none" xmlns="http://www.w3.org/2000/svg">
<g clip-path="url(#clip0_25_234)">
<path d="M20.7597 5.90853C20.3038 6.07972 20.0189 7.07869 20.0846 7.5432C20.1676 8.1305 22.1541 12.0242 22.5916 12.7085C23.7204 14.4722 25.854 13.9561 25.4383 11.6932C25.3173 11.0294 23.5229 7.39303 23.0845 6.69682C22.4589 5.70412 21.896 5.6391 20.7597 5.90853ZM16.421 81.4367C13.9736 85.046 12.2185 89.8824 13.8398 94.1622C15.1974 97.7429 19.0471 100.123 22.3618 101.703C26.783 103.811 31.63 105.347 36.3354 106.687L36.3697 106.841C36.3727 107.925 36.0762 109.085 35.9957 110.148C34.5572 129.22 35.8955 148.32 36.2594 167.455C36.2956 169.384 36.8163 171.343 36.3031 173.231L30.001 178.497C29.6967 179.254 29.0502 180.096 29.5555 180.921L31.6942 181.674C39.9888 180.61 49.0879 181.132 57.2875 179.945C58.1424 179.821 59.0762 179.628 59.6011 178.888C59.5863 173.496 58.898 168.061 58.6359 162.656C58.2924 155.56 58.2562 148.304 58.1053 141.209C57.9518 134.007 57.5542 126.885 58.1503 119.704C58.3331 117.502 58.8219 115.32 58.9232 113.106L59.3191 112.6C61.5601 112.877 63.7874 113.46 66.0276 113.857C66.5431 113.949 67.3758 113.697 67.5973 114.3C67.907 115.148 67.4713 115.884 67.4774 116.659C67.5306 123.835 67.7842 130.949 68.0556 138.148C68.392 147.083 68.4373 156.022 69.5648 164.906C69.7759 166.572 69.6578 168.207 69.4469 169.859C67.8503 171.759 65.9587 173.625 64.6056 175.703C63.1553 177.932 63.0746 179.28 66.1882 179.342C74.6795 179.51 84.0783 177.549 92.6719 177.553C94.6392 177.227 95.1878 176.173 94.9931 174.242C94.9251 173.567 94.6124 173.072 94.5482 172.497C92.6775 155.707 90.7992 138.849 91.4543 121.931C91.4935 120.942 91.8171 119.874 91.5264 118.777C99.1993 120.094 112.02 124.638 114.029 113.39C115.148 107.119 113.022 98.217 112.099 91.8589C108.565 67.5107 104.112 42.0104 96.9038 18.2808C94.9848 11.9602 91.8028 6.0669 84.5804 5.16146C73.5609 3.78078 65.237 16.058 59.1022 23.4469C57.0334 25.9389 54.8982 28.3563 52.8731 30.8767C52.4598 31.3914 52.0648 32.4412 51.5134 32.7682C50.962 33.0951 51.0404 32.3103 51.0189 32.0578C50.9009 30.6649 50.7267 28.9711 50.4076 27.6307C50.1803 26.6753 49.5729 24.5164 48.698 24.1439C48.1368 23.9055 46.4485 24.0286 46.6612 25.0327L46.3639 25.0528C45.8088 24.596 46.0832 23.8158 45.701 23.0889C44.5407 20.8808 41.7737 22.8539 42.1811 25.0367C41.6106 25.0156 40.9832 25.1461 40.3971 25.1573C40.2822 25.1591 40.026 24.8822 39.6891 24.9572C38.1622 25.3023 37.9281 27.8944 37.4394 29.149C34.0332 37.9084 27.6617 44.9997 21.9175 52.2443C17.0196 58.4222 8.25545 67.3673 10.6883 75.9875C11.1637 77.6744 12.8929 80.213 14.5939 80.8089C15.1262 80.9955 15.4847 80.8189 15.7861 80.8822C15.8271 80.8914 16.291 81.4141 16.421 81.4367ZM10.5871 14.3664C9.70122 14.6935 9.63839 16.2614 10.2551 16.9008C11.8868 17.6209 14.0337 20.5718 15.7345 20.5689C16.85 20.5667 17.1061 20.1567 17.2871 19.1005C17.1998 17.7414 13.3831 15.8501 12.4945 14.6571C11.9312 14.2994 11.237 14.1268 10.5872 14.3678L10.5871 14.3664ZM10.9093 27.2034C10.8061 27.1118 10.3259 26.9904 10.1451 26.9667C8.96211 26.8092 7.14213 26.6186 5.98194 26.5999C4.82174 26.5812 3.10824 26.5297 3.23613 28.1131C3.26068 28.4101 3.51018 29.2072 3.69905 29.3722C4.17687 29.7909 10.558 30.1379 11.1473 29.6859C11.6372 29.3107 11.3172 27.5596 10.9093 27.2034ZM6.51656 37.6737C5.77547 37.8014 2.85826 38.5018 2.48871 38.9121C1.78189 40.5638 2.50202 41.6069 4.31089 41.3458C5.42315 41.1855 7.60513 40.7215 8.66073 40.3858C9.98091 39.9651 10.3308 38.5346 9.15145 37.7017C8.50528 37.2451 7.29591 37.5374 6.51498 37.6723L6.51656 37.6737Z" fill="#FDFDFD"/>
<path d="M46.6608 25.031C46.4481 24.0268 48.1363 23.9038 48.6976 24.1422C49.5725 24.5147 50.1784 26.6736 50.4072 27.6289C50.7277 28.9693 50.9004 30.6632 51.0184 32.0561C51.0401 32.31 50.9515 33.0986 51.513 32.7664C52.0745 32.4343 52.4594 31.3897 52.8727 30.8749C54.8978 28.3545 57.0329 25.9372 59.1018 23.4452C65.2365 16.0562 73.5606 3.78054 84.58 5.15973C91.8038 6.06358 94.9844 11.9585 96.9034 18.2791C104.11 42.0103 108.565 67.509 112.099 91.8572C113.021 98.2153 115.149 107.117 114.029 113.388C112.02 124.637 99.1988 120.092 91.526 118.775C91.8167 119.873 91.4916 120.94 91.4539 121.93C90.7973 138.847 92.6756 155.706 94.5477 172.496C94.612 173.071 94.9246 173.565 94.9927 174.24C95.1859 176.171 94.6373 177.225 92.6715 177.551C84.0778 177.547 74.679 179.509 66.1877 179.34C63.0742 179.279 63.1548 177.931 64.6052 175.701C65.9582 173.622 67.8498 171.756 69.4465 169.857C69.6574 168.205 69.777 166.57 69.5644 164.905C68.4368 156.019 68.3915 147.082 68.0552 138.147C67.7839 130.948 67.5316 123.833 67.477 116.657C67.471 115.884 67.9066 115.147 67.5969 114.298C67.3753 113.694 66.544 113.945 66.0271 113.855C63.787 113.458 61.5597 112.875 59.3187 112.598L58.9228 113.104C58.8215 115.318 58.3327 117.501 58.1499 119.702C57.5538 126.883 57.9498 134.004 58.1049 141.207C58.2573 148.304 58.2934 155.558 58.6355 162.655C58.8976 168.06 59.5859 173.494 59.6007 178.886C59.0758 179.627 58.1434 179.819 57.2871 179.943C49.0874 181.129 39.9883 180.607 31.6938 181.672L29.5551 180.919C29.0513 180.094 29.6963 179.252 30.0006 178.495L36.3027 173.229C36.8158 171.341 36.2952 169.382 36.259 167.454C35.8952 148.32 34.5568 129.218 35.9953 110.146C36.0758 109.083 36.3723 107.924 36.3693 106.84L36.3349 106.685C31.6281 105.345 26.781 103.809 22.3614 101.702C19.0466 100.122 15.1969 97.7412 13.8394 94.1605C12.2167 89.8823 13.9732 85.0442 16.4206 81.435C17.9891 81.7068 19.4442 79.3041 20.2242 78.1821C29.3265 65.0906 38.7982 52.0952 49.0143 39.8157C49.4922 39.2412 50.2679 38.7856 50.8285 38.0428C50.9889 37.8303 51.8493 36.5282 51.8714 36.4356C52.2569 34.7801 50.5272 34.0472 49.2621 34.9959C45.3905 39.7185 41.3105 44.2968 37.5304 49.0909C32.1423 55.9261 26.9487 63.0768 21.9282 70.1575C20.2784 72.4853 18.2154 75.0202 16.7409 77.378C16.0144 78.5397 15.4363 79.4225 15.7857 80.8805C15.4856 80.8156 15.1257 80.9923 14.5934 80.8072C12.8924 80.2112 11.1632 77.6727 10.6878 75.9858C8.25502 67.3656 17.0207 58.4204 21.917 52.2426C27.6598 44.9981 34.0327 37.9066 37.4389 29.1473C37.9262 27.8927 38.1603 25.3007 39.6886 24.9555C40.0255 24.8789 40.2803 25.1574 40.3966 25.1556L40.1745 30.6874C40.5073 31.7895 41.2589 32.59 42.4712 32.1422C44.042 31.5627 43.1069 26.8527 43.0723 25.4557L42.7916 25.1252C42.6023 24.9767 42.3902 25.0418 42.1805 25.0335C41.7732 22.8507 44.5402 20.8776 45.7005 23.0857C46.0826 23.8126 45.8083 24.5928 46.3633 25.0496C46.3322 25.5177 45.7618 25.5622 45.594 25.7766C44.7968 26.7968 44.2962 31.5455 44.9273 32.62C45.4505 33.5106 47.4795 33.2809 47.7015 32.2339C47.8159 31.6945 47.5977 31.073 47.6413 30.5026C47.8018 28.3904 48.7873 26.4644 46.6607 25.0295L46.6608 25.031ZM63.4924 26.582L62.946 26.6503C62.8283 26.7882 62.9363 27.6576 63.0008 27.9489C63.1385 28.5714 63.6329 30.1419 64.3082 29.8141L64.3712 30.3713C65.0277 30.56 65.7691 30.7473 66.4498 30.5654C66.7197 30.4934 66.8927 30.313 66.9764 30.0475C67.3389 29.1135 65.7945 26.083 65.0573 25.9148C64.628 25.8168 64.0848 25.9775 63.627 25.9651L63.4925 26.5835L63.4924 26.582ZM58.1776 31.4514C57.5664 33.6119 61.9836 34.9085 62.9388 33.7941C64.1264 32.4071 62.6866 31.432 61.4092 31.0494C60.0633 30.6475 59.3143 30.592 58.1776 31.4514ZM71.3609 32.0542C71.193 32.9302 71.9265 34.2815 72.8303 34.3295C73.2695 34.3536 75.5319 33.6646 75.9919 33.4438C76.8207 33.0443 76.9384 32.1567 76.515 31.3714C75.788 30.1391 72.3405 31.2129 71.3609 32.0542ZM70.6143 36.3013C70.1232 36.4808 69.8099 37.1277 69.8973 37.6475C70.2511 39.7668 76.4255 40.2143 75.2167 37.0238C74.8839 36.1427 71.4467 35.9986 70.6143 36.3013ZM60.6462 38.7878C59.9736 38.9572 59.2599 39.4684 58.7361 39.916C57.4244 41.0381 55.1814 45.9254 54.5349 47.718C53.448 50.7291 55.1079 53.3694 58.4635 52.5483C58.9483 52.4289 60.351 51.7487 60.6851 51.411C61.2722 50.8172 63.2779 48.0532 63.6597 47.2941C64.5936 45.4448 65.1385 43.3411 64.794 41.2705C64.452 39.2147 62.6329 38.2862 60.6462 38.7878ZM76.8886 43.5986L77.1799 47.91C77.0467 49.0779 75.3176 51.7575 75.8441 52.6315C77.7139 54.4661 78.3512 53.0669 79.151 51.3103C79.8365 49.8064 80.2361 48.3606 80.0828 46.6669C80.3738 46.2425 80.6504 46.5793 80.7074 47.0698C80.9827 49.4198 80.6694 51.4138 79.8857 53.6293C79.4316 54.9115 77.2607 58.2139 77.4088 59.1896C77.5406 60.0574 78.3463 60.9961 79.2392 60.64C80.6963 60.0577 81.2402 57.2312 81.8298 57.0061C81.9842 56.9479 82.5612 56.8447 82.58 57.1018C83.0933 59.7479 77.8679 62.0947 76.6488 64.2321C75.1131 66.9226 73.6379 74.5314 73.2473 77.7688C73.0854 79.1089 72.6669 82.6184 73.0581 83.7002C73.3061 84.3868 74.5697 84.1446 75.1494 83.9053C76.2115 83.4677 78.0763 81.3151 77.8823 80.1229C77.7651 79.405 76.8101 79.1962 76.6146 78.6688C76.4536 78.2302 76.375 76.8465 76.417 76.3404C76.5691 74.5021 77.8046 70.1981 78.4009 68.2805C79.5529 64.5751 80.7323 64.9225 83.1035 62.5953C84.0714 61.6457 84.191 61.2061 84.7348 60.103C84.8857 59.7956 85.3007 59.5928 85.3723 59.2609C85.5474 58.4486 85.394 55.6915 84.981 54.9936C84.9455 54.9333 84.1734 54.0266 84.0793 53.9389C83.8959 53.7661 83.408 53.8394 83.253 53.4466C82.9303 52.6261 83.7646 50.0547 83.8042 48.9379C83.9062 45.9605 83.295 44.1201 80.6814 42.6165C80.3768 42.4414 79.9501 42.4703 79.6147 42.236C79.1867 41.9364 79.04 41.2459 78.4961 40.9541C76.4398 39.8519 74.6327 40.9134 72.443 40.9747C70.2391 41.5119 69.5893 44.6936 68.5609 46.5373C66.7747 49.742 64.1037 52.7825 62.3598 55.95C57.331 65.0758 53.7036 78.0542 55.1201 88.5412C55.6906 92.7636 58.0761 96.7049 61.8108 98.8198C69.6325 103.247 80.346 101.978 86.9753 95.9173C87.4057 95.5238 89.4848 93.2716 89.6389 92.9222C89.9198 92.2834 89.49 91.7793 89.0842 91.2989C86.9535 90.6648 86.6469 92.0953 85.4672 93.2025C82.7836 95.7256 78.427 97.845 74.775 98.4128C68.2366 99.4296 59.4692 96.0807 58.1571 88.9066C56.2614 78.5326 61.0056 63.8688 66.4682 55.0646C67.5106 53.3842 68.9595 51.7286 69.99 50.0266C70.8835 48.5519 71.5876 46.9272 72.3788 45.3967C73.0402 44.9951 72.87 46.3224 72.8391 46.6381C72.6553 48.4934 70.3614 51.7892 71.5376 53.0837C72.7993 54.471 73.9677 52.1355 74.4646 51.1356C75.6136 48.8223 76.2545 46.2386 75.9934 43.6561L76.8854 43.5958L76.8886 43.5986Z" fill="#552756"/>
<path d="M16.4204 81.4359C16.2904 81.4134 15.8265 80.8906 15.7855 80.8814C15.4361 79.4235 16.0142 78.5407 16.7407 77.3789C18.2152 75.0212 20.2782 72.4863 21.928 70.1585C26.9486 63.0778 32.1421 55.9271 37.5302 49.0919C41.3103 44.2963 45.3903 39.718 49.262 34.9969C50.5271 34.0482 52.2567 34.7811 51.8712 36.4365C51.8491 36.5291 50.9888 37.8313 50.8284 38.0438C50.2676 38.7851 49.4906 39.2423 49.0141 39.8166C38.7981 52.0962 29.3264 65.0931 20.224 78.183C19.4441 79.3051 17.9891 81.7093 16.4204 81.4359Z" fill="#11354F"/>
<path d="M20.7593 5.9087C21.8956 5.63927 22.4585 5.70429 23.0842 6.69699C23.5224 7.39172 25.3154 11.0296 25.4379 11.6934C25.8537 13.9563 23.72 14.4723 22.5913 12.7087C22.1538 12.0243 20.1672 8.13067 20.0842 7.54337C20.0186 7.08035 20.3036 6.08138 20.7593 5.9087Z" fill="#194255"/>
<path d="M10.587 14.366C11.2383 14.1248 11.9311 14.2991 12.4943 14.6553C13.383 15.8498 17.1981 17.7411 17.2869 19.0986C17.1058 20.1548 16.8483 20.565 15.7343 20.5671C14.0334 20.57 11.8866 17.6191 10.2548 16.899C9.63816 16.2596 9.70247 14.6916 10.5869 14.3645L10.587 14.366Z" fill="#194359"/>
<path d="M10.9093 27.2029C11.3157 27.5593 11.6356 29.3104 11.1472 29.6854C10.5565 30.1376 4.1768 29.7905 3.69897 29.3718C3.5101 29.2068 3.25912 28.4098 3.23605 28.1127C3.10817 26.5293 4.78133 26.5805 5.98186 26.5995C7.1824 26.6184 8.96204 26.8088 10.1451 26.9663C10.3259 26.99 10.8061 27.1128 10.9093 27.2029Z" fill="#1C495E"/>
<path d="M46.661 25.0311C48.7876 26.466 47.8021 28.3919 47.6416 30.5041C47.598 31.0746 47.8162 31.696 47.7018 32.2354C47.4797 33.2809 45.4522 33.5105 44.9276 32.6215C44.2965 31.547 44.7971 26.7983 45.5943 25.7782C45.7607 25.5653 46.3326 25.5207 46.3636 25.0512L46.661 25.0311Z" fill="#133650"/>
<path d="M6.51633 37.6737C7.29726 37.5388 8.50664 37.2465 9.1528 37.7031C10.3322 38.536 9.98078 39.9665 8.66209 40.3872C7.60648 40.7229 5.42451 41.1869 4.31225 41.3472C2.5019 41.6084 1.78325 40.5652 2.49007 38.9135C2.85951 38.5017 5.77683 37.8028 6.51792 37.6751L6.51633 37.6737Z" fill="#1D475B"/>
<path d="M42.1808 25.0349C42.3919 25.0431 42.6026 24.9781 42.7918 25.1266L43.0725 25.4571C43.1072 26.8541 44.0422 31.5641 42.4714 32.1436C41.2591 32.5914 40.5076 31.7909 40.1747 30.6888L40.3969 25.157C40.983 25.1457 41.6104 25.0152 42.1809 25.0364L42.1808 25.0349Z" fill="#15344F"/>
<path d="M76.8891 43.599L75.997 43.6593C76.258 46.2403 75.6172 48.824 74.4682 51.1373C73.9727 52.1371 72.8028 54.4728 71.5412 53.0854C70.365 51.7909 72.6589 48.4967 72.8426 46.6398C72.8735 46.3241 73.0437 44.9968 72.3824 45.3985C71.5912 46.929 70.887 48.5536 69.9935 50.0283C68.963 51.7303 67.5142 53.3859 66.4718 55.0663C61.0091 63.8705 56.2648 78.5328 58.1606 88.9083C59.4728 96.0839 68.2401 99.4313 74.7785 98.4145C78.4305 97.8467 82.7857 95.7274 85.4707 93.2043C86.6489 92.0971 86.9554 90.6651 89.0877 91.3006C89.492 91.7811 89.9234 92.2851 89.6424 92.9239C89.4883 93.2733 87.4093 95.5256 86.9788 95.919C80.3497 101.981 69.6345 103.248 61.8143 98.8215C58.0798 96.7082 55.6926 92.7654 55.1236 88.543C53.7071 78.056 57.3347 65.079 62.3633 55.9517C64.1073 52.7857 66.7783 49.7452 68.5645 46.5391C69.5928 44.6953 70.2425 41.5122 72.4465 40.9764C74.6364 40.9166 76.4433 39.8536 78.4996 40.9558C79.0436 41.2476 79.1904 41.9396 79.6182 42.2378C79.9537 42.472 80.3803 42.4431 80.6849 42.6182C83.2985 44.1218 83.9097 45.9623 83.8077 48.9397C83.7695 50.0549 82.9337 52.6263 83.2566 53.4483C83.4115 53.8411 83.8994 53.7678 84.0829 53.9406C84.177 54.0298 84.9492 54.9365 84.9845 54.9953C85.3975 55.6932 85.551 58.4503 85.3759 59.2626C85.3042 59.5945 84.8893 59.7973 84.7383 60.1047C84.1944 61.2063 84.0748 61.646 83.107 62.597C80.7358 64.9242 79.5565 64.5783 78.4044 68.2822C77.8081 70.1998 76.5726 74.5038 76.4205 76.3421C76.3786 76.8483 76.4556 78.232 76.6182 78.6705C76.8122 79.1996 77.7687 79.4082 77.8858 80.1247C78.0798 81.3168 76.2166 83.4693 75.1529 83.9071C74.5731 84.1449 73.311 84.387 73.0616 83.7019C72.6704 82.6202 73.089 79.1106 73.2508 77.7705C73.6414 74.5331 75.1166 66.9243 76.6524 64.2338C77.8715 62.0965 83.0969 59.7496 82.5836 57.1035C82.5662 56.8463 81.9892 56.9495 81.8333 57.0079C81.2437 57.2329 80.7014 60.0593 79.2428 60.6418C78.3498 60.9978 77.5442 60.0591 77.4123 59.1913C77.2643 58.2156 79.4352 54.9133 79.8892 53.6311C80.6728 51.4141 80.9848 49.4216 80.711 47.0715C80.6539 46.581 80.3773 46.2442 80.0864 46.6686C80.2396 48.3623 79.84 49.8081 79.1545 51.312C78.3547 53.0686 77.716 54.4679 75.8477 52.6332C75.3211 51.7577 77.0502 49.0781 77.1834 47.9117L76.8921 43.6003L76.8891 43.599Z" fill="#11354F"/>
<path d="M60.646 38.788C62.6328 38.2864 64.4519 39.2149 64.7939 41.2707C65.1385 43.3427 64.5935 45.445 63.6596 47.2943C63.2777 48.0519 61.272 50.8159 60.685 51.4112C60.3523 51.7488 58.9481 52.4291 58.4633 52.5484C55.1064 53.3712 53.4463 50.7294 54.5347 47.7182C55.1828 45.9255 57.4243 41.0383 58.7359 39.9162C59.2598 39.4686 59.9735 38.9574 60.646 38.788ZM61.1107 41.7092C60.2325 42.0403 57.6968 47.6135 57.0796 48.8231C56.6603 49.646 57.8489 49.9973 58.619 49.3255C59.915 48.194 62.741 43.7347 62.1232 42.0829C61.9753 41.6851 61.514 41.555 61.1106 41.7077L61.1107 41.7092Z" fill="#11354F"/>
<path d="M70.6146 36.3012C71.4454 35.9986 74.8827 36.1427 75.217 37.0237C76.4258 40.2157 70.2514 39.7667 69.8976 37.6475C69.8101 37.1262 70.1248 36.4791 70.6146 36.3012Z" fill="#14324E"/>
<path d="M71.3608 32.0541C72.3419 31.2127 75.788 30.139 76.5149 31.3713C76.9368 32.1553 76.8206 33.0443 75.9918 33.4437C75.5319 33.666 73.2695 34.3535 72.8302 34.3294C71.9264 34.2815 71.1929 32.9301 71.3608 32.0541Z" fill="#15334F"/>
<path d="M58.1782 31.4519C59.3148 30.5911 60.0623 30.6466 61.4097 31.0499C62.6886 31.4324 64.127 32.4076 62.9393 33.7946C61.9841 34.909 57.5669 33.6124 58.1782 31.4519Z" fill="#173450"/>
<path d="M66.45 30.5644C65.7693 30.7463 65.0278 30.559 64.3714 30.3703L64.3084 29.8131C63.8392 28.7052 63.3761 27.8629 63.4927 26.5825C65.7424 26.0154 66.5693 28.7269 66.45 30.5644Z" fill="#0B364F"/>
<path d="M66.4497 30.5638C66.569 28.7262 65.7421 26.0147 63.4924 26.5819C63.3758 27.8622 63.8389 28.7046 64.3081 29.8124C63.6328 30.1403 63.137 28.5713 63.0007 27.9473C62.9363 27.6574 62.8283 26.788 62.9458 26.6487L63.4923 26.5804L63.6267 25.962C64.0832 25.9759 64.6263 25.8138 65.0571 25.9116C65.7943 26.0799 67.3388 29.1118 66.9761 30.0443C66.8925 30.3098 66.7194 30.4888 66.4496 30.5623L66.4497 30.5638Z" fill="#2E2D50"/>
<path d="M61.1105 41.7092C61.5153 41.5564 61.9752 41.6866 62.123 42.0843C62.7394 43.7363 59.9148 48.1939 58.6188 49.3269C57.8503 49.9986 56.6601 49.6474 57.0795 48.8246C57.6967 47.615 60.2309 42.0419 61.1106 41.7106L61.1105 41.7092Z" fill="#492D56"/>
</g>
<defs>
<clipPath id="clip0_25_234">
<rect width="107.284" height="176.413" fill="white" transform="translate(0 7.23202) rotate(-3.86525)"/>
</clipPath>
</defs>
</svg>
