<svg width="163" height="251" viewBox="0 0 163 251" fill="none" xmlns="http://www.w3.org/2000/svg">
<g clip-path="url(#clip0_188_514)">
<path d="M143.808 133.443C142.653 133.151 140.96 133.675 139.789 133.894C139.952 139.376 141.18 144.831 141.774 150.301C143.43 165.55 144.076 180.913 145.801 196.159C146.102 196.585 148.954 196.073 149.063 195.955C149.186 195.826 149.434 193.482 149.84 192.463C151.439 188.463 154.978 184.731 159.265 183.801C162.288 185.567 160.364 190.116 162.52 192.735C161.771 195.915 159.648 197.657 156.418 198.421C149.804 199.984 140.525 199.647 133.639 200.451C134.338 198.079 130.173 199.891 130.384 198.014C131.584 197.844 132.727 197.365 134.049 197.608C132.292 176.791 131.202 155.812 128.31 135.112L79.1304 139.941C81.2903 155.389 82.5758 170.955 83.8612 186.505C84.2354 191.009 84.3452 195.46 84.8252 200.045C83.1046 199.927 83.9791 197.401 81.571 198.014C80.1107 179.91 79.2646 159.158 76.1731 141.452C75.807 139.364 72.5935 140.465 71.003 140.769L76.6856 203.091L77.0721 203.931C77.3812 204.175 77.9304 204.143 78.3168 204.102L77.91 207.351C69.4084 208.435 62.8145 208.496 54.317 208.163C54.5407 205.97 56.4647 207.509 56.3508 205.32C56.2776 203.952 55.4681 202.762 55.2363 201.357C53.8654 193.032 53.841 183.923 53.0926 175.475C52.3929 167.536 50.9895 158.983 50.66 151.101C50.2614 141.634 52.4865 139.653 61.4884 138.365C66.2803 137.679 71.1738 137.504 75.8761 136.688C77.3405 136.773 79.0775 136.761 80.55 136.684C92.3547 136.079 105.115 134.259 116.961 133.033C118.864 132.834 120.898 132.408 122.656 132.221C128.94 131.555 135.278 131.132 141.579 130.609C142.299 130.548 142.978 130.462 143.401 129.784C144.272 130.288 143.625 132.517 143.808 133.439V133.443ZM136.482 134.26H131.601C134.07 155.15 135.648 176.223 137.295 197.206C138.772 196.979 140.546 197.003 141.982 196.796C142.575 196.711 142.645 197.044 142.588 196.191L136.478 134.264L136.482 134.26ZM68.1514 141.155C63.563 140.42 64.8118 142.629 63.4694 145.622C61.9359 149.042 58.039 152.908 54.3658 153.789C55.1752 167.077 56.6966 180.381 57.6241 193.698L57.9698 194.165C62.5623 194.997 66.3169 197.722 68.8918 201.535C70.5189 203.952 69.3108 205.081 73.4436 204.512L68.1555 141.155H68.1514ZM61.2322 141.565C55.6146 141.362 52.462 145.001 53.9142 150.5C57.6566 149.521 60.7847 145.326 61.2322 141.565ZM159.672 187.05C155.869 188.032 152.83 191.695 152.354 195.574C158.615 195.614 160.465 193.186 159.672 187.05ZM66.927 204.914C65.3528 201.259 61.9684 198.283 57.982 197.612C57.5142 203.574 61.0979 206.62 66.927 204.914Z" fill="#1A364E"/>
<path d="M54.7237 133.85C60.1095 133.106 65.5644 132.351 70.9948 132.229V129.788C58.6207 129.589 41.5238 127.348 32.3307 118.235C31.3381 117.248 26.3795 111.615 28.9503 110.75C31.2405 109.979 32.6683 113.642 33.9578 114.986C38.9327 120.176 47.3652 123.287 54.3007 124.728C55.9929 125.082 66.7684 126.743 67.3338 126.138C67.6755 125.772 66.3983 123.417 69.1277 123.705C70.9379 123.896 76.6043 127.307 79.0165 128.079C81.5182 128.879 83.6049 129.362 86.0171 127.933C88.2463 126.609 88.8483 124.359 88.4619 121.898C88.2178 120.342 85.2442 117.682 86.8388 116.57C89.0232 115.043 90.7398 118.162 91.3581 119.823C91.8503 121.142 91.8544 125.09 93.453 122.361C96.9472 116.403 90.1052 109.763 85.1019 107.388C77.3772 103.72 68.8999 102.401 60.9637 98.1851C59.1495 97.2226 53.5482 94.7129 54.3699 92.2844C55.1305 90.0345 58.5475 93.2834 59.3895 93.2712C59.7149 93.2671 59.6661 92.2844 60.2681 92.0691C63.083 91.0742 63.0586 94.985 64.3359 96.0409C65.3284 96.8612 69.4247 98.2582 70.9013 98.8268C76.7304 101.06 85.9602 102.949 90.7195 106.657C91.8666 107.55 94.5716 111.01 95.6171 111.116C95.9872 111.152 98.375 110.681 98.6598 110.502C98.9242 110.336 100.926 106.116 101.747 105.056C102.52 104.066 103.997 102.587 104.957 101.763C107.235 99.8177 112.877 97.4541 113.536 94.8956C113.772 93.986 113.999 90.0142 114.577 89.6447C114.906 89.4335 116.627 89.5188 116.989 89.7665C117.9 90.3919 117.144 92.7148 116.965 93.6489C117.351 94.0184 123.176 89.4172 121.805 94.6073C115.081 100.439 102.357 104.147 101.491 114.547C101.288 116.996 101.495 120.943 104.351 121.67C103.814 118.722 104.029 116.277 105.355 113.536C106.14 111.916 108.52 108.5 110.582 109.865C112.868 111.38 109.155 113.893 108.483 115.03C107.076 117.418 107.015 121.195 109.224 123.104C111.502 125.069 113.422 124.424 116.151 124.513C116.652 124.529 117.262 125.074 118.352 124.915C120.406 124.615 120.162 122.872 121.033 125.731C116.79 127.043 114.723 129.996 121.033 129.386C121.053 129.549 122.668 130.934 122.253 131.823C120.833 132.172 118.413 132.384 116.965 132.229C115.517 132.075 115.049 131.929 114.256 130.576C104.778 132.323 94.95 132.095 85.4436 133.452C82.1853 133.915 83.2429 134 81.3839 135.49C80.3467 136.323 77.3202 136.445 75.8762 136.692C72.7358 136.514 73.6755 136.067 71.7962 135.283C70.3237 134.67 58.5393 136.428 56.3509 137.098C57.0464 134.414 54.8539 135.295 54.7237 133.85ZM98.2489 113.95C95.3283 113.406 96.9269 115.81 97.4435 117.605C98.7899 117.004 98.1269 115.1 98.2489 113.95ZM110.452 128.16C108.618 125.39 105.445 126.698 102.988 125.26C101.32 124.286 99.8191 120.939 98.0496 121.236C96.9106 121.427 96.4184 124.022 95.7391 125.049C93.5506 128.359 90.7764 126.994 88.893 130.191L110.452 128.16ZM74.7168 133.793C75.5711 134.321 79.7161 133.975 79.1182 132.055C78.8985 131.356 75.1643 130.483 74.2531 130.199C74.2043 130.897 74.2246 133.488 74.7168 133.797V133.793Z" fill="#1A364E"/>
<path d="M84.8253 200.045C84.3412 195.46 84.2354 191.009 83.8612 186.505C82.5717 170.955 81.2904 155.389 79.1304 139.941L128.31 135.112C131.202 155.808 132.292 176.791 134.049 197.608C132.731 197.361 131.588 197.84 130.384 198.014C115.761 200.098 100.893 200.894 86.249 202.904L85.228 202.892C85.5575 201.864 84.9025 200.804 84.8212 200.045H84.8253Z" fill="#BD5E4A"/>
<path d="M77.91 207.355C78.8619 207.233 79.7812 206.908 80.7575 206.949V239.641C80.7575 240.144 88.2788 246.236 87.2659 247.149C77.6822 247.438 68.123 246.622 58.5962 246.333L54.5122 245.537C52.5271 237.663 53.2674 229.419 53.1169 221.345C53.0966 220.285 52.702 219.29 52.6736 218.133C52.5922 214.815 52.7752 211.477 52.6898 208.163C53.2308 208.171 53.7759 208.143 54.3169 208.163C62.8145 208.496 69.4084 208.435 77.91 207.351V207.355Z" fill="#3A5E3D"/>
<path d="M126.723 201.669C126.565 211.339 126.939 221.049 126.744 230.722C126.711 232.339 126.044 233.715 126.345 235.559C126.805 238.369 132.54 240.384 132.825 243.905C121.952 243.917 111.075 242.93 100.332 241.427L100.466 204.894L126.727 201.673L126.723 201.669Z" fill="#3A5E3D"/>
<path d="M143.808 133.444C143.942 133.476 144.499 134.073 144.622 134.256C145.297 135.287 145.525 136.583 146.489 137.874C148.844 141.034 151.097 142.297 154.791 143.19C155.096 143.263 155.389 143.483 156.011 143.596C156.695 145.858 156.601 148.336 156.857 150.667C156.894 150.996 157.223 151.235 157.232 151.312C158.334 162.082 158.493 173.003 159.265 183.801C154.974 184.731 151.435 188.463 149.84 192.463C149.434 193.483 149.186 195.826 149.064 195.956C148.95 196.074 146.098 196.589 145.801 196.159C144.072 180.918 143.426 165.55 141.774 150.301C141.18 144.831 139.952 139.377 139.789 133.894C140.961 133.675 142.653 133.151 143.808 133.444Z" fill="#BD5E4A"/>
<path d="M48.6221 137.915C44.6357 142.069 45.3557 147.426 45.3516 152.75L49.8384 203.7C45.4574 202.161 44.3143 201.446 43.452 196.881C41.5564 186.814 41.6052 176.341 40.8893 166.139C40.5069 160.713 39.4656 154.849 39.25 149.501C38.9408 141.829 40.8323 139.161 48.6221 137.915Z" fill="#BD5E4A"/>
<path d="M78.3168 204.106C77.9304 204.143 77.3813 204.175 77.0721 203.936L76.6857 203.095L71.003 140.774C72.5935 140.469 75.807 139.369 76.1731 141.456C79.2646 159.162 80.1107 179.911 81.5711 198.019C81.7094 199.72 82.3236 201.442 81.9209 203.241C81.8233 203.4 78.7399 204.07 78.3168 204.111V204.106Z" fill="#BD5E4A"/>
<path d="M75.8761 136.692C71.1738 137.508 66.2803 137.683 61.4884 138.369C52.4865 139.661 50.2655 141.638 50.66 151.105C50.9895 158.987 52.3929 167.54 53.0926 175.479C53.841 183.931 53.8614 193.036 55.2363 201.361C55.4681 202.766 56.2776 203.956 56.3508 205.324C52.397 205.564 52.7183 202.461 52.3319 199.387C50.9692 188.536 50.6844 177.084 49.8383 166.139C49.3827 160.271 46.5841 146.528 49.5007 141.837C50.9244 139.551 53.8207 137.874 56.3508 137.102C58.5352 136.432 70.3236 134.674 71.7962 135.287C73.6795 136.071 72.7358 136.517 75.8761 136.696V136.692Z" fill="#BD5E4A"/>
<path d="M75.8762 136.692C77.3162 136.44 80.3466 136.323 81.3839 135.49C83.2429 133.996 82.1853 133.914 85.4436 133.451C94.9499 132.095 104.778 132.322 114.256 130.576C115.049 131.929 115.447 132.067 116.965 132.229V133.041C105.119 134.268 92.3588 136.087 80.5541 136.692C79.0816 136.769 77.3446 136.782 75.8802 136.696L75.8762 136.692Z" fill="#BD5E4A"/>
<path d="M127.13 121.666C127.098 119.49 125.849 120.375 124.864 119.672C124.14 119.157 124.116 117.625 123.062 117.199C123.506 116.427 123.225 114.255 124.897 113.942C129.123 113.146 126.089 118.198 126.317 118.417C133.199 117.427 137.999 112.476 138.882 105.584C139.118 103.745 138.024 99.6714 140.765 99.7527C141.221 99.7648 142.177 100.528 142.177 100.756V107.253C142.177 109.804 139.179 115.185 137.312 117.016C133.988 120.273 131.194 120.582 127.126 121.67L127.13 121.666Z" fill="#1A364E"/>
<path d="M49.0289 207.761C49.1712 207.862 50.1516 207.643 50.477 208.134C51.197 209.235 50.6316 212.382 50.6397 213.633C50.6845 222.62 50.957 231.928 50.656 240.879C50.6316 241.663 51.0709 242.507 49.8424 242.28C48.3536 230.933 50.4038 219.136 49.0289 207.761Z" fill="#1A364E"/>
<path d="M147.876 134.662C148.295 134.909 149.299 136.753 149.889 137.322C150.906 138.296 153.66 140.152 154.998 140.351C155.958 140.493 155.556 139.807 155.605 139.133C156.174 138.739 159.265 140.095 158.448 140.753C155.47 140.729 155.133 140.034 154.791 143.194C151.097 142.3 148.84 141.037 146.489 137.878C145.529 136.587 145.297 135.291 144.622 134.26C144.63 133.545 147.66 134.54 147.876 134.666V134.662Z" fill="#1A364E"/>
<path d="M138.927 128.976C139.464 129.009 140.025 128.915 140.554 128.976C140.619 128.984 141.404 129.285 141.774 129.382C142.213 129.5 143.116 129.622 143.401 129.788C142.982 130.466 142.299 130.552 141.579 130.613C135.274 131.137 128.936 131.559 122.656 132.225V131.819C124.222 131.348 124.401 129.675 126.317 129.382C129.449 128.907 135.701 128.789 138.927 128.976Z" fill="#BD5E4A"/>
<path d="M155.604 139.129C155.556 139.803 155.958 140.493 154.998 140.347C153.66 140.148 150.906 138.292 149.889 137.318C149.295 136.749 148.295 134.905 147.876 134.658C147.213 133.78 147.42 133.224 148.486 133.037C152.594 132.314 155.897 134.93 155.604 139.125V139.129Z" fill="#BD5E4A"/>
<path d="M126.317 129.382C126.105 128.566 127.313 128.018 127.85 127.872C129.493 127.429 135.038 126.568 136.401 127.238C137.149 127.608 137.251 128.448 137.356 128.513C137.645 128.688 139.203 127.319 138.931 128.976C135.705 128.789 129.453 128.907 126.321 129.382H126.317Z" fill="#1A364E"/>
<path d="M121.028 125.727C121.691 127.904 120.919 128.598 121.028 129.382C114.719 129.991 116.786 127.039 121.028 125.727Z" fill="#BD5E4A"/>
<path d="M156.011 143.596C156.605 143.705 157.366 143.433 157.988 143.649C158.387 143.9 158.082 148.916 158.045 149.911C158.017 150.691 158.46 151.539 157.232 151.312C157.223 151.235 156.894 150.995 156.857 150.666C156.601 148.335 156.695 145.858 156.011 143.596Z" fill="#1A364E"/>
<path d="M158.045 134.256C158.167 134.345 158.781 134.154 158.859 134.256C159.721 135.401 157.28 136.477 156.093 135.791C155.759 135.596 153.872 132.493 155.605 132.225C156.361 132.838 157.37 133.752 158.045 134.256Z" fill="#1A364E"/>
<path d="M122.249 131.819C122.379 131.787 122.533 131.856 122.656 131.819V132.225C120.898 132.412 118.864 132.838 116.961 133.037V132.225C118.409 132.379 120.829 132.168 122.249 131.819Z" fill="#3A5E3D"/>
<path d="M147.062 100.142C146.611 99.3909 146.24 98.3594 145.842 97.7056L147.062 100.142Z" fill="#F4EFDE"/>
<path d="M140.554 128.976C140.338 127.535 142.254 127.774 141.774 129.382C141.404 129.285 140.619 128.984 140.554 128.976Z" fill="#1A364E"/>
<path d="M88.0795 5.51925C87.7744 5.25122 87.4327 4.83699 87.2659 4.70703L88.0795 5.51925Z" fill="#F4EFDE"/>
<path d="M95.4015 14.8596L94.9947 14.0474L95.4015 14.8596Z" fill="#F4EFDE"/>
<path d="M38.0458 174.867C38.0662 175.135 38.0255 175.411 38.0458 175.679V174.867Z" fill="#F5F1DF"/>
<path d="M37.6391 168.775C37.6554 169.043 37.6228 169.319 37.6391 169.587V168.775Z" fill="#F5F1DF"/>
<path d="M68.1514 141.155L73.4395 204.512C69.3067 205.085 70.5189 203.952 68.8877 201.536C66.3128 197.718 62.5583 194.997 57.9657 194.165L57.62 193.698C56.6925 180.381 55.1712 167.077 54.3617 153.789C58.0349 152.908 61.9318 149.042 63.4654 145.623C64.8077 142.63 63.5549 140.42 68.1474 141.155H68.1514Z" fill="#BD5E4A"/>
<path d="M136.482 134.26L142.592 196.187C142.649 197.044 142.58 196.707 141.986 196.792C140.546 196.999 138.776 196.975 137.3 197.202C135.652 176.219 134.074 155.146 131.605 134.251H136.486L136.482 134.26Z" fill="#BD5E4A"/>
<path d="M66.927 204.914C61.0939 206.616 57.5142 203.57 57.982 197.612C61.9684 198.286 65.3528 201.259 66.927 204.914Z" fill="#BD5E4A"/>
<path d="M61.2322 141.565C60.7888 145.326 57.6606 149.521 53.9142 150.5C52.458 145.005 55.6105 141.366 61.2322 141.565Z" fill="#BD5E4A"/>
<path d="M159.672 187.049C160.465 193.186 158.615 195.614 152.354 195.574C152.83 191.695 155.869 188.032 159.672 187.049Z" fill="#BD5E4A"/>
<path d="M74.7575 55.978C76.1568 54.5931 79.0124 56.7374 80.6517 56.9973C81.8639 57.1882 83.8164 57.2328 85.0327 57.0988C87.1195 56.8673 90.8659 54.252 92.1554 55.6693C95.1655 58.9832 85.4192 60.7985 83.4056 60.7903C81.6443 60.7822 71.5765 59.1294 74.7616 55.982L74.7575 55.978Z" fill="#1A364E"/>
<path d="M69.0667 46.8326C67.5616 45.4843 67.4477 39.218 70.6979 39.7013C74.2409 40.2252 72.8131 50.1952 69.0667 46.8326Z" fill="#1A364E"/>
<path d="M92.8632 45.6223C91.8259 46.6578 89.7798 45.9878 89.3852 44.6192C89.0435 43.4333 88.9012 39.3316 90.4022 38.8849C93.9289 37.8412 94.0103 44.473 92.8632 45.6182V45.6223Z" fill="#1A364E"/>
<path d="M98.1472 57.8054C95.3201 60.6238 92.8917 51.7382 95.6862 51.0478C98.0374 50.463 97.0245 53.5778 97.2035 54.2723C97.4557 55.2551 99.4652 56.4937 98.1513 57.8095L98.1472 57.8054Z" fill="#1A364E"/>
<path d="M69.6158 52.2539C72.7643 51.2061 72.447 59.4339 69.1765 59.1537C66.8172 58.9506 69.1765 56.5546 69.2945 55.986C69.4775 55.1048 68.1759 52.7331 69.6199 52.2539H69.6158Z" fill="#1A364E"/>
<path d="M110.452 128.16L88.893 130.191C90.7764 126.994 93.5506 128.359 95.7391 125.049C96.4184 124.022 96.9106 121.427 98.0496 121.236C99.819 120.939 101.32 124.282 102.988 125.26C105.445 126.698 108.618 125.39 110.452 128.16Z" fill="#3A5E3D"/>
<path d="M74.7168 133.792C74.2246 133.488 74.2043 130.897 74.2531 130.194C75.1643 130.483 78.9026 131.352 79.1182 132.05C79.7161 133.971 75.567 134.316 74.7168 133.788V133.792Z" fill="#BD5E4A"/>
<path d="M98.249 113.95C98.1269 115.103 98.79 117.004 97.4435 117.605C96.9269 115.81 95.3324 113.406 98.249 113.95Z" fill="#3A5E3D"/>
<path d="M37.6389 168.775C37.5047 166.614 37.4274 164.433 37.2321 162.277C37.1996 161.903 37.4558 161.12 36.9921 161.051C31.7732 161.587 26.5949 161.733 21.3678 161.871C18.6302 161.944 15.86 161.773 13.2323 161.871C10.1367 160.222 6.68314 158.87 4.28316 156.185C4.23434 156.133 3.70553 155.296 3.4696 154.967C-1.30596 148.303 -0.447662 138.134 1.84249 130.6C2.21673 129.374 2.9652 127.993 3.4696 126.539C4.09197 124.748 4.82824 123.022 5.50349 121.26C6.04043 119.859 6.57738 118.145 7.1306 116.793C8.64381 113.085 10.3726 109.479 12.0119 105.828C12.4675 104.817 13.1102 103.769 13.639 102.579C14.5217 100.601 16.6695 96.3899 16.8933 94.4568C18.1421 92.2354 19.1956 89.9206 20.1475 87.553C21.6851 83.7274 22.942 79.707 24.622 75.7758C25.1996 74.4235 26.0173 72.7828 26.6559 71.3086C27.8315 68.5877 29.1088 65.8952 30.3169 63.1865C31.1345 61.3549 31.9237 59.3366 32.7576 57.5009C35.0192 52.5221 37.5738 46.8853 40.0796 41.6627C40.5514 40.6759 41.1982 39.4697 41.7067 38.4139C43.1995 35.3234 44.6517 32.1395 46.1812 29.0734C47.2795 26.8722 48.7154 24.3706 49.8422 22.1695C51.3554 19.2212 52.8727 15.3306 54.7235 12.4229C54.9229 12.1061 56.2571 10.104 56.3506 9.98626C57.8923 8.08567 63.5465 3.36669 65.7065 2.2702C66.1336 2.05496 70.714 0.288389 70.9946 0.239656C76.6204 -0.722821 82.8074 1.30366 87.2657 4.70685C87.4325 4.8368 87.7742 5.25103 88.0793 5.51907C90.0725 7.26127 94.0264 13.4625 94.9945 14.0473L95.4013 14.8596C95.4175 15.4728 95.7267 15.4931 95.808 15.6718C96.4589 17.1216 97.5612 18.1653 98.2487 19.3268C99.8107 21.9583 101.515 24.4478 103.13 27.0428C103.541 27.7048 103.931 28.3992 104.35 29.0734C106.193 32.038 108.284 35.1 110.045 38.0077C110.171 38.2149 110.269 38.5194 110.452 38.82C110.855 39.49 111.274 40.1804 111.672 40.8505C112.319 41.9389 113.165 43.1653 113.706 44.0994C115.382 47.003 116.847 50.1017 118.588 53.0338C118.901 53.5658 118.775 54.7354 119.808 55.0643C119.82 56.1852 120.65 56.7578 121.028 57.5009C121.577 58.5853 122.118 59.369 122.655 60.3437C124.482 63.6576 126.385 66.8252 128.35 70.0903C128.623 70.5452 128.928 70.9228 129.164 71.3086C129.827 72.393 130.526 73.4732 131.198 74.5575C131.259 74.655 131.137 74.8661 131.198 74.9636C134.192 79.7963 137.588 84.3569 140.554 89.1774C140.651 89.3358 140.875 89.4454 140.96 89.5835C142.571 92.1989 144.219 95.0376 145.842 97.7057C146.24 98.3595 146.61 99.391 147.062 100.142C147.81 101.389 148.86 102.701 149.503 103.797C149.885 104.451 150.369 105.223 150.723 105.828C152.179 108.317 153.79 111.002 155.198 113.544C155.592 114.255 156.052 114.86 156.418 115.574C159.725 122.015 162.239 128.639 161.267 136.05C160.99 138.158 159.286 140.197 159.229 142.175C159.082 147.255 160.864 155.312 161.299 160.653C161.547 163.674 162.113 167.808 162.113 170.602V176.694C162.113 177.888 162.45 180.219 162.52 181.77C162.589 183.321 162.898 184.662 162.926 186.237C162.934 186.777 162.926 187.322 162.926 187.862C162.934 189.811 162.963 190.863 162.52 192.735C160.364 190.116 162.288 185.567 159.265 183.801C158.492 173.002 158.334 162.082 157.231 151.312C158.46 151.539 158.016 150.691 158.045 149.911C158.082 148.916 158.383 143.901 157.988 143.649C157.366 143.434 156.605 143.706 156.011 143.596C155.417 143.486 155.096 143.263 154.791 143.19C155.136 140.03 155.474 140.729 158.448 140.749C159.261 140.091 156.174 138.735 155.604 139.129C155.897 134.934 152.594 132.314 148.486 133.041C147.424 133.228 147.212 133.784 147.876 134.662C147.66 134.536 144.629 133.541 144.621 134.255C144.499 134.073 143.942 133.476 143.808 133.443C143.625 132.521 144.271 130.292 143.401 129.788C143.116 129.622 142.213 129.5 141.774 129.382C142.254 127.774 140.338 127.534 140.554 128.976C140.025 128.915 139.463 129.009 138.926 128.976C139.199 127.319 137.645 128.688 137.352 128.513C137.246 128.448 137.145 127.607 136.396 127.238C135.034 126.568 129.489 127.429 127.846 127.871C127.309 128.018 126.105 128.566 126.312 129.382C124.396 129.675 124.217 131.348 122.651 131.819C122.529 131.855 122.375 131.786 122.244 131.819C122.659 130.929 121.044 129.545 121.024 129.382C120.914 128.598 121.687 127.904 121.024 125.727C120.158 122.868 120.398 124.614 118.343 124.911C117.253 125.069 116.643 124.525 116.143 124.509C116.932 123.518 118.266 123.274 119.161 122.446C119.694 121.954 122.647 117.918 123.058 117.199C124.112 117.625 124.136 119.156 124.86 119.672C125.849 120.375 127.097 119.485 127.126 121.666C126.931 121.719 126.43 122.137 125.938 122.304C125.482 122.454 124.368 122.421 124.295 122.495C124.087 122.702 124.404 125.825 124.274 126.543C132.084 125.882 139.244 124.748 146.855 127.348C150.438 128.57 152.887 130.04 155.596 132.225C153.863 132.493 155.751 135.6 156.084 135.791C157.268 136.477 159.709 135.401 158.85 134.255C158.773 134.154 158.159 134.345 158.037 134.255C158.464 127.656 155.043 121.37 152.004 115.708C143.922 100.642 133.581 86.4646 124.758 71.8406C117.729 60.1894 111.644 48.0183 104.509 36.4199C100.039 29.1505 88.783 9.57609 82.2379 5.8602C72.2434 0.186862 61.7933 7.64301 56.9323 16.4678C42.2721 43.08 30.9067 72.4985 18.9882 100.419C14.0743 111.928 3.40859 130.625 3.46147 142.991C3.48994 150.057 8.39974 157.412 15.8641 158.224C22.4336 158.939 30.1949 157.55 36.8172 157.412C36.626 151.706 34.3521 144.729 38.0335 139.746C41.7148 134.763 49.1222 134.629 54.7113 133.857C54.8415 135.303 57.034 134.422 56.3384 137.106C53.8083 137.882 50.912 139.555 49.4883 141.842C46.5717 146.532 49.3744 160.275 49.8259 166.143C50.672 177.088 50.9568 188.54 52.3195 199.391C52.7059 202.465 52.3805 205.568 56.3384 205.329C56.4523 207.517 54.5283 205.978 54.3046 208.171C53.7635 208.151 53.2144 208.175 52.6774 208.171C52.7588 211.485 52.5798 214.823 52.6612 218.141C52.6897 219.299 53.0842 220.294 53.1046 221.354C53.2591 229.427 52.5147 237.667 54.4998 245.545L58.5839 246.341C68.1146 246.63 77.6698 247.446 87.2535 247.158C88.2705 246.24 80.7451 240.148 80.7451 239.649V206.957C79.7688 206.916 78.8495 207.241 77.8976 207.363L78.3044 204.114C78.7275 204.074 81.8108 203.399 81.9085 203.245C82.3112 201.45 81.6969 199.724 81.5586 198.023C83.9668 197.409 83.0922 199.935 84.8129 200.053C84.8942 200.813 85.5491 201.868 85.2196 202.9L86.2406 202.912C100.885 200.902 115.752 200.106 130.376 198.023C130.164 199.899 134.33 198.088 133.63 200.459C132.752 200.561 131.47 201.336 130.417 201.316C130.274 201.832 130.404 202.372 130.376 202.896C129.851 213.187 130.795 223.668 129.977 233.955C130.246 235.348 132.76 236.778 133.63 237.821C133.862 238.097 135.164 239.71 135.257 239.852C135.644 240.441 136.779 242.711 136.864 243.336C137.584 248.482 132.109 247.491 128.749 247.568C127.805 247.588 126.845 247.58 125.901 247.568C119.539 247.479 112.136 247.028 105.819 246.297C103.374 246.017 98.6433 245.663 97.2399 243.491C96.5769 242.459 96.2758 239.084 96.1904 237.634C95.5518 227.104 96.6989 215.928 96.2107 205.329C94.8928 205.381 84.4915 206.198 84.3898 206.782L84.4223 238.012C86.2244 240.607 93.2331 245.338 90.6948 249.168C89.4786 251.004 87.0867 250.731 85.2278 250.813C82.6813 250.926 80.0536 250.829 77.499 250.813C74.3465 250.792 70.9417 250.407 67.9397 250.407H60.6177C58.1405 250.407 53.9873 249.075 51.872 249.188C51.2456 247.385 50.6314 246.175 50.2449 244.315C50.0985 243.62 49.9317 242.999 49.8381 242.284C51.0666 242.512 50.6273 241.663 50.6517 240.883C50.9527 231.933 50.6761 222.625 50.6354 213.637C50.6314 212.387 51.1968 209.239 50.4727 208.139C50.1514 207.647 49.167 207.867 49.0246 207.765C48.9717 207.725 49.0937 206.998 48.3493 206.628C47.9344 206.425 46.2626 206.104 45.7704 206.141C45.6321 205.044 43.586 204.37 42.5161 203.298C42.2721 203.054 41.9426 202.941 41.7026 202.587C39.3514 199.103 38.4362 181.608 38.0416 176.495C38.0213 176.227 38.0619 175.951 38.0416 175.683C38.0213 175.415 38.0619 175.138 38.0416 174.87M48.6219 137.915C40.8321 139.161 38.9406 141.829 39.2497 149.501C39.4653 154.849 40.5067 160.713 40.889 166.139C41.605 176.336 41.5562 186.814 43.4517 196.881C44.31 201.446 45.4571 202.161 49.8381 203.7L45.3514 152.75C45.3555 147.426 44.6395 142.069 48.6219 137.915ZM126.723 201.669L100.462 204.89L100.327 241.423C111.07 242.926 121.952 243.913 132.821 243.901C132.536 240.38 126.796 238.365 126.341 235.555C126.04 233.715 126.707 232.335 126.739 230.718C126.935 221.045 126.56 211.339 126.719 201.665L126.723 201.669Z" fill="#193A51"/>
<path d="M158.045 134.255C157.37 133.751 156.361 132.838 155.604 132.224C152.895 130.04 150.499 126.291 146.863 127.347C126.43 133.28 130.36 127.026 124.283 126.543C124.413 125.828 124.095 122.705 124.303 122.494C124.376 122.421 125.495 122.454 125.946 122.303C126.439 122.141 126.935 121.718 127.134 121.666C131.202 120.577 133.996 120.269 137.32 117.012C139.187 115.18 142.185 109.799 142.185 107.249V100.751C142.185 100.528 141.229 99.7602 140.773 99.748C138.028 99.6708 139.126 103.74 138.89 105.58C138.007 112.471 133.207 117.422 126.325 118.413C126.097 118.193 129.127 113.146 124.905 113.937C123.233 114.25 123.514 116.423 123.07 117.194C122.656 117.913 119.706 121.95 119.174 122.441C118.279 123.27 116.944 123.513 116.155 124.504C113.426 124.415 111.506 125.061 109.228 123.095C107.019 121.186 107.08 117.41 108.487 115.022C109.159 113.881 112.877 111.367 110.586 109.856C108.524 108.492 106.144 111.903 105.359 113.527C104.033 116.268 103.822 118.713 104.355 121.662C101.499 120.935 101.288 116.987 101.495 114.538C102.361 104.138 115.085 100.43 121.809 94.5985C123.18 89.4085 117.355 94.0097 116.969 93.6401C117.148 92.7061 117.904 90.3872 116.993 89.7577C116.631 89.51 114.91 89.4207 114.581 89.6359C114.003 90.0095 113.771 93.9813 113.54 94.8869C112.881 97.4454 107.239 99.8089 104.961 101.754C103.997 102.575 102.524 104.057 101.751 105.048C100.925 106.104 98.9282 110.327 98.6638 110.494C98.3791 110.668 95.9953 111.143 95.6211 111.107C94.5757 111.005 91.8747 107.545 90.7235 106.648C85.9642 102.94 76.7304 101.052 70.9053 98.818C69.4246 98.2495 65.3284 96.8524 64.3399 96.0321C63.0626 94.9762 63.0871 91.0654 60.2722 92.0604C59.6701 92.2715 59.7189 93.2543 59.3935 93.2624C58.5515 93.2746 55.1346 90.0298 54.3739 92.2756C53.5522 94.7082 59.1576 97.2139 60.9678 98.1764C68.904 102.392 77.3812 103.712 85.1059 107.379C90.1093 109.755 96.9513 116.394 93.457 122.352C91.8584 125.081 91.8543 121.134 91.3621 119.814C90.7438 118.153 89.0272 115.034 86.8428 116.561C85.2483 117.674 88.2218 120.334 88.4659 121.889C88.8564 124.35 88.2503 126.604 86.0212 127.924C83.609 129.353 81.5222 128.87 79.0205 128.07C76.6083 127.298 70.946 123.891 69.1318 123.696C66.4023 123.408 67.6796 125.763 67.3379 126.129C66.7725 126.734 55.9969 125.073 54.3047 124.72C47.3651 123.278 38.9367 120.171 33.9618 114.977C32.6723 113.629 31.2445 109.97 28.9544 110.741C26.3836 111.606 31.3422 117.243 32.3347 118.226C41.5279 127.335 58.6247 129.581 70.9989 129.78V132.22C65.5643 132.346 60.1135 133.098 54.7237 133.841C49.1346 134.612 41.7231 134.755 38.0459 139.729C34.3686 144.704 36.6384 151.689 36.8296 157.395C30.2032 157.537 22.4459 158.922 15.8765 158.207C8.40807 157.395 3.50233 150.04 3.47386 142.974C3.42098 130.608 14.0907 111.911 19.0005 100.402C30.9191 72.4819 42.2885 43.0634 56.9447 16.4511C61.8057 7.62634 72.2558 0.170192 82.2503 5.84353C88.7954 9.55942 100.051 29.1339 104.521 36.4032C111.656 48.0017 117.742 60.1727 124.771 71.824C133.594 86.4479 143.934 100.625 152.017 115.692C155.055 121.357 158.476 127.64 158.049 134.239L158.045 134.255ZM92.8631 45.6219C94.0062 44.4766 93.9289 37.8408 90.4021 38.8886C88.9011 39.3353 89.0435 43.437 89.3852 44.6228C89.7798 45.9914 91.8259 46.6615 92.8631 45.6259V45.6219ZM69.0667 46.8321C72.8172 50.1946 74.2409 40.2247 70.6979 39.7008C67.4477 39.2175 67.5616 45.4838 69.0667 46.8321ZM98.1472 57.8051C99.4651 56.4934 97.4516 55.2507 97.1994 54.2679C97.0204 53.5735 98.0333 50.4627 95.6821 51.0434C92.8916 51.7338 95.3201 60.6235 98.1431 57.801L98.1472 57.8051ZM69.6158 52.2536C68.1718 52.7328 69.4735 55.1045 69.2904 55.9857C69.1724 56.5543 66.8131 58.9503 69.1724 59.1534C72.447 59.4336 72.7602 51.2099 69.6118 52.2536H69.6158ZM74.7575 55.9776C71.5765 59.125 81.6402 60.7778 83.4015 60.7859C85.4151 60.7941 95.1614 58.9828 92.1513 55.6649C90.8618 54.2476 87.1154 56.867 85.0286 57.0944C83.8124 57.2284 81.8639 57.1878 80.6476 56.9929C79.0083 56.733 76.1527 54.5887 74.7534 55.9736L74.7575 55.9776Z" fill="#3A5E3D"/>
</g>
<defs>
<clipPath id="clip0_188_514">
<rect width="162.931" height="250.861" fill="white"/>
</clipPath>
</defs>
</svg>
