<svg width="235" height="206" viewBox="0 0 235 206" fill="none" xmlns="http://www.w3.org/2000/svg">
<path d="M133.981 0.128795C132.2 0.535523 128.494 5.98198 127.146 7.58178C124.959 10.1762 121.542 13.5262 119.899 16.3474C118.655 18.4858 118.994 19.2462 120.293 21.3317C121.715 23.6167 126.568 27.4535 128.993 28.6429C130.889 29.5722 131.425 28.7489 132.701 27.4104C136.422 23.5083 140.568 18.2763 143.908 13.9822C144.619 13.0677 147.243 9.8915 147.359 9.0423C147.418 8.60969 147.425 8.17585 147.13 7.81719C143.846 5.15374 138.697 -0.952115 133.981 0.12633V0.128795ZM74.6039 22.2782L61.0894 15.2061C59.9937 14.8351 59.3885 15.6017 58.8623 16.4472C56.4983 20.247 54.4363 24.3562 52.1648 28.2251C51.1196 30.0048 46.5162 36.7701 46.3104 38.1394C46.2438 38.5843 46.234 39.0699 46.4041 39.4939C48.6632 40.0017 50.9582 40.2112 53.1977 40.8324C55.4334 41.4524 58.8327 43.3393 60.7825 43.6142C61.9953 43.7855 62.6066 43.168 63.2648 42.2683C65.7298 38.8998 68.2725 33.6395 70.5982 29.8951C71.4523 28.5209 74.0258 25.3213 74.4523 24.143C74.6137 23.6981 74.827 22.6381 74.6026 22.2807L74.6039 22.2782ZM13.9422 21.3045C10.2435 23.4503 5.90011 25.4014 2.34555 27.7025C0.00131576 29.2197 -0.628497 29.3799 0.649616 32.2554C1.80078 34.8449 8.02988 45.1055 10.0783 46.4748C11.7484 47.5915 13.2311 47.1663 14.9122 46.412C18.4002 44.8467 21.8648 42.0082 25.4391 40.4294C26.3672 39.6467 25.9469 38.482 25.7164 37.5009C24.6983 33.1674 20.7358 26.8693 17.6977 23.5982C16.7252 22.5506 15.5174 20.8953 13.9422 21.3045ZM112.533 27.4363C112.296 27.4979 109.64 30.186 108.889 30.711C107.915 31.3914 104.553 32.7447 104.461 33.6999C104.4 34.3433 104.909 34.84 105.56 34.798C107.06 34.7007 113.349 30.4226 113.596 28.9979C113.714 28.3126 113.404 27.2095 112.533 27.4363ZM119.439 27.9367C106.472 38.2121 93.5303 48.5726 80.5458 58.7876C79.5807 59.5468 75.9251 61.2329 77.0911 62.7637C77.6223 63.4613 78.4838 62.8549 79.0656 62.479C83.7626 59.4433 88.7728 54.8128 93.2628 51.3001C99.2787 46.5932 105.281 41.8098 111.257 37.019C113.836 34.9533 117.284 32.7607 119.624 30.6026C120.758 29.5562 121.665 28.145 119.439 27.9367ZM209.316 53.1871C210.155 54.0967 211.665 53.6345 212.779 53.7873C216.824 54.3419 221.136 55.5436 225.002 56.8439C226.294 57.2778 231.022 59.5296 231.924 59.3127C233.048 59.0415 233.336 56.1402 233.568 55.0383C234.038 52.7927 235.366 45.9609 234.821 44.0825C234.587 43.2765 232.609 42.7206 231.801 42.4211C227.527 40.8361 220.781 38.9689 216.262 38.9676C215.412 38.9676 211.688 39.2486 211.141 39.5309C210.727 39.7441 210.64 39.9697 210.527 40.3949C209.607 43.8558 209.834 48.3976 208.82 51.9607C208.827 52.3095 209.087 52.9381 209.317 53.1871H209.316ZM112.118 64.8331C114.392 65.1671 116.191 63.1421 118.111 62.0858C121.511 60.2161 125.474 58.3883 129.133 57.0892C130.491 56.6073 134.784 55.7852 135.54 54.8732C136.54 53.6678 135.005 49.7398 134.419 48.3433C133.955 47.239 130.311 40.6451 129.614 40.3382C129.377 40.2334 127.132 39.961 126.844 40.0079C126.319 40.0929 123.151 41.6138 122.38 41.9725C118.32 43.857 113.09 46.8742 109.57 49.614C108.683 50.3042 108.216 50.5951 108.471 51.8523C108.691 52.9394 110.169 55.4376 110.64 56.8304C111.538 59.4914 111.982 62.0254 112.118 64.8331ZM68.678 40.7572C67.4442 40.8534 66.5728 41.71 65.6559 42.4359C60.398 46.6006 53.2211 52.6374 48.5117 57.3209C47.3124 58.5128 47.0733 59.1795 48.7606 60.0374C50.6969 61.0209 59.9838 64.9181 61.7032 65.0833C64.2717 65.331 66.6505 62.9165 68.4869 61.2699C72.3398 57.8164 78.8523 51.294 81.6489 47.0862C82.2639 46.1618 83.1464 45.2091 82.0322 44.2847C80.0503 42.6417 75.7785 42.362 73.3529 41.8751C71.9256 41.5879 70.1385 40.6438 68.678 40.7572ZM189.219 44.9638C179.823 45.3372 169.406 46.64 160.548 49.8112C159.719 50.1083 155.349 51.8239 155.127 52.2763C154.864 52.8136 154.954 53.6123 155.502 53.8909C156.051 54.1694 158.782 52.6472 159.624 52.3354C169.16 48.8068 179 47.6248 189.136 47.0973L203.407 46.8261C204.186 46.5697 203.892 44.9441 202.943 44.8985C198.37 44.9416 193.788 44.7826 189.217 44.9638H189.219ZM21.9178 81.308C22.3504 81.679 23.4313 81.1157 23.7234 80.5759C24.071 79.9338 24.6466 76.6664 24.7895 75.7309C25.8877 68.5392 25.5685 53.2425 21.6922 46.9407C21.1142 46.0016 20.3081 45.7612 19.8028 46.868C19.4022 47.7431 20.4622 49.3367 20.7753 50.319C22.9519 57.1447 23.7998 64.4498 23.1244 71.6069C22.873 74.2679 21.7933 77.6351 21.7132 80.0484C21.7046 80.2937 21.834 81.2378 21.9178 81.3092V81.308ZM46.7097 46.4021C46.2414 46.5623 41.5862 53.4188 40.9206 54.4159C38.813 57.5773 36.7757 60.8632 34.9171 64.1774C33.9742 65.8585 31.6201 69.6337 31.1283 71.2249C30.7278 72.519 31.3329 73.5999 32.6135 72.9602L40.4289 59.0945L48.2393 47.4202C48.3748 46.5722 47.4184 46.1606 46.711 46.4009L46.7097 46.4021ZM51.1665 64.4054C51.0198 64.2575 50.5601 64.0923 50.3579 64.1083C49.8033 64.1552 47.4086 67.5027 47.5639 68.1066C47.6772 68.5491 48.3502 69.0569 48.8284 68.9891C49.6702 68.8695 52.1451 65.3914 51.1665 64.4042V64.4054ZM55.0982 65.1091C54.2749 65.3248 49.0872 72.7606 48.0162 74.0621C47.1892 75.0666 43.7147 78.3389 43.5841 79.2608C43.4177 80.4317 44.5417 81.0184 45.4328 80.3442C49.2327 75.9651 52.7564 71.39 56.2851 66.7928C56.624 66.1358 55.8192 64.9218 55.0982 65.1104V65.1091ZM168.019 93.9634C167.008 94.0719 165.346 94.131 165.219 95.3512L163.655 107.329C163.711 108.498 166.778 109.032 167.731 109.127C170.685 109.422 173.7 109.065 176.79 109.435C178.705 109.664 184.939 111.432 186.139 111.076C186.671 110.918 187.3 109.987 187.48 109.462C188.145 107.521 189.523 100.989 189.736 98.9144C189.983 96.4999 189.153 96.4814 187.06 95.9761C182.641 94.9075 172.37 93.4988 168.021 93.9647L168.019 93.9634Z" fill="#E5D7BF"/>
<path d="M155.124 87.6138C155.133 88.1056 155.118 88.5986 155.124 89.0916C155.177 92.9321 155.204 96.8244 155.124 100.665C155.107 101.483 155.15 102.31 155.124 103.127C155.003 106.926 154.662 110.779 154.382 114.575C153.571 125.603 152.803 137.641 151.424 148.554C149.586 163.088 136.969 153.904 129.493 150.52C129.086 150.336 128.734 150.105 128.255 150.158C128.295 149.591 128.114 149.223 127.606 148.958C118.712 144.472 109.061 140.618 100.396 135.758C100.065 135.573 97.5264 134.295 97.9368 133.907C109.405 131.839 120.953 130.165 132.558 128.971C133.755 128.627 133.506 127.336 132.516 126.797C113.909 128.576 95.6579 131.727 77.5819 136.334C77.222 136.426 77.052 136.84 76.9817 136.86C72.3783 138.144 65.1324 139.228 60.2652 139.983C57.8643 140.355 55.117 140.933 52.7037 140.795C48.5563 140.559 44.7356 138.377 40.7459 137.845C40.8618 137.131 39.999 137.314 39.8055 136.692C39.4543 135.56 39.8487 134.439 40.9875 134.024L44.1945 133.416C42.4098 132.674 38.0504 132.051 37.2333 130.149C36.0464 127.387 39.9645 127.646 41.5779 127.474C41.9193 127.439 43.0778 127.343 43.2085 127.015C41.4226 126.358 38.1663 125.514 37.2456 123.736C36.8685 123.009 36.4654 121.709 37.1569 121.088C38.4794 119.901 44.7541 121.404 46.6595 121.594C46.1924 119.238 43.8149 117.982 47.5272 117.66C51.2395 117.338 52.6742 118.838 55.398 120.576L69.1639 118.589C69.8578 118.445 70.1179 117.141 69.6002 116.78C68.7646 116.197 57.8014 118.497 55.8984 118.414C55.17 118.467 54.9235 117.752 54.3861 117.449C50.9536 115.512 48.2063 115.366 44.3621 116.15C44.086 116.06 41.8638 111.771 41.5076 111.101C41.2981 110.706 41.3215 110.181 41.2377 110.023L42.4702 109.777C43.8753 113.059 44.5076 115.18 48.5785 114.031C55.1108 112.189 61.8946 108.835 68.4392 106.786C69.7641 105.976 69.0074 103.593 68.8459 102.143L89.5521 97.4641H90.2916C90.315 98.5795 90.4814 99.9562 90.5381 101.158C90.5405 101.205 90.5319 101.289 90.5381 101.404C90.5455 101.568 90.5319 101.733 90.5381 101.897C90.1991 102.257 90.0919 103.081 90.5381 103.375C90.5541 103.826 90.458 104.467 90.5381 104.853L81.4175 114.455L73.0377 117.167C73.0364 117.597 74.1174 117.439 74.4021 117.421C76.4419 117.287 78.356 116.913 80.4315 116.918C80.5535 116.918 80.9208 117.162 81.2819 117.166C88.2185 117.227 95.2869 115.857 102.242 115.681C103.548 115.441 103.418 113.461 102.013 113.46L84.622 114.699L92.2611 106.45C92.372 105.982 91.8753 106.065 91.5241 105.838C95.9044 105.782 100.323 105.337 104.681 104.822C106.49 104.609 111.918 104.2 113.094 103.376C115.024 102.024 113.982 99.4669 113.946 97.5984C113.893 94.8684 114.468 89.5156 112.723 87.3698C120.113 81.8432 127.025 75.3491 134.929 70.5239C139.025 68.0243 142.899 66.3346 147.779 67.7421C155.974 70.1048 155.006 80.8363 155.122 87.6163L155.124 87.6138ZM128.562 87.0604C130.089 88.5826 131.709 84.3662 131.419 83.3592C130.653 80.6958 127.321 85.8242 128.562 87.0604ZM136.551 83.236C135.698 83.3148 134.302 86.1582 134.516 86.878C134.748 87.657 135.727 87.8973 136.394 87.4918C137.076 87.0765 138.616 83.0449 136.551 83.236ZM130.786 92.8471C130.24 93.4054 130.522 94.6182 131.343 94.7636C132.294 94.9313 134.365 93.7567 135.591 93.5878C136.518 93.4596 138.587 93.8245 138.981 93.0332C140.394 90.1898 134.078 91.5443 132.747 91.9769C132.365 92.1014 130.988 92.6425 130.787 92.8471H130.786Z" fill="#BD6A4F"/>
<path d="M124.933 150.277C123.254 153.368 121.353 156.353 119.714 159.468C117.082 164.47 114.264 169.416 114.582 175.266C115.084 184.479 117.384 194.32 118.275 203.59C118.325 204.119 118.256 204.656 118.277 205.184C108.996 205.173 99.7032 205.17 90.4224 205.184C90.3016 204.76 90.1278 204.349 90.2141 203.89C90.4754 202.501 95.1244 200.048 96.3421 199.101C95.7986 190.127 93.1401 180.571 93.8783 171.578C94.1396 168.397 95.7345 164.094 96.9633 161.118C99.718 154.446 103.796 148.12 107.432 141.904C113.213 144.783 119.167 147.363 124.934 150.276L124.933 150.277Z" fill="#BD6A4F"/>
<path d="M84.5055 72.7148C84.8494 73.3002 85.5236 74.2653 85.738 74.6843C86.4652 76.1054 87.9233 79.4307 88.4545 80.9591C88.7306 81.754 89.1965 82.7252 88.8168 83.5461L73.6594 93.644C72.5243 93.8191 70.3009 95.4398 69.2224 96.1066C68.7232 96.4147 66.6502 97.4143 66.5405 97.7508C66.6822 98.7109 66.6452 99.7265 66.7475 100.682C66.782 101.003 66.999 101.229 67.0039 101.277C67.1654 102.728 67.9233 105.11 66.5972 105.92C60.0525 107.969 53.2688 111.323 46.7365 113.166C42.6655 114.314 42.0333 112.193 40.6282 108.911C40.2276 107.977 39.005 104.033 38.4109 103.613C37.9327 103.274 37.5432 104.947 36.9307 104.724C35.3839 102.036 33.312 98.5371 30.5216 97.0914C32.3408 95.7442 37.0625 94.2578 37.9352 92.0627C38.4319 90.8105 37.8366 87.8956 37.5987 86.4523C37.4459 85.528 37.0453 82.1004 36.2626 81.8674C35.6415 81.6825 34.7725 81.9118 34.7343 82.6685C34.9044 84.6208 36.5609 89.79 35.8177 91.4255C35.2483 92.679 29.2065 94.842 28.0554 96.1066C26.5184 95.621 24.2568 95.1933 22.6323 94.8753L34.9525 79.2151L50.7089 85.438C50.8802 85.9877 50.4575 86.6126 50.1962 87.0748C48.34 90.3606 45.1872 93.066 43.7058 96.5934L58.3874 91.0607C58.8681 90.6293 57.4063 87.9104 57.3817 86.8628C57.3657 86.1541 57.5961 85.3838 58.1175 84.892L81.1223 70.2005C83.024 69.2428 83.7636 71.4502 84.5055 72.716V72.7148ZM86.6957 83.2725C86.92 83.0777 87.0642 81.913 86.618 81.563C86.0807 81.1402 82.0688 80.4044 81.1876 80.3391C78.3122 80.1259 74.3546 79.957 72.4331 82.4479L65.6481 91.1889C65.4657 92.1613 65.589 94.4094 66.8843 93.1547C69.4492 90.6688 71.738 85.8903 74.2671 83.5387C74.5912 83.238 75.0349 82.8879 75.4527 82.7536C76.1208 82.5367 78.2049 82.3666 78.9605 82.3678C80.1178 82.3678 86.4024 83.5288 86.6969 83.2725H86.6957ZM61.0139 91.7016C59.9749 91.974 54.8341 98.9981 53.5732 100.296C52.8165 101.075 51.5445 102.251 50.3983 102.246C47.7866 102.233 43.6971 100.401 40.9955 100.515C39.5165 100.578 39.0777 102 40.5234 102.491C41.9174 102.964 49.7697 104.342 51.0762 104.204C52.4245 104.061 53.8444 102.962 54.8045 102.02C55.9347 100.911 61.3516 94.6498 61.8458 93.543C62.2255 92.6925 62.0332 91.4354 61.0139 91.7028V91.7016Z" fill="#FCFCFA"/>
<path d="M106.198 141.413C101.022 143.986 95.5114 145.923 90.4174 148.672C85.1891 151.493 84.2142 152.311 83.0951 158.348C81.5902 166.473 81.0775 174.985 79.559 183.131C79.3125 184.131 78.4485 184.428 77.4995 184.246C70.1969 180.389 62.8733 176.473 55.8961 172.087C55.18 170.736 55.9368 170.114 57.0509 169.513C58.859 168.539 61.0973 168.238 63.0902 167.866C64.6112 161.145 65.5516 154.276 67.1255 147.567C67.5741 145.653 68.0425 143.177 68.8572 141.418C69.9615 139.036 72.6927 137.31 75.1393 136.49C75.2231 137.225 75.7567 137.45 76.463 137.456C81.8145 136.368 87.0441 134.575 92.5041 134.036C96.8203 136.46 101.222 138.658 105.641 140.872C105.953 141.029 106.139 141.384 106.198 141.413Z" fill="#BD6A4F"/>
<path d="M22.6333 94.8754C24.2578 95.1934 26.5194 95.6211 28.0564 96.1067C28.611 96.2817 30.0198 96.8314 30.5214 97.0915C33.3118 98.5372 35.3836 102.036 36.9304 104.724C37.7451 106.141 38.6486 107.756 39.3955 109.157C39.4793 109.314 39.4558 109.839 39.6654 110.234C40.0216 110.904 42.245 115.193 42.5199 115.283C46.3628 114.499 49.1113 114.645 52.5439 116.582C53.0812 116.886 53.3277 117.6 54.0562 117.547C55.9604 117.63 66.9223 115.33 67.758 115.913C68.2756 116.273 68.0155 117.578 67.3216 117.722L53.5558 119.709C50.8331 117.971 49.2309 116.487 45.685 116.793C42.139 117.099 44.3489 118.371 44.8173 120.727C42.9118 120.538 36.6359 119.034 35.3146 120.221C34.6219 120.842 35.0262 122.143 35.4034 122.869C36.324 124.645 39.5803 125.491 41.3662 126.148C41.2356 126.476 40.0783 126.571 39.7356 126.608C38.1235 126.779 34.2054 126.52 35.391 129.282C36.2082 131.184 40.5663 131.808 42.3522 132.55L39.1453 133.157C38.0064 133.573 37.612 134.693 37.9633 135.826C38.1556 136.447 39.0183 136.264 38.9037 136.978C34.4198 136.379 33.159 136.766 29.0436 134.515C28.823 133.529 29.8423 133.683 30.4105 133.049C31.1993 132.167 31.304 129.838 30.1529 129.838H26.4553C26.3999 129.838 26.0042 129.413 26.0856 129.347C29.2371 129.355 33.2908 127.713 29.1015 124.978L23.6218 124.178C25.102 123.608 28.6196 124.542 28.8181 122.332C29.1644 118.462 21.7176 117.662 19.1022 116.561C18.5155 114.936 17.4013 113.372 16.7185 111.864C15.1631 108.433 12.597 102.338 11.7182 98.7603C11.1919 96.6145 11.0293 94.2271 13.8776 93.8833C16.3192 93.5887 20.1548 94.3886 22.6346 94.8742L22.6333 94.8754Z" fill="#0D4056"/>
<path d="M133.981 0.12926C138.698 -0.949186 143.847 5.15667 147.13 7.82012C147.425 8.17755 147.419 8.61262 147.359 9.04523C147.242 9.89443 144.619 13.0706 143.908 13.9851C140.568 18.278 136.422 23.5112 132.701 27.4133C131.425 28.7518 130.889 29.5751 128.993 28.6458C126.568 27.4565 121.714 23.6184 120.293 21.3346C118.995 19.2492 118.655 18.4887 119.899 16.3503C121.54 13.5291 124.959 10.1779 127.146 7.58471C128.494 5.98368 132.2 0.538453 133.981 0.131725V0.12926ZM120.035 18.0832C119.337 19.1752 120.636 19.8876 121.789 19.72C123.934 19.4106 129.416 17.2118 131.716 16.3331C132.54 16.0188 134.206 15.5233 134.774 14.9563C136.627 13.1076 136.117 6.19321 136.958 3.57043C137 2.38598 135.371 1.97186 134.954 3.31776C134.379 5.16776 134.166 12.3841 133.502 13.3159C132.025 14.4054 120.42 17.4818 120.034 18.0832H120.035Z" fill="#FCFCFA"/>
<path d="M68.6785 40.7574C70.139 40.6441 71.9249 41.5882 73.3534 41.8753C75.779 42.3622 80.0521 42.642 82.0327 44.2849C83.1469 45.2093 82.2644 46.162 81.6494 47.0864C78.8529 51.2942 72.339 57.8166 68.4874 61.2701C66.6498 62.9167 64.271 65.3312 61.7037 65.0835C59.9844 64.9183 50.6974 61.0211 48.7611 60.0376C47.0738 59.1798 47.3129 58.5142 48.5122 57.3211C53.2216 52.6376 60.3973 46.6008 65.6564 42.4361C66.5734 41.7102 67.4447 40.8536 68.6785 40.7574ZM78.0382 45.6801C75.7408 45.9981 70.0503 48.1907 67.6826 49.1397C65.3606 50.0691 64.133 50.5633 63.3208 53.154C62.7304 55.0373 61.8615 59.3572 61.652 61.333C61.4757 62.9993 61.8159 64.5239 63.5019 62.9377C64.3129 59.9673 64.4818 56.345 65.3409 53.4474C65.7254 52.1508 67.2759 51.6048 68.4197 51.1056C71.7869 49.634 75.4585 48.7614 78.9305 47.5695C80.1815 46.8448 79.6367 45.4595 78.0406 45.6801H78.0382Z" fill="#FCFCFA"/>
<path d="M74.6041 22.2785C74.8272 22.6359 74.614 23.6959 74.4538 24.1408C74.0273 25.3191 71.4526 28.5187 70.5997 29.8929C68.274 33.6373 65.7313 38.8964 63.2663 42.2661C62.6081 43.1646 61.998 43.7821 60.784 43.612C58.8329 43.3372 55.4349 41.4502 53.1991 40.8302C50.9597 40.2091 48.6647 39.9995 46.4055 39.4917C46.2355 39.0677 46.2453 38.5809 46.3119 38.1372C46.5177 36.7679 51.1211 30.0026 52.1663 28.2229C54.4378 24.3541 56.4998 20.2449 58.8637 16.445C59.39 15.5995 59.994 14.8341 61.0909 15.2039L74.6054 22.276L74.6041 22.2785ZM62.5687 25.1922C62.7141 24.2012 62.5489 17.0083 60.4524 18.7659C59.6809 19.4129 60.5375 22.7653 60.593 23.8413C60.6916 25.769 60.6423 29.5984 59.57 31.1859C59.019 32.0005 57.5671 32.7142 56.6576 33.201C53.6663 34.8008 50.2769 35.9865 47.2831 37.6245C46.7605 38.2124 46.8714 39.6372 47.8969 39.493L57.2763 35.2901C57.7976 35.2235 57.5622 35.348 57.6645 35.6315C57.9702 36.4745 57.7015 37.5912 58.8662 37.9018C60.6127 38.3689 59.4677 34.8686 59.6501 34.2363C59.7894 33.7507 60.9652 32.9705 61.3349 32.4553C62.3234 31.0786 62.4947 29.0906 62.5995 27.4403C63.6015 26.8326 67.5751 27.0409 66.6421 25.1909C65.9975 23.9116 62.777 25.4103 62.5699 25.1909L62.5687 25.1922Z" fill="#FCFCFA"/>
<path d="M13.9423 21.3046C15.5174 20.8966 16.7253 22.5519 17.6977 23.5983C20.7359 26.8694 24.6996 33.1662 25.7164 37.501C25.9469 38.4821 26.3672 39.6468 25.4391 40.4294C21.8661 42.007 18.4003 44.8455 14.9123 46.412C13.2323 47.1663 11.7496 47.5915 10.0784 46.4749C8.02993 45.1056 1.80083 34.8449 0.649664 32.2554C-0.628448 29.38 0.00136442 29.2198 2.34436 27.7025C5.89892 25.4027 10.2423 23.4504 13.941 21.3046H13.9423ZM23.546 38.5646C23.2021 38.3218 20.3982 37.713 19.7326 37.5712C18.4902 37.3075 11.8667 36.4842 11.4095 35.7903C10.4617 34.3556 13.4554 26.5329 13.7525 24.5436C13.8264 23.5145 12.5914 23.1275 11.8865 23.6919C11.6547 23.8781 10.6194 27.6964 10.4284 28.3903C9.70737 31.0143 7.88819 35.9653 10.6761 37.7536C12.3178 38.8062 17.9208 39.3867 20.1714 39.8415C20.8961 39.9882 22.5933 40.65 23.0518 40.6587C24.023 40.6772 24.4322 39.192 23.546 38.5646Z" fill="#FCFCFA"/>
<path d="M110.882 86.5042C112.627 88.6488 112.052 94.0028 112.105 96.7328C112.141 98.6013 113.184 101.159 111.253 102.511C110.077 103.334 104.649 103.742 102.84 103.957C98.4819 104.472 94.0633 104.917 89.683 104.972C89.3256 104.742 88.8535 104.738 88.697 103.987C88.6169 103.602 88.713 102.961 88.697 102.51C88.6847 102.171 88.7167 101.57 88.697 101.032C88.6908 100.868 88.7044 100.703 88.697 100.539V100.292C88.6403 99.0906 88.4739 97.7151 88.4505 96.5985C88.4493 96.5159 88.4517 96.4345 88.4505 96.352C88.432 95.3721 88.4394 94.3775 88.4505 93.3976C88.4591 92.6643 88.4074 91.9112 88.4505 91.1816C88.4591 91.0374 88.6662 90.6824 88.6982 90.3324C88.7894 89.3636 88.3297 87.8033 89.2972 87.2265C91.5749 86.8062 94.1028 86.9738 96.4593 86.747C99.511 86.4537 102.82 85.6686 105.818 85.5071C107.302 85.427 109.865 85.2532 110.881 86.503L110.882 86.5042ZM90.7023 88.5058C89.7422 89.9762 91.9373 91.311 93.0527 92.1245C95.0309 93.5677 99.6824 96.2965 102.077 95.8023C103.772 95.4535 110.31 90.3312 110.161 88.6019C110.104 87.945 109.321 87.6714 108.74 87.9105C106.974 88.6389 103.98 93.5591 101.399 93.6676C100.039 93.7243 97.6499 92.4067 96.4211 91.7153C95.1923 91.0238 92.9948 89.0506 92.0876 88.6586C91.6538 88.4713 91.1682 88.3801 90.7035 88.5046L90.7023 88.5058Z" fill="#FCFCFA"/>
<path d="M112.118 64.8335C111.983 62.0258 111.538 59.4918 110.64 56.8308C110.17 55.4368 108.692 52.9398 108.471 51.8527C108.216 50.5955 108.683 50.3047 109.571 49.6145C113.091 46.8746 118.32 43.8574 122.38 41.9729C123.152 41.6143 126.319 40.0933 126.844 40.0083C127.131 39.9615 129.376 40.2338 129.615 40.3386C130.311 40.6455 133.956 47.2394 134.419 48.3438C135.006 49.7402 136.539 53.6682 135.541 54.8736C134.785 55.7856 130.492 56.6077 129.133 57.0896C125.475 58.3887 121.511 60.2165 118.112 62.0862C116.19 63.1425 114.392 65.1675 112.118 64.8335ZM133.277 54.7047C134.064 54.2105 133.452 52.8917 132.345 52.6317C130.544 52.2089 126.184 51.6333 124.315 51.5434C121.929 51.4287 120.672 52.2311 118.901 53.7631C117.682 54.8181 114.575 58.5329 114.347 60.0514C114.248 60.7071 114.167 61.5217 114.957 61.6487C116.332 61.8693 116.677 59.8332 117.339 58.8521C118.492 57.1426 121.405 53.6189 123.574 53.5597C125.869 53.4969 129.251 54.5876 131.714 54.7368C132.073 54.759 133.068 54.8354 133.277 54.7047Z" fill="#FCFCFA"/>
<path d="M209.317 53.1872C209.087 52.9383 208.827 52.3097 208.82 51.9609C209.832 48.3977 209.606 43.8559 210.527 40.395C210.64 39.9698 210.727 39.7455 211.141 39.531C211.688 39.2488 215.411 38.9665 216.262 38.9678C220.78 38.969 227.527 40.8363 231.8 42.4213C232.608 42.7208 234.587 43.2766 234.821 44.0827C235.366 45.961 234.038 52.7928 233.567 55.0385C233.337 56.1403 233.048 59.0429 231.923 59.3128C231.021 59.5297 226.293 57.2779 225.001 56.8441C221.134 55.5438 216.823 54.3433 212.779 53.7875C211.664 53.6346 210.155 54.0956 209.315 53.1872H209.317ZM211.366 40.9805C209.545 41.5943 213.21 44.8567 213.791 45.3916C219.635 50.7715 222.29 51.1413 229.618 47.8924C230.389 47.551 233.3 46.1619 233.408 45.5013C233.529 44.7704 233.093 44.1049 232.308 44.1529C231.802 44.1838 228.425 46.1176 227.474 46.4898C225.666 47.1972 222.912 48.1882 221.001 47.7925C219.381 47.4573 216.249 44.7039 214.902 43.5429C214.011 42.775 212.573 40.5762 211.366 40.9817V40.9805Z" fill="#FCFCFA"/>
<path d="M168.019 93.9636C172.369 93.4978 182.639 94.9078 187.059 95.9751C189.152 96.4804 189.983 96.4989 189.735 98.9134C189.523 100.988 188.144 107.52 187.478 109.461C187.298 109.986 186.67 110.917 186.137 111.075C184.938 111.431 178.704 109.663 176.789 109.434C173.699 109.064 170.684 109.421 167.73 109.126C166.777 109.031 163.709 108.496 163.654 107.328L165.218 95.3502C165.346 94.13 167.007 94.0709 168.018 93.9624L168.019 93.9636ZM166.521 95.402C165.907 95.5733 165.707 96.3695 165.895 96.9155C168.009 98.7828 172.544 103.845 175.377 103.972C176.519 104.022 179.05 102.726 180.201 102.192C181.857 101.425 184.974 99.9734 186.4 99.0268C187.695 98.1665 186.973 96.8428 185.51 97.1386C183.738 97.4973 179.706 100.245 177.606 101.076C177.018 101.309 175.953 101.779 175.365 101.757C173.572 101.688 168.957 96.7171 167.327 95.4907C167.07 95.3293 166.805 95.3243 166.521 95.4032V95.402Z" fill="#FCFCFA"/>
<path d="M75.1391 135.996C75.2094 135.976 75.3782 135.562 75.7393 135.47C93.8153 130.863 112.066 127.712 130.674 125.933C131.663 126.472 131.912 127.762 130.715 128.107C119.11 129.302 107.563 130.975 96.0942 133.043C95.6838 133.431 98.2228 134.708 98.5531 134.894C107.219 139.754 116.871 143.608 125.763 148.094C126.271 148.359 126.452 148.727 126.413 149.294C126.357 150.094 125.625 150.277 124.934 150.278C119.167 147.366 113.213 144.786 107.432 141.907C106.939 141.662 106.474 141.552 106.2 141.414C106.14 141.385 105.954 141.03 105.642 140.873C101.223 138.658 96.8214 136.461 92.5052 134.036C87.0451 134.575 81.8156 136.367 76.4641 137.457C75.7578 137.449 75.2229 137.226 75.1403 136.49C75.1219 136.33 75.1527 136.16 75.1403 135.997L75.1391 135.996Z" fill="#0D4056"/>
<path d="M16.718 111.865C17.4008 113.373 18.515 114.937 19.1017 116.563C21.7183 117.663 29.1651 118.464 28.8175 122.333C28.6191 124.543 25.1015 123.609 23.6213 124.179L29.101 124.979C33.2903 127.716 29.2366 129.357 26.0851 129.349C26.0037 129.414 26.3994 129.839 26.4548 129.839H30.1523C31.3035 129.839 31.1987 132.17 30.4099 133.05C29.8418 133.685 28.8225 133.532 29.0431 134.517C28.1101 134.006 27.7662 134.668 26.9281 134.743C22.3764 135.149 21.7972 133.24 19.8806 129.758C17.5401 125.506 14.5636 118.89 15.2624 113.979C15.3992 113.014 15.8885 112.354 16.7192 111.864L16.718 111.865Z" fill="#BD6A4F"/>
<path d="M119.439 27.937C121.665 28.1441 120.758 29.5565 119.624 30.6029C117.285 32.7611 113.836 34.9537 111.258 37.0194C105.28 41.8101 99.279 46.5935 93.2631 51.3005C88.7731 54.8131 83.7617 59.4436 79.0658 62.4793C78.4841 62.8552 77.6225 63.4616 77.0913 62.764C75.9254 61.2333 79.581 59.5472 80.5461 58.788C93.5305 48.5729 106.472 38.2124 119.439 27.937Z" fill="#D0C7B3"/>
<path d="M189.219 44.9635C193.789 44.7823 198.37 44.9413 202.944 44.8981C203.893 44.9437 204.188 46.5694 203.409 46.8258L189.137 47.0969C179.001 47.6244 169.161 48.8077 159.625 52.3351C158.783 52.6469 156.072 54.1789 155.503 53.8905C154.935 53.6021 154.865 52.8133 155.129 52.2759C155.351 51.8224 159.72 50.1079 160.549 49.8109C169.409 46.6397 179.825 45.3369 189.22 44.9635H189.219Z" fill="#D0C7B3"/>
<path d="M21.9181 81.3085C21.8355 81.237 21.7061 80.2917 21.7135 80.0476C21.7936 77.6344 22.8745 74.2672 23.1247 71.6062C23.8001 64.449 22.9521 57.1439 20.7755 50.3183C20.4625 49.3359 19.4025 47.7435 19.8031 46.8672C20.3084 45.7604 21.1145 46.002 21.6925 46.94C25.57 53.2418 25.8892 68.5384 24.7898 75.7301C24.6468 76.6656 24.0713 79.9318 23.7237 80.5751C23.4316 81.115 22.3494 81.6795 21.9181 81.3072V81.3085Z" fill="#D0C7B3"/>
<path d="M46.7099 46.4028C47.4174 46.1612 48.375 46.5741 48.2382 47.4221L40.4278 59.0964L32.6125 72.9621C31.3319 73.6018 30.7267 72.5209 31.1273 71.2268C31.6191 69.6356 33.9731 65.8592 34.916 64.1793C36.7746 60.8651 38.8132 57.5792 40.9196 54.4178C41.5851 53.4195 46.2403 46.563 46.7087 46.404L46.7099 46.4028Z" fill="#D0C7B3"/>
<path d="M85.7389 74.6848C85.5244 74.2658 84.8502 73.3007 84.5063 72.7153C92.1886 69.0966 99.8277 64.9936 105.957 59.048C107.034 58.5464 107.776 59.6297 107.305 60.6453C106.794 61.7472 101.425 65.6148 100.114 66.5133C95.5546 69.6377 90.6011 72.0842 85.7389 74.6848Z" fill="#D0C7B3"/>
<path d="M55.0983 65.109C55.8193 64.9204 56.6254 66.1345 56.2852 66.7914C52.7565 71.3886 49.2315 75.9637 45.4329 80.3428C44.5418 81.0182 43.419 80.4303 43.5842 79.2595C43.7148 78.3375 47.1893 75.0652 48.0163 74.0607C49.0873 72.7604 54.2737 65.3235 55.0983 65.1078V65.109Z" fill="#D0C7B3"/>
<path d="M112.533 27.4365C113.405 27.2097 113.714 28.3115 113.596 28.9981C113.349 30.4241 107.061 34.7009 105.56 34.7982C104.909 34.8402 104.4 34.3435 104.462 33.7001C104.553 32.7449 107.914 31.3916 108.889 30.7112C109.642 30.185 112.297 27.4981 112.533 27.4365Z" fill="#D0C7B3"/>
<path d="M153.28 102.262C153.306 101.445 153.263 100.618 153.28 99.7993C154.46 100.287 160.022 99.9669 160.562 100.773C160.808 101.142 160.728 101.812 160.451 102.162C159.717 103.089 154.651 101.87 153.28 102.261V102.262Z" fill="#D0C7B3"/>
<path d="M51.1665 64.4059C52.1463 65.3932 49.6702 68.8713 48.8284 68.9909C48.3502 69.0586 47.6773 68.5509 47.5639 68.1084C47.4086 67.5032 49.8033 64.1557 50.358 64.1101C50.5601 64.0929 51.0186 64.2593 51.1665 64.4072V64.4059Z" fill="#D0C7B3"/>
<path d="M153.28 88.2273C153.274 87.7355 153.288 87.2425 153.28 86.7495C153.683 86.9972 153.676 87.9931 153.28 88.2273Z" fill="#D0C7B3"/>
<path d="M89.6824 104.971C90.0337 105.197 90.5304 105.114 90.4195 105.584L82.7804 113.833L100.171 112.593C101.576 112.594 101.707 114.576 100.4 114.814C93.4453 114.989 86.3768 116.359 79.4403 116.299C79.0792 116.295 78.7119 116.051 78.5899 116.051C78.3175 114.922 79.1901 114.497 79.5759 113.589L88.6964 103.986C88.853 104.737 89.325 104.741 89.6824 104.971Z" fill="#0D4056"/>
<path d="M128.942 91.9832C129.143 91.7773 130.521 91.2363 130.901 91.113C132.233 90.6804 138.549 89.3259 137.135 92.1693C136.742 92.9606 134.673 92.5957 133.746 92.7239C132.52 92.894 130.449 94.0673 129.498 93.8997C128.677 93.7555 128.395 92.5427 128.941 91.9832H128.942Z" fill="#0D4056"/>
<path d="M126.719 86.1975C125.478 84.9613 128.81 79.8316 129.576 82.4963C129.866 83.5032 128.248 87.7209 126.719 86.1975Z" fill="#0D4056"/>
<path d="M40.6287 108.91L39.3962 109.157C38.6493 107.757 37.7458 106.141 36.9312 104.725C37.5437 104.948 37.9332 103.274 38.4114 103.613C39.0055 104.033 40.2281 107.977 40.6287 108.911V108.91Z" fill="#E5D7BF"/>
<path d="M134.707 82.3733C136.772 82.1822 135.232 86.215 134.55 86.6291C133.883 87.0346 132.904 86.7943 132.672 86.0153C132.458 85.2956 133.854 82.4509 134.707 82.3733Z" fill="#0D4056"/>
<path d="M78.5896 116.051C76.5141 116.046 74.6012 116.42 72.5602 116.554C72.2755 116.573 71.1946 116.732 71.1958 116.3L79.5756 113.589C79.1899 114.497 78.3172 114.921 78.5896 116.051Z" fill="#E5D7BF"/>
<path d="M88.6967 102.509C88.2505 102.216 88.3577 101.391 88.6967 101.031C88.7164 101.569 88.6843 102.17 88.6967 102.509Z" fill="#D0C7B3"/>
<path d="M88.45 96.354C88.4512 96.4366 88.4487 96.5179 88.45 96.6005H87.7104L88.45 96.354Z" fill="#D0C7B3"/>
<path d="M88.6961 100.539C88.69 100.423 88.6986 100.339 88.6961 100.292V100.539Z" fill="#D0C7B3"/>
<path d="M86.696 83.2729C86.4027 83.5281 80.1169 82.3683 78.9596 82.3683C78.2041 82.3683 76.1199 82.5371 75.4519 82.754C75.034 82.8896 74.5903 83.2384 74.2662 83.5392C71.7383 85.8908 69.4495 90.6692 66.8835 93.1552C65.5893 94.4087 65.4648 92.1618 65.6473 91.1893L72.4322 82.4484C74.3537 79.9575 78.3113 80.1263 81.1867 80.3396C82.068 80.4049 86.0798 81.1419 86.6172 81.5634C87.0633 81.9135 86.9191 83.0782 86.6948 83.2729H86.696Z" fill="#E9E5DF"/>
<path d="M61.0146 91.7021C62.0352 91.4347 62.2262 92.6918 61.8466 93.5423C61.3523 94.6491 55.9367 100.91 54.8053 102.019C53.8451 102.961 52.424 104.061 51.0769 104.203C49.7705 104.343 41.9169 102.964 40.5242 102.49C39.0784 102 39.5172 100.576 40.9962 100.515C43.6966 100.401 47.7861 102.234 50.399 102.245C51.5453 102.25 52.8172 101.074 53.574 100.295C54.8348 98.9974 59.9769 91.9745 61.0146 91.7009V91.7021Z" fill="#E9E5DF"/>
<path d="M30.5217 97.0919C30.02 96.8319 28.6113 96.2822 28.0566 96.1071C29.2078 94.8426 35.2483 92.6795 35.819 91.4261C36.5622 89.7905 34.9057 84.6214 34.7356 82.6691C34.7738 81.9111 35.6427 81.6819 36.2639 81.868C37.0466 82.1009 37.4471 85.5285 37.6 86.4529C37.8378 87.8962 38.4331 90.811 37.9364 92.0633C37.0651 94.2584 32.3421 95.7448 30.5229 97.0919H30.5217Z" fill="#E9E5DF"/>
<path d="M120.036 18.0833C120.42 17.4818 132.027 14.4055 133.503 13.3159C134.167 12.3842 134.381 5.16781 134.955 3.31782C135.373 1.97315 137.001 2.38727 136.959 3.57048C136.119 6.19326 136.628 13.1076 134.775 14.9564C134.207 15.5234 132.541 16.0188 131.717 16.3331C129.417 17.2119 123.935 19.4095 121.791 19.7201C120.636 19.8864 119.337 19.174 120.037 18.0833H120.036Z" fill="#E9E5DF"/>
<path d="M78.0377 45.6798C79.6338 45.4592 80.1785 46.8445 78.9275 47.5692C75.4556 48.761 71.7839 49.6337 68.4167 51.1053C67.2742 51.6044 65.7224 52.1504 65.3379 53.447C64.4788 56.3447 64.3112 59.9658 63.499 62.9374C61.8129 64.5248 61.4715 62.999 61.649 61.3326C61.8585 59.3569 62.7274 55.037 63.3178 53.1537C64.13 50.5642 65.3589 50.0687 67.6797 49.1394C70.0473 48.1916 75.739 45.999 78.0352 45.6798H78.0377Z" fill="#E9E5DF"/>
<path d="M62.5686 25.1921C62.7769 25.4103 65.9962 23.9128 66.6408 25.1921C67.5738 27.0421 63.6002 26.8338 62.5982 27.4414C62.4934 29.0918 62.3221 31.0798 61.3336 32.4565C60.9639 32.9717 59.7881 33.7519 59.6488 34.2375C59.4676 34.8698 60.6114 38.3701 58.8649 37.903C57.7002 37.5912 57.9689 36.4757 57.6632 35.6327C57.5609 35.3505 57.7976 35.2247 57.275 35.2913L47.8956 39.4942C46.8689 39.6384 46.7592 38.2136 47.2818 37.6257C50.2756 35.9877 53.665 34.802 56.6563 33.2022C57.5659 32.7153 59.019 32.003 59.5687 31.187C60.641 29.5996 60.6915 25.7702 60.5917 23.8425C60.5362 22.7665 59.6796 19.4141 60.4512 18.767C62.5464 17.0095 62.7128 24.2024 62.5674 25.1933L62.5686 25.1921Z" fill="#E9E5DF"/>
<path d="M23.5459 38.5647C24.4321 39.1921 24.0229 40.6772 23.0517 40.6587C22.5932 40.6501 20.8948 39.9883 20.1713 39.8416C17.922 39.3868 12.3178 38.8051 10.6761 37.7537C7.88814 35.9653 9.70732 31.0156 10.4283 28.3903C10.6181 27.6977 11.6535 23.8781 11.8864 23.692C12.5914 23.1275 13.8264 23.5145 13.7524 24.5437C13.4554 26.533 10.4616 34.3557 11.4094 35.7903C11.8679 36.483 18.4902 37.3076 19.7326 37.5713C20.3993 37.713 23.2021 38.3207 23.5459 38.5647Z" fill="#E9E5DF"/>
<path d="M90.7015 88.5062C91.1662 88.3818 91.6518 88.473 92.0857 88.6603C92.9928 89.0522 95.1645 91.0119 96.4192 91.7169C97.6739 92.4219 100.035 93.7272 101.397 93.6692C103.978 93.5608 106.972 88.6406 108.738 87.9122C109.32 87.6731 110.102 87.9454 110.159 88.6036C110.308 90.3328 103.77 95.4551 102.075 95.8039C99.6804 96.2969 95.0301 93.5694 93.0507 92.1261C91.9353 91.3114 89.7402 89.9779 90.7003 88.5075L90.7015 88.5062Z" fill="#E9E5DF"/>
<path d="M133.277 54.7044C133.067 54.8363 132.072 54.7586 131.714 54.7364C129.251 54.5861 125.869 53.4965 123.574 53.5594C121.405 53.6186 118.491 57.1423 117.339 58.8518C116.677 59.8341 116.332 61.869 114.957 61.6484C114.167 61.5214 114.248 60.7067 114.347 60.051C114.575 58.5313 117.682 54.8178 118.901 53.7628C120.671 52.2308 121.928 51.4284 124.315 51.543C126.184 51.6318 130.544 52.2086 132.345 52.6313C133.452 52.8914 134.064 54.2102 133.277 54.7044Z" fill="#E9E5DF"/>
<path d="M211.366 40.9804C212.573 40.5736 214.011 42.7737 214.902 43.5415C216.249 44.7026 219.381 47.456 221.001 47.7912C222.912 48.1881 225.666 47.1959 227.474 46.4885C228.425 46.1162 231.802 44.1812 232.308 44.1516C233.093 44.1048 233.528 44.7691 233.408 45.5C233.3 46.1606 230.389 47.5497 229.618 47.8911C222.29 51.14 219.636 50.7702 213.79 45.3903C213.21 44.8566 209.544 41.5929 211.366 40.9791V40.9804Z" fill="#E9E5DF"/>
<path d="M166.521 95.4018C166.806 95.3229 167.071 95.3279 167.327 95.4893C168.958 96.7157 173.572 101.686 175.366 101.755C175.953 101.778 177.017 101.308 177.606 101.075C179.706 100.243 183.738 97.4959 185.51 97.1372C186.975 96.8414 187.696 98.1651 186.4 99.0254C184.975 99.972 181.857 101.424 180.202 102.19C179.051 102.724 176.519 104.021 175.378 103.97C172.544 103.845 168.011 98.7814 165.895 96.9141C165.708 96.3681 165.906 95.5719 166.521 95.4006V95.4018Z" fill="#E9E5DF"/>
</svg>
