<svg width="257" height="371" viewBox="0 0 257 371" fill="none" xmlns="http://www.w3.org/2000/svg">
<g opacity="0.3" clip-path="url(#clip0_446_362)">
<path d="M35.8958 113.709C35.1945 115.46 34.5235 117.171 33.8807 118.948C33.8041 119.162 33.5965 119.422 33.4777 119.754C32.6152 122.182 31.7366 124.57 31.0595 127.009C29.8102 127.631 29.8686 129.608 29.4475 130.636C29.2923 131.017 28.9014 131.653 28.6414 132.248C28.5286 132.506 28.3654 132.774 28.2384 133.054C26.0782 137.846 24.6032 142.676 22.5962 147.159C22.5659 147.226 22.1166 147.649 21.7901 148.369C18.3544 155.937 14.294 163.228 11.1222 170.95C4.11779 188.013 -7.07805 213.73 6.14094 230.312C8.16611 232.851 16.9559 238.461 19.9927 239.029C24.3231 239.841 33.8041 238.81 38.7169 238.643C39.1018 238.63 39.6942 238.667 40.329 238.643C43.0231 238.542 45.6951 238.358 48.3893 238.24C49.1913 238.203 50.0054 238.28 50.8074 238.24C54.8779 238.038 60.4275 237.073 64.3468 237.405C65.1549 237.474 65.3342 237.46 65.7191 238.24C65.8017 240.378 66.638 242.856 66.9282 245.091C67.309 248.027 67.8128 251.1 68.1372 253.957C70.8334 277.713 73.2374 302.007 72.9573 325.88C72.8565 334.484 72.2621 343.57 72.9774 352.088C73.4349 357.545 74.3578 362.957 76.6651 367.945C80.5381 367.796 84.2438 369.361 88.0705 369.64C93.1283 370.006 98.6819 369.436 103.82 369.607C112.149 369.885 122.917 371.538 131.03 369.847C140.795 367.814 129.086 354.851 125.344 352.114C123.901 321.882 126.109 291.168 122.103 261.006C122.051 260.51 122.291 260.176 122.524 259.779C122.778 259.346 127.064 254.717 127.389 254.57C128.711 253.969 131.864 254.523 133.583 254.316C134.976 254.149 136.209 253.3 137.257 253.147C138.152 253.016 137.732 253.288 137.851 253.754C138.391 255.876 138.72 258.83 139.018 261.06C141.617 280.544 142.403 300.623 142.313 320.272C142.262 331.337 140.527 344.31 142.403 355.205C143.693 362.693 148.432 362.599 155.046 363.52C166.246 365.081 184.182 366.377 195.31 365.611C204.599 364.973 203.358 358.621 198.884 352.731C197.49 350.895 192.591 347.284 192.289 345.624C191.205 339.665 193.623 330.98 192.69 324.669C191.207 312.149 193.55 299.514 192.267 287.007C194.562 287.003 196.819 287.371 198.711 285.798C201.161 291.577 206.838 289.959 210.415 286.009C221.856 273.371 220.462 247.08 220.462 231.205C220.462 227.864 220.438 224.517 220.542 221.178C224.482 218.592 228.681 217.337 231.883 213.551C237.949 206.377 239.819 197.861 237.979 188.652C250.265 174.309 261.39 151.5 254.225 132.54C254.023 132.01 253.546 131.889 253.525 131.845C250.11 123.796 246.924 122.297 240.629 116.933C231.37 109.044 228.24 106.374 215.239 106.858C214.08 106.9 212.7 106.713 211.612 106.858C209.224 107.176 205.482 108.008 203.152 108.675C201.073 109.272 197.107 111.468 195.586 111.629C195.132 111.678 194.794 111.69 194.459 111.327C190.379 104.53 186.082 97.8764 182.121 91.0069C168.505 67.3941 155.78 43.348 140.199 20.8899C132.987 10.492 125.593 1.16818 111.859 0.0639078C99.7298 -0.911396 86.265 9.2769 80.3063 19.2778C75.0046 28.1764 69.6203 40.001 64.9715 49.484C54.8054 70.2233 44.472 92.2986 35.8978 113.709H35.8958Z" fill="#FEFEFE"/>
<path d="M211.61 106.858C212.406 109.669 209.259 107.976 208.787 108.472C208.747 108.514 208.737 109.518 208.816 109.647C209.315 110.459 213.204 109.6 214.029 110.485C185.868 112.476 154.956 146.446 155.978 174.784C156.206 181.12 158.996 189.337 164.659 192.698C164.633 190.661 163.815 188.521 163.655 186.45C161.104 153.571 200.126 112.587 233.541 117.37C234.248 117.471 234.703 118.013 235.792 118.144C236.037 118.174 236.346 118.162 236.598 118.144C236.741 119.853 234.772 119.569 235.389 121.771C234.47 121.344 231.149 121.002 229.964 120.949C220.277 120.516 213.343 123.389 205.162 127.817C203.177 128.891 202.252 129.374 200.326 130.638C183.286 141.813 165.979 164.143 167.688 185.644C168.099 190.82 169.157 193.903 174.001 196.257C190.19 204.12 214.002 188.197 224.507 176.582L224.102 178.595L226.119 179C225.087 180.12 223.939 181.873 222.712 183.048C212.795 192.557 199.04 201.027 185.013 201.573L188.421 202.391C217.126 202.236 248.468 168.201 245.867 139.907C247.828 139.665 247.487 137.302 247.481 135.879L249.091 136.683C252.934 162.851 231.076 191.616 207.852 201.639C199.361 205.305 186.954 207.596 178.16 203.987C177.539 203.731 176 202.079 174.944 202.169C175.532 203.185 176.792 203.792 177.757 204.39C195.3 215.263 218.057 202.397 231.167 189.891C244.197 177.464 257.659 152.401 250.703 134.265C252.164 133.197 250.064 131.363 253.524 131.847C253.544 131.893 254.022 132.012 254.224 132.542C261.389 151.502 250.264 174.311 237.978 188.654C239.818 197.861 237.948 206.377 231.882 213.553C228.68 217.339 224.481 218.596 220.541 221.18C220.437 224.519 220.461 227.866 220.461 231.207C220.461 247.082 221.855 273.373 210.413 286.011C206.839 289.961 201.16 291.581 198.71 285.8C196.816 287.373 194.561 287.005 192.266 287.009C193.549 299.518 191.208 312.151 192.689 324.671C193.622 330.982 191.202 339.667 192.288 345.626C192.59 347.286 197.487 350.899 198.883 352.733C203.359 358.621 204.598 364.973 195.308 365.613C184.183 366.379 166.245 365.083 155.045 363.522C148.433 362.601 143.694 362.695 142.402 355.207C140.524 344.312 142.259 331.339 142.312 320.274C142.402 300.625 141.616 280.546 139.017 261.062C138.719 258.832 138.39 255.878 137.85 253.756C137.731 253.29 138.15 253.018 137.256 253.149C136.208 253.302 134.975 254.149 133.582 254.318C131.863 254.525 128.71 253.971 127.388 254.572C127.063 254.719 122.777 259.348 122.523 259.781C122.292 260.18 122.05 260.512 122.102 261.008C126.106 291.17 123.9 321.884 125.342 352.116C129.084 354.853 140.794 367.816 131.029 369.849C122.916 371.538 112.148 369.887 103.819 369.609C98.6808 369.438 93.1272 370.008 88.0693 369.641C84.2427 369.365 80.5369 367.798 76.6639 367.947C74.3546 362.959 73.4337 357.547 72.9763 352.09C72.2609 343.572 72.8554 334.486 72.9561 325.882C73.2362 302.011 70.8342 277.715 68.136 253.959C68.7607 252.859 69.7683 253.296 70.4675 252.053C71.5315 250.161 68.4423 248.313 72.5692 247.511C76.9762 278.835 78.1329 310.781 78.6326 342.438C78.7153 347.721 78.5037 353.146 79.5153 358.448C79.6946 359.393 80.3777 362.208 81.0407 362.564C83.7671 364.027 94.171 363.796 97.7538 363.987C102.258 364.229 106.961 364.668 111.465 364.785C117.324 364.936 123.146 364.876 128.99 364.787C129.117 363.745 128.351 362.937 127.771 362.182C125.798 359.612 122.37 356.922 119.946 354.692L119.346 353.277C118.997 324.181 120.428 295.003 117.3 266.05C110.131 271.422 105.411 284.808 94.2214 279.662C90.7474 278.066 86.9791 273.26 86.7676 269.35C86.3001 260.754 100.138 252.418 104.408 245.903C103.89 245.909 103.388 245.792 102.914 245.58C75.4347 233.246 49.8209 210.721 44.8738 179.49C44.4607 176.88 42.887 168.211 47.5821 171.341C47.5982 171.474 47.564 171.613 47.5821 171.744C47.695 172.552 47.8441 173.051 47.9851 173.759C48.2229 174.962 48.5997 175.756 48.7912 176.58C55.314 204.714 68.0454 219.433 92.3171 234.211C94.9347 235.805 97.0002 237.496 99.9745 238.645C100.843 239.66 102.693 240.244 104.005 240.66C104.128 240.698 104.287 240.619 104.408 240.66L115.017 245.969C118.147 247.199 121.244 248.48 124.559 249.123C124.802 249.169 125.107 249.087 125.365 249.123C125.54 249.147 125.848 249.518 126.574 249.526C126.975 249.53 127.382 249.536 127.783 249.526C129.625 250.453 133.604 249.85 135.174 248.655C135.629 248.309 136 248.232 135.841 247.513C134.904 247.598 132.964 247.215 132.216 246.705C131.902 246.491 131.372 245.409 131.007 245.093V243.481C133.741 241.222 134.793 243.078 138.11 243.428C139.214 243.545 140.8 243.6 141.888 243.481C143.696 243.283 146.382 241.576 146.729 239.642C146.862 238.898 146.658 239.128 146.223 238.947C144.425 238.191 139.108 238.326 139.099 235.221C139.093 233.2 140.818 233.373 142.291 233.405C142.684 233.413 143.134 233.353 143.5 233.405C143.545 233.411 143.783 233.738 144.306 233.808C144.703 233.861 145.282 234.121 145.919 234.211C146.174 234.248 146.461 234.189 146.725 234.211C148.687 234.379 149.65 234.812 151.527 233.573C152.909 232.658 153.1 231.727 153.173 230.181C153.3 227.487 153.433 227.197 151.158 226.957C150.896 226.929 150.592 227.003 150.352 226.957C150.223 226.933 150.078 226.983 149.949 226.957C149.272 226.824 147.283 226.356 146.725 226.151C145.415 225.667 143.061 224.186 141.888 223.33C141.143 222.786 140.109 221.954 139.47 221.315C139.071 220.916 136.863 218.413 136.649 218.091C136.063 217.206 134.836 214.123 135.095 213.142C135.513 211.562 137.536 212.422 138.503 211.685C138.743 211.501 140.022 208.994 139.871 208.825C134.227 206.834 130.348 211.211 124.855 210.339C117.746 209.208 101.671 197.21 96.7382 191.705C90.1751 184.382 84.3253 170.796 81.8366 161.267C81.7762 161.035 81.8951 160.697 81.8366 160.461C81.3732 158.597 80.8795 156.731 80.6276 154.819C80.422 153.263 79.5817 149.958 81.2502 149.574C83.1102 149.144 83.6925 151.949 84.2608 153.402C90.7957 170.093 91.5312 181.646 106.421 193.912C110.159 196.993 121.099 204.793 125.673 205.52C126.815 205.702 126.975 205.367 127.781 205.196C129.973 204.729 131.99 203.445 134.229 203.181C135.402 203.042 137.024 203.153 138.259 203.181C138.303 203.181 138.348 203.556 139.065 203.584C139.444 203.598 139.914 203.63 140.274 203.584C140.577 203.987 141.008 204.249 141.483 204.39C142.094 204.569 143.317 204.858 143.885 204.608C144.78 204.215 147.067 201.244 148.738 200.36C150.408 199.475 151.712 199.854 152.78 199.358C153.489 199.028 153.425 198.097 153.574 197.942C154.704 196.775 158.021 194.482 158.039 192.914C158.051 191.951 155.252 187.82 154.587 186.248C149.33 173.821 153.388 156.59 159.619 145.146C159.722 144.957 160.367 144.356 160.828 143.534C162.118 141.231 164.212 139.278 164.858 136.683C167.234 135.254 169.271 131.768 171.297 129.62C174.124 126.62 177.753 123.077 180.979 120.562C182.517 119.363 184.576 118.098 186.218 116.935C186.996 116.385 189.537 115.285 189.39 114.39C184.925 107.371 180.594 100.252 176.477 93.024C165.608 73.9391 155.531 54.83 143.666 36.3658C137.411 26.6329 127.092 8.84567 115.301 6.29255C100.7 3.13289 89.5363 14.9212 82.9772 26.389C71.739 46.0362 63.05 67.2752 54.0284 87.9178C53.5246 89.0684 52.9282 90.3621 52.4163 91.545C51.9045 92.7278 50.643 94.4789 49.9982 95.9782C46.6008 103.877 43.6749 112.008 39.9228 119.756C39.9409 119.603 39.8119 117.544 39.7575 117.334C39.548 116.504 37.2769 112.431 35.8926 113.711C44.4668 92.3026 54.8002 70.2273 64.9663 49.486C69.6151 40.003 74.9994 28.1784 80.3011 19.2798C86.2638 9.2769 99.7286 -0.911396 111.857 0.0639077C125.592 1.16818 132.986 10.492 140.2 20.8899C155.78 43.348 168.506 67.3941 182.122 91.0069C186.083 97.8764 190.379 104.532 194.46 111.327C194.795 111.688 195.135 111.678 195.586 111.629C197.108 111.468 201.072 109.272 203.153 108.675C205.483 108.008 209.225 107.176 211.612 106.858H211.61ZM233.371 194.315C232.71 193.635 227.737 198.278 226.885 198.907C214.581 208.005 198.081 215.749 182.505 211.124C177.263 209.569 173.954 206.919 169.697 203.755C168.907 205.132 165.122 208.194 164.665 209.228C163.871 211.024 164.504 213.226 162.942 215.969C161.922 217.76 156.123 223.08 156.034 223.588C155.976 223.928 158.311 227.902 158.384 230.04C158.464 232.396 156.337 236.337 154.364 237.615C153.679 238.058 151.788 238.52 151.639 238.723C151.389 239.068 150.982 241.925 150.436 242.957C148.861 245.929 145.886 247.467 142.749 248.365C143.702 255.809 145.094 263.21 145.917 270.684C148.992 298.628 148.071 325.376 148.087 353.366C148.087 354.317 148.466 355.312 148.363 356.298C164.07 358.623 179.994 359.894 195.893 359.947C195.965 355.326 187.2 351.526 186.648 348.036C186.273 345.668 187.004 343.445 187.047 341.227C187.532 315.722 187.758 288.367 185.813 263.027C184.832 250.237 182.708 237.548 181.793 224.748C181.981 223.775 183.458 222.481 184.415 222.125C202.309 218.28 234.278 220.44 233.371 194.311V194.315ZM163.792 203.723C164.473 202.979 166.779 201.968 166.43 200.64C166.329 200.255 162.376 195.898 161.832 195.9C161.318 195.902 156.089 202.085 154.964 202.764C153.253 204.446 158.257 208.184 159.811 208.027C160.727 207.935 162.96 204.632 163.794 203.721L163.792 203.723ZM159.623 212.047C155.127 211.681 151.462 207.884 150.557 203.584C146.854 207.147 143.688 211.209 140.734 215.394C143.017 219.052 146.501 221.925 150.342 223.725C150.696 222.185 160.875 213.212 159.625 212.045L159.623 212.047ZM215.639 222.927L186.621 227.362L189.843 250.135L191.462 271.287C193.124 271.337 192.606 268.172 194.156 267.718C197.297 266.799 196.042 272.571 195.715 274.136C195.544 274.958 194.867 275.557 194.704 276.349C194.563 277.036 194.097 282.324 194.283 282.573C198.891 281.32 197.644 277.334 199.292 274.086C200.126 272.444 201.789 271.138 203.173 273.072C204.525 274.962 201.182 283.841 203.401 284.556C205.192 285.135 207.508 282.019 208.312 280.687C215.681 268.486 215.514 253.76 215.621 240.071C215.665 234.356 215.627 228.636 215.637 222.927H215.639ZM108.313 248.371C104.456 253.171 99.3236 256.98 95.3357 261.613C94.4209 262.674 91.634 266.126 91.2955 267.241C89.6955 272.514 97.4878 278.973 102.193 275.724L122.134 253.76L108.313 248.373V248.371Z" fill="black"/>
<path d="M240.626 116.934C239.323 117.444 238.025 118.042 236.596 118.143C236.479 116.736 236.139 117.577 235.79 117.337C234.233 116.269 232.582 114.659 230.954 113.71C231.869 110.016 231.105 111.95 229.336 111.094C228.679 110.776 228.391 109.395 227.75 109.093C227.42 108.938 224.973 109.133 224.31 108.865L224.103 110.886C221.533 110.405 218.271 110.427 215.639 110.483L215.236 106.856C228.238 106.373 231.367 109.043 240.626 116.932V116.934Z" fill="black"/>
<path d="M39.9259 119.754C39.8252 120.627 39.4121 121.371 39.1199 122.173C37.7617 125.892 35.8071 129.763 34.2837 133.457C33.3648 133.225 33.2379 134.076 33.1411 134.825L33.4777 135.069C29.8686 143.784 26.445 152.246 22.5962 160.862C22.4934 161.092 22.3322 161.358 22.1931 161.668C22.0743 161.934 21.9151 162.194 21.7901 162.474C20.6556 165.009 19.3176 167.564 18.163 170.132C10.7152 186.684 -4.47858 216.033 14.3383 230.177C22.4934 236.307 43.0151 233.156 53.2255 232.6C53.3444 232.593 53.6588 232.62 54.0316 232.6C57.826 232.402 63.3614 231.405 66.9282 232.197C67.3372 233.583 65.5397 234.594 65.3564 235.304C65.1508 236.098 66.0435 236.567 66.1402 237.279C66.2168 237.839 65.7171 238.189 65.7191 238.242C65.3342 237.462 65.1549 237.476 64.3468 237.408C60.4275 237.075 54.8779 238.038 50.8074 238.242C51.3797 237.049 47.952 236.914 48.3893 238.242C45.6951 238.361 43.0231 238.544 40.329 238.645C40.1617 238.018 38.8479 238.042 38.7169 238.645C33.8061 238.81 24.3231 239.842 19.9927 239.032C16.9559 238.463 8.16611 232.853 6.14094 230.314C-7.07805 213.732 4.11779 188.016 11.1222 170.952C14.292 163.23 18.3544 155.939 21.7901 148.371C22.84 148.572 22.6425 148.083 22.5962 147.162C24.6032 142.678 26.0782 137.848 28.2384 133.056C28.9236 133.096 29.1815 133.201 29.0404 132.456L28.6414 132.25C28.9014 131.656 29.2923 131.019 29.4475 130.638C30.858 130.837 30.7593 128.095 31.0595 127.011C31.7366 124.573 32.6152 122.185 33.4777 119.756C34.1628 119.797 34.4207 119.902 34.2797 119.156L33.8807 118.95C34.5235 117.173 35.1945 115.462 35.8958 113.711C37.2801 112.432 39.5511 116.502 39.7607 117.334C39.8151 117.546 39.9421 119.605 39.9259 119.756V119.754Z" fill="black"/>
<path d="M253.524 131.845C250.064 131.361 252.164 133.195 250.703 134.263C250.018 132.48 248.708 130.499 247.479 129.024C247.023 128.476 246.667 127.847 246.064 127.42C245.828 127.94 246.473 128.586 246.673 129.024C247.97 131.857 248.629 133.531 249.091 136.681L247.481 135.877C247.487 137.3 247.827 139.663 245.867 139.905C245.717 138.281 245.717 137.058 245.345 135.389C245.194 134.71 244.865 132.995 244.259 132.653C246.173 149.07 237.637 166.708 226.925 178.708C226.604 179.068 226.147 178.966 226.119 178.998L224.102 178.593L224.507 176.58C224.787 176.269 225.534 174.478 226.119 173.759C227.439 172.134 228.567 170.657 229.746 168.922C237.214 157.936 244.617 142.281 239.829 128.814C239.205 127.055 237.053 122.545 235.388 121.769C234.771 119.567 236.74 119.851 236.597 118.142C238.026 118.041 239.324 117.443 240.627 116.933C246.922 122.297 250.108 123.797 253.524 131.845Z" fill="black"/>
<path d="M235.791 117.336C236.14 117.576 236.48 116.736 236.597 118.142C236.345 118.161 236.037 118.173 235.791 118.142V117.336Z" fill="#2E3F4F"/>
<path d="M70.5544 235.824C72.1503 240.094 71.973 243.265 72.5695 247.511C68.4426 248.313 71.5317 250.161 70.4677 252.053C69.7685 253.296 68.761 252.859 68.1363 253.959C67.8118 251.102 67.3081 248.029 66.9272 245.093C68.0537 245.347 67.828 244.394 67.7595 243.672C67.6426 242.419 66.8768 241.635 66.8809 240.861C66.8869 239.946 67.7373 239.402 67.7333 238.846C67.7272 238.125 66.2099 237.164 67.2879 235.656C67.8119 234.925 69.7383 235.876 70.5544 235.824Z" fill="black"/>
<path d="M70.5538 235.824C69.7397 235.876 67.8112 234.925 67.2873 235.657C66.2093 237.164 67.7266 238.125 67.7327 238.847C67.7367 239.403 66.8863 239.947 66.8803 240.862C66.8762 241.635 67.642 242.419 67.7589 243.673C67.8254 244.394 68.0531 245.347 66.9266 245.093C66.6364 242.859 65.8002 240.38 65.7176 238.242C65.7156 238.19 66.2153 237.839 66.1387 237.279C66.042 236.568 65.1493 236.098 65.3548 235.304C65.5382 234.595 67.3357 233.583 66.9266 232.197C69.7437 232.821 69.6047 233.285 70.5538 235.824Z" fill="black"/>
<path d="M215.239 106.858L215.642 110.485C215.108 110.498 214.562 110.447 214.03 110.485C213.206 109.601 209.317 110.459 208.817 109.647C208.738 109.518 208.748 108.515 208.789 108.472C209.26 107.977 212.408 109.669 211.612 106.858C212.7 106.713 214.08 106.901 215.239 106.858ZM213.625 107.668C211.948 107.469 211.948 108.263 213.625 108.063V107.668Z" fill="black"/>
<path d="M31.0574 127.009C30.7571 128.093 30.8559 130.836 29.4453 130.636C29.8665 129.608 29.808 127.632 31.0574 127.009Z" fill="#2A3B4A"/>
<path d="M48.3863 238.242C47.949 236.914 51.3767 237.049 50.8044 238.242C50.0024 238.282 49.1883 238.206 48.3863 238.242Z" fill="#2E3F4F"/>
<path d="M40.325 238.645C39.6902 238.669 39.0978 238.633 38.7129 238.645C38.8439 238.043 40.1577 238.018 40.325 238.645Z" fill="#677582"/>
<path d="M22.5951 147.16C22.6414 148.081 22.8389 148.57 21.7891 148.369C22.1155 147.65 22.5649 147.226 22.5951 147.16Z" fill="#2A3B4A"/>
<path d="M28.6413 132.249L29.0403 132.454C29.1813 133.2 28.9234 133.095 28.2383 133.055C28.3652 132.775 28.5285 132.507 28.6413 132.249Z" fill="#2A3B4A"/>
<path d="M33.8796 118.948L34.2786 119.154C34.4196 119.899 34.1617 119.795 33.4766 119.754C33.5955 119.422 33.803 119.162 33.8796 118.948Z" fill="#2A3B4A"/>
<path d="M78.2084 73.0108C77.5031 72.2733 74.7727 72.505 74.9883 74.2118C75.347 74.2319 79.1293 73.974 78.2084 73.0108ZM116.38 83.9708C111.385 85.0933 107.951 97.3027 116.271 95.9526C121.154 95.1606 123.747 82.3165 116.38 83.9708ZM130.504 105.752C123.993 106.57 114.133 111.761 111.05 117.734C110.51 118.78 109.211 120.76 110.857 121.597C111.866 122.11 116.219 117.595 117.335 116.764C125.144 110.963 137.972 106.498 146.127 114.102C147.709 115.578 149.414 119.469 151.568 118.79C155.165 117.655 151.114 112.194 149.559 110.671C144.698 105.905 137.033 104.932 130.502 105.752H130.504ZM133.323 115.025C131.695 115.241 126.395 117.544 126.976 119.543C127.5 121.349 132.57 118.205 134.041 118.127C135.902 118.028 139.568 120.416 139.074 117.153C138.744 114.967 135.03 114.8 133.325 115.025H133.323ZM155.832 115.751C154.504 116.144 155.439 119.563 152.791 120.382C151.604 120.748 147.91 120.291 148.932 122.57C149.758 124.414 153.651 123.991 155.151 123.146C158.32 121.361 158.288 115.025 155.83 115.751H155.832ZM105.62 118.953C104.36 119.795 105.914 124.365 107.016 125.407C108.814 127.104 114.831 127.392 114.017 124.474C113.481 122.554 110.033 124.371 108.247 121.758C107.798 121.099 107.026 118.014 105.62 118.955V118.953ZM87.0728 156.431H86.2708V158.04H87.0728V156.431ZM34.2774 158.443C34.3721 157.699 34.3016 157.26 33.6689 156.837H33.0724V158.443H34.2774ZM42.3398 160.059C41.4512 160.341 40.9474 158.944 40.5202 158.852C39.0089 158.521 38.9625 162.352 42.1343 162.489C43.295 162.539 42.5474 161.209 42.7509 160.329C42.8254 160.008 43.5186 159.984 43.5589 159.859C44.0426 158.356 41.8501 158.283 42.3398 160.059ZM37.0986 168.524C36.1374 167.283 32.5404 168.595 33.4754 170.936C33.5701 171.043 35.7887 169.85 36.0628 169.699C36.3953 169.517 37.6366 169.217 37.0986 168.524ZM41.1287 170.134C40.6894 169.695 39.8874 170.497 40.3267 170.936C40.766 171.375 41.568 170.573 41.1287 170.134ZM31.8593 176.985H30.6543V177.787H31.8593V176.985ZM35.0835 177.388C33.8059 177.197 32.879 178.146 33.0724 179.399C33.6769 179.621 35.4563 177.683 35.0835 177.388ZM74.1762 187.061H72.9712V187.863H74.1762V187.061ZM103.194 187.464C102.754 187.025 101.952 187.827 102.392 188.266C102.831 188.705 103.633 187.903 103.194 187.464ZM106.377 191.129C104.608 190.041 105.223 193.001 106.821 192.699C106.96 192.564 106.446 191.174 106.377 191.129ZM121.329 194.718H120.733C120.1 195.143 120.03 195.583 120.124 196.326H121.329V194.718ZM67.732 202.775C70.3919 203.442 70.1742 200.207 68.3385 200.765C67.6675 200.969 67.6614 202.182 67.732 202.775ZM69.3239 206.795C69.4408 206.71 69.9526 205.346 69.3602 204.977C68.7677 204.608 67.6554 204.844 66.9279 204.794C66.3194 206.021 68.7214 207.232 69.3259 206.795H69.3239ZM75.3893 205.197H71.3551C70.8453 207.601 73.6624 205.261 75.3853 206.402L75.3893 205.197Z" fill="white"/>
<path d="M39.1186 122.173C42.0545 122.306 42.5845 123.513 41.9397 126.201H46.3749C46.8283 128.341 45.1517 129.044 44.0193 130.499C43.4772 131.196 43.1931 132.424 42.7397 132.847C42.1553 133.397 40.9321 133.29 40.5291 133.86C40.2148 134.306 40.2611 135.315 39.8742 136.027C39.4873 136.738 38.3911 137.304 38.1231 137.903C37.8329 138.547 38.0143 139.523 37.7302 139.928C37.3594 140.458 36.0637 140.174 35.6546 140.688C35.1488 141.322 36.2309 142.497 35.7272 143.152C35.2556 143.765 33.166 143.277 32.6723 144.546C33.0007 146.807 35.1569 144.371 35.4894 144.744C35.9851 146.118 34.4335 147.4 34.6571 148.506C34.7418 148.921 36.4969 149.221 36.2954 150.177C35.9367 151.885 34.3468 149.312 33.4743 149.757C32.1524 150.432 33.2607 151.545 33.0189 152.512C32.8637 153.135 31.7272 153.757 31.2859 154.443C30.9776 154.922 31.1267 155.893 30.6713 156.266C30.2622 156.601 28.1041 155.404 27.8341 156.637C27.6688 157.391 29.5952 158.342 30.2501 158.444C30.3307 157.328 30.7962 157.098 31.8602 157.237C32.1484 158.632 31.566 158.654 30.2501 158.444C30.1897 159.275 30.7721 160.143 30.6572 161.036C30.5423 161.929 29.5187 162.477 29.4542 163.498C29.4018 164.339 30.0708 165.352 29.8693 166.223C29.7665 166.666 28.7026 166.718 28.4265 167.297C27.959 168.276 27.828 171.226 26.8326 172.558C26.4275 173.1 25.3494 172.804 24.7973 173.344C24.2452 173.884 24.3218 175.532 23.4049 175.984C22.7641 176.3 21.4664 176.099 21.3817 176.177C21.2729 176.278 21.4502 178.489 21.3414 179.16C21.1621 180.262 19.6931 183.486 21.5712 183.438C21.8674 183.43 25.156 181.91 25.4159 181.608C26.2542 180.629 24.9585 179.081 25.6175 178.998C28.5776 179.075 25.2467 181.211 27.032 182.017C28.5373 182.696 29.9358 181.386 31.427 182.263C32.1907 184.423 29.9479 185.187 29.6376 185.838C29.2527 186.642 29.5993 187.573 29.3635 188.391C29.0874 189.356 26.9938 190.214 27.8341 192.298C29.825 191.468 29.9902 192.417 29.8451 194.313C29.4743 194.692 25.3273 192.973 24.8175 193.104C24.2371 193.253 24.2855 194.454 24.0558 194.99C23.9973 195.127 23.4089 195.137 23.3807 195.379C23.2941 196.123 24.1525 196.955 23.6205 197.944C23.2376 198.656 20.7369 199.036 21.3838 199.949C21.4644 200.062 23.4553 201.168 23.8966 201.108C26.3389 200.78 28.6582 197.384 31.4552 197.944C31.5821 198.714 30.7781 199.665 31.2275 200.362C31.5055 200.794 35.6748 203.317 36.2914 202.776C35.9367 200.211 32.7468 201.519 32.6541 198.563C32.6421 198.194 34.1413 198.156 34.51 197.543C34.6954 197.235 34.2138 195.045 34.6833 194.319C33.2043 194.615 31.163 193.354 31.4229 191.754C31.5499 190.97 34.5584 190.418 34.6813 190.285C34.9252 190.023 33.5589 188.082 35.2758 186.65C35.8581 186.164 36.5916 186.251 37.2929 185.445C38.6652 183.867 40.9825 177.604 41.4057 175.51C41.5105 174.988 41.0027 174.323 41.176 173.646C41.3896 172.806 42.651 172.661 42.9372 172.149C43.5316 171.089 42.5765 169.886 44.6439 169.425C47.2051 168.854 47.324 169.259 47.5779 171.349C42.8807 168.22 44.4565 176.889 44.8696 179.498C49.8147 210.73 75.4305 233.255 102.91 245.589C103.384 245.801 103.886 245.918 104.403 245.911C100.133 252.426 86.2958 260.763 86.7633 269.359C86.9749 273.268 90.7432 278.074 94.2172 279.67C105.407 284.815 110.128 271.431 117.296 266.058C120.421 295.011 118.991 324.19 119.341 353.286L119.942 354.7C122.366 356.929 125.796 359.619 127.766 362.19C128.347 362.946 129.112 363.754 128.986 364.796C123.144 364.882 117.32 364.945 111.46 364.794C106.957 364.677 102.253 364.238 97.7496 363.996C94.1688 363.804 83.7629 364.036 81.0365 362.573C80.3735 362.216 79.6904 359.401 79.511 358.456C78.4995 353.155 78.7111 347.73 78.6284 342.446C78.1307 310.789 76.972 278.844 72.565 247.52C71.9686 243.274 72.1459 240.102 70.5499 235.832C69.6008 233.293 69.7399 232.83 66.9228 232.205C63.3561 231.413 57.8206 232.41 54.0262 232.608L53.4257 232.207L53.2202 232.608C43.0097 233.164 22.488 236.316 14.333 230.186C-4.48396 216.042 10.7098 186.692 18.1576 170.14L21.6961 167.637C21.5853 165.997 22.8427 163.93 21.7848 162.483C21.9097 162.203 22.0689 161.943 22.1878 161.677C23.1389 161.8 23.28 161.566 22.5908 160.871C26.4396 152.254 29.8632 143.793 33.4723 135.077C33.6436 134.662 34.0022 134.136 34.2783 133.465C35.8017 129.772 37.7564 125.901 39.1145 122.181L39.1186 122.173Z" fill="white"/>
<path d="M54.0296 87.9163C63.0492 67.2737 71.7402 46.0346 82.9784 26.3875C89.5375 14.9216 100.703 3.13136 115.302 6.29102C127.095 8.84212 137.414 26.6313 143.667 36.3642C155.532 54.8285 165.609 73.9396 176.479 93.0225C180.595 100.251 184.926 107.37 189.391 114.389C189.538 115.283 186.997 116.383 186.22 116.934L184.609 116.529C185.462 114.834 184.102 108.38 182.883 107.378C182.262 106.868 181.071 106.979 180.543 106.288C180.116 105.73 180.273 104.813 179.985 104.43C179.552 103.854 178.387 104.222 177.95 103.644C177.613 103.199 177.885 102.179 177.19 101.585C175.997 100.565 173.587 101.246 173.313 101.053C173.146 100.934 171.937 98.5076 171.042 97.6552C170.296 96.9439 168.874 96.0431 167.953 95.5051C167.106 95.0114 164.239 94.0724 164.108 93.9092C163.908 93.6613 164.178 92.5752 163.866 91.9364C163.554 91.2976 162.578 91.2774 162.057 90.9026C161.811 90.7253 161.295 88.9903 160.839 90.1853C160.658 90.6568 160.674 92.6195 159.429 92.3454C158.184 92.0714 159.012 89.1616 157.607 89.5263C158.008 92.5953 156.304 92.1883 154.492 93.0628C153.587 93.5001 152.791 95.0457 151.54 94.1852C150.81 93.6835 151.365 91.7087 149.948 91.9444C151.522 88.3475 150.893 80.9944 145.521 83.2876C144.586 83.6866 142.597 86.4916 142.291 87.5112C141.642 87.2191 142.325 86.3606 142.208 85.7924C142.049 85.0146 140.777 84.0957 140.697 82.8564C140.55 80.539 142.46 78.8524 142.289 76.6298C144.789 78.401 155.489 83.2957 156.739 78.7577C157.567 75.7492 152.027 75.8136 150.264 75.3018C148.374 74.7537 145.906 73.5547 144.338 72.3618C143.028 71.3663 140.344 67.4853 138.45 69.3654C136.556 71.2454 140.038 75.0499 141.48 76.2247C140.157 76.0776 138.345 76.9824 137.16 76.9199C136.568 76.8897 136.185 76.3557 135.609 76.2469C132.937 75.7371 134.081 77.2968 133.156 77.8751C132.604 78.2177 130.129 78.5239 129.372 78.4635C129.164 78.4474 126.668 77.9376 126.567 77.8348C126.375 77.6373 126.962 76.4988 126.879 76.0716C126.831 75.8237 125.223 73.6011 124.957 73.0006C124.985 72.9663 125.352 72.2389 125.36 72.1945L132.203 70.3729C132.928 69.5991 134.375 68.7246 134.25 67.58C134.218 67.2757 132.914 65.3291 132.779 65.311C131.997 65.2022 131.451 66.0888 130.786 66.1493C129.942 66.2258 128.644 65.1175 128.245 66.4193C127.643 68.386 128.953 69.3251 125.358 68.9724C125.285 68.382 124.898 66.8808 124.465 66.645C122.204 65.4158 123.01 69.0026 122.94 70.5845H120.925C120.931 70.4152 120.552 70.0223 120.522 69.7785C120.459 69.2787 121.275 67.9125 119.716 67.1568C119.454 67.0299 114.21 66.5019 113.932 66.5886C112.01 67.181 114.232 69.1397 114.396 69.6555C114.766 70.8384 113.668 72.6117 115.685 72.1966C113.094 75.0036 112.429 75.8116 108.834 77.4358C109.34 73.7925 102.908 75.7048 102.164 73.4258C101.809 72.3396 101.781 69.3633 99.7722 69.3694C99.0387 69.3714 98.3737 70.4616 97.6886 70.516C97.2473 70.5522 94.2226 68.922 93.5596 69.4036C92.8967 69.8853 92.4957 73.4661 92.1027 74.2056C91.7723 74.8303 90.8312 74.925 90.5128 75.4368C90.2226 75.9084 90.3436 76.6842 90.0997 77.0368C89.0539 78.5461 86.1401 76.1965 85.8701 74.8061C85.3683 72.2308 87.1658 66.8707 86.6942 65.1901C86.666 65.0853 84.8746 64.2229 84.7678 64.2067C84.1935 64.1201 83.7784 65.0369 83.2504 64.9443C82.2852 64.773 83.1819 62.7458 82.0273 62.9191C81.1809 63.046 80.2419 64.3014 79.0611 64.1886C78.9845 66.3266 77.7674 67.9548 78.2006 70.1795C77.721 70.7417 76.2319 68.0878 76.0364 67.713C75.4258 66.5462 75.4279 64.0838 73.7694 64.5412C74.7387 66.2782 73.4269 66.9654 73.1266 68.1664C73.0521 68.4666 72.6631 70.923 72.6289 71.2535C72.5644 71.852 73.6606 72.5452 73.3644 73.4016C71.6052 72.916 71.6657 70.522 69.1851 71.4369C68.4012 71.725 68.6874 72.5814 68.3811 73.2706C68.3226 73.4016 67.8048 73.4056 67.7383 73.6897C67.5126 74.6449 67.9055 75.9728 67.2849 77.0005C66.7529 77.3653 64.7519 76.3557 64.5 76.6277C64.2199 76.932 64.2784 81.2705 64.0325 82.008C63.8189 82.6509 62.5152 82.8282 62.2451 83.8619C62.0759 84.5128 62.8154 86.5541 62.0154 87.0458C61.0925 87.614 57.0623 86.9652 56.8648 87.1324C56.3853 87.5354 56.6512 92.68 54.0195 87.9122L54.0296 87.9163ZM164.243 84.9219C162.913 83.3904 159.608 81.8831 159.227 84.9339C158.82 88.1964 160.684 87.4044 161.93 88.4321C162.909 89.2402 162.732 90.5319 165.259 89.9294C165.885 88.0533 161.799 87.606 163.961 86.407C164.97 85.8468 165.589 86.4735 164.241 84.9198L164.243 84.9219Z" fill="white"/>
<path d="M81.8385 161.266C84.3271 170.795 90.1769 184.383 96.7401 191.704C101.673 197.209 117.747 209.207 124.857 210.337C130.35 211.21 134.227 206.833 139.873 208.824C140.024 208.991 138.745 211.5 138.505 211.683C137.538 212.423 135.514 211.562 135.097 213.14C134.837 214.123 136.065 217.205 136.651 218.089C135.786 220.785 136.695 221.597 139.472 221.313C140.111 221.952 141.145 222.784 141.89 223.328C142.013 226.305 144.016 227.473 146.726 226.15C147.285 226.355 149.273 226.823 149.951 226.956L150.15 227.353L150.354 226.956C150.593 227.002 150.898 226.927 151.16 226.956L153.175 230.18C153.102 231.723 152.911 232.656 151.528 233.571C149.652 234.81 148.691 234.377 146.726 234.21C147.021 232.447 145.64 232.388 145.92 234.21C145.284 234.119 144.705 233.859 144.308 233.807C144.453 232.888 144.143 232.672 143.502 233.404C143.136 233.351 142.686 233.412 142.293 233.404C142.39 232.372 141.314 232.658 141.155 231.504C140.989 230.305 141.775 228.963 141.098 227.995C140.421 227.028 140.2 228.433 139.885 228.759C138.146 230.577 135.66 233.245 137.106 235.973C137.435 236.594 140.899 239.236 141.594 239.544C142.682 240.023 145.57 239.749 144.627 241.398C144.264 242.03 141.739 242.337 141.89 243.479C140.802 243.598 139.216 243.544 138.112 243.427C134.795 243.076 133.743 241.22 131.009 243.479C130.837 243.62 129.84 243.09 130.203 244.688C130.056 244.694 127.599 245.74 127.384 245.492C127.702 244.702 127.889 241.341 128.147 240.936C128.562 240.287 130.761 239.862 131.42 239.246C131.708 238.317 129.27 236.87 128.786 235.822C127.817 235.614 127.398 238.391 126.97 239.042C126.398 239.445 124.579 236.703 124.155 238.448C123.881 239.578 125.911 240.072 124.125 241.232C123.031 241.942 120.843 241.93 119.452 242.196C118.773 242.327 117.163 243.534 116.5 242.667C116.224 242.309 117.405 241.067 117.248 240.138C117.221 239.977 116.071 237.277 115.984 237.14C115.761 236.791 114.628 236.614 114.507 235.973C114.449 235.667 115.714 234.214 115.281 232.461C115.192 232.104 114.076 232.306 114.509 231.213C114.761 230.581 116.305 230.407 116.093 229.577L114.086 227.961C114.09 226.909 118.648 226.436 117.947 223.723C117.496 221.98 116.474 222.972 115.96 222.79C115.382 222.587 112.631 221.61 112.468 221.513C111.906 221.176 111.888 219.999 111.241 219.516C110.773 219.165 106.856 217.847 106.455 218.121C106.06 218.8 106.191 222.023 104.8 221.122C103.211 220.092 103.91 217.289 103.233 216.334C103.059 216.09 99.3899 215.3 101.854 214.533C103.029 214.166 104.682 215.026 105.611 213.853C105.625 212.667 102.892 213.505 102.419 212.82C102.074 212.32 102.86 211.101 102.747 210.662C102.552 209.892 100.764 210.216 100.754 209.025C100.748 208.125 102.177 207.816 101.983 206.809C99.932 207.828 98.7209 206.545 97.3164 206.404C96.4237 206.313 95.656 206.839 94.9124 206.825C92.8369 206.782 90.0883 206.936 89.2641 204.763C86.7412 204.876 88.0893 207.149 87.4807 208.82C88.6092 209.217 89.0747 207.871 89.7457 207.718C90.2596 207.601 91.6822 208.157 92.5104 207.607C93.6086 210.232 89.0545 209.777 88.6455 210.283C88.4097 210.573 87.6762 212.616 87.8878 212.842C88.1195 213.088 90.0863 212.602 89.4918 214.867C83.644 213.962 86.5881 215.502 86.717 218.285C86.7614 219.26 86.447 221.597 85.5926 222.049C84.0551 222.861 82.4994 221.505 83.0435 224.544C85.8747 224.026 85.1896 225.094 86.1125 226.109C86.7311 226.792 87.3336 226.964 87.9059 227.943C88.2566 228.543 88.2807 229.728 88.6676 230.023C89.0545 230.317 91.3598 229.632 92.2323 230.266C92.4056 230.391 93.7537 234.095 92.317 234.214C68.0452 219.435 55.3139 204.717 48.791 176.582C50.393 176.447 49.7784 176.532 50.0122 177.558C50.1774 178.283 50.3487 180.832 50.4635 180.959C50.6066 181.116 51.4006 180.951 51.7995 181.419C52.0837 181.753 52.0514 182.559 52.398 182.857C52.9099 183.297 53.867 182.368 54.6549 182.245C57.5184 181.803 57.2866 183.01 59.2675 184.445C59.7914 185.427 57.8045 184.899 57.6534 185.044C57.5506 185.14 57.5526 187.772 57.6534 187.869C57.8146 188.024 59.4589 187.681 59.6564 187.883C59.8357 188.064 59.2735 190.587 61.4297 189.838C62.01 189.636 62.0825 188.731 62.4997 188.481C63.1183 188.109 65.214 187.988 66.1168 187.468L64.5127 189.668C67.4689 193.007 66.7616 186.769 69.9253 187.045C72.6638 187.282 69.8286 189.767 70.9449 190.501C71.8195 191.075 75.5877 189.985 73.9051 191.917C73.5121 192.369 72.8975 192.453 72.3011 193.449C71.7046 194.444 71.0779 196.917 70.3585 197.547C69.0709 198.674 67.6382 196.695 68.1339 199.961C65.4578 200.683 67.3641 197.719 64.9138 197.543L66.5258 204.391C64.8815 204.058 63.1264 204.87 64.547 206.571C65.7218 207.977 66.6467 210.984 68.3233 212.868C68.7988 213.402 72.4099 215.288 72.7121 215.234C73.0144 215.179 74.423 213.751 74.4874 213.412C74.6446 212.588 73.4678 209.352 74.5539 208.596C76.5972 207.173 76.3877 210.2 76.6275 210.406C76.7544 210.514 79.8254 210.412 79.9846 210.359C80.6718 210.136 80.571 209.094 81.0365 208.622C81.4556 208.195 82.3362 208.276 82.6748 207.754C84.2888 205.273 80.8048 202.942 81.4355 202.38C82.2778 201.63 82.8964 203.306 83.2773 203.54C84.843 204.501 85.5805 203.574 87.0757 203.178C87.4324 201.991 85.7558 202.353 85.4979 201.295C85.3004 200.487 86.2052 200.056 86.2495 199.367C86.2656 199.109 85.3669 194.557 85.2621 194.321C85.1876 194.152 82.7735 191.826 82.6163 191.728C81.8042 191.21 79.7972 191.288 79.4949 191.02C79.3378 190.879 79.2632 189.842 78.969 189.334C78.6748 188.826 77.9232 188.352 77.8103 188.066C77.4254 187.093 79.0919 187.732 79.3841 186.811C79.5171 186.39 78.9307 184.629 79.4164 183.843L77.4073 183.242C80.7967 182.142 78.4894 180.403 78.7353 178.047C78.8562 176.875 80.4743 175.458 80.6012 173.503C80.6919 172.119 80.0833 170.938 80.2043 169.536C80.3473 167.883 81.3811 166.265 81.4335 163.893C81.4576 162.821 80.3292 161.89 81.8365 161.272L81.8385 161.266ZM135.784 220.971C135.514 220.529 132.591 219.961 132.605 221.515C132.627 224.05 137.382 223.588 135.784 220.971Z" fill="white"/>
<path d="M214.029 110.485C214.56 110.447 215.107 110.497 215.641 110.485C218.272 110.429 221.535 110.407 224.104 110.888C225.492 111.148 229.623 112.934 230.955 113.709C232.583 114.659 234.234 116.269 235.791 117.337V118.143C234.703 118.012 234.248 117.472 233.541 117.369C200.126 112.585 161.106 153.572 163.655 186.448C163.816 188.52 164.633 190.66 164.659 192.697C158.996 189.336 156.205 181.118 155.978 174.783C154.956 146.445 185.868 112.474 214.029 110.483V110.485Z" fill="#B7C4C6"/>
<path d="M235.388 121.77C237.053 122.545 239.205 127.057 239.83 128.814C244.618 142.281 237.214 157.936 229.746 168.923L205.162 127.815C213.343 123.388 220.277 120.512 229.964 120.947C231.147 121 234.47 121.342 235.388 121.77Z" fill="#EFF3F7"/>
<path d="M92.3179 234.212C93.7547 234.093 92.4066 230.389 92.2333 230.264C91.3627 229.629 89.0655 230.324 88.6686 230.02C88.2716 229.716 88.2575 228.541 87.9069 227.941C87.3346 226.961 86.7321 226.79 86.1134 226.107C85.1905 225.089 85.8757 224.021 83.0445 224.541C82.5004 221.502 84.056 222.859 85.5935 222.046C86.4479 221.595 86.7643 219.258 86.718 218.282C86.589 215.499 83.645 213.96 89.4927 214.865C90.0872 212.6 88.1205 213.083 87.8887 212.839C87.6771 212.616 88.4086 210.573 88.6464 210.28C89.0555 209.777 93.6096 210.23 92.5114 207.604C91.6831 208.154 90.2605 207.598 89.7466 207.715C89.0756 207.868 88.6101 209.214 87.4817 208.817C88.0902 207.147 86.7422 204.874 89.265 204.761C90.0892 206.933 92.8378 206.78 94.9133 206.822C95.6569 206.839 96.4247 206.313 97.3173 206.401C98.7219 206.542 99.9349 207.826 101.984 206.806C102.178 207.814 100.749 208.122 100.755 209.023C100.763 210.214 102.551 209.889 102.748 210.659C102.861 211.098 102.075 212.318 102.42 212.817C102.893 213.502 105.626 212.664 105.611 213.851C104.682 215.022 103.03 214.163 101.855 214.53C99.3909 215.3 103.06 216.088 103.234 216.332C103.911 217.287 103.209 220.09 104.801 221.119C106.192 222.02 106.061 218.8 106.456 218.119C106.859 217.845 110.774 219.163 111.242 219.513C111.888 219.999 111.907 221.174 112.469 221.51C112.63 221.607 115.383 222.584 115.961 222.788C116.475 222.969 117.496 221.978 117.948 223.721C118.649 226.433 114.091 226.907 114.087 227.959L116.094 229.575C116.306 230.405 114.76 230.578 114.51 231.211C114.077 232.303 115.193 232.102 115.282 232.458C115.713 234.212 114.45 235.664 114.508 235.971C114.627 236.612 115.759 236.789 115.985 237.137C116.074 237.274 117.222 239.977 117.249 240.136C117.406 241.065 116.225 242.304 116.501 242.665C117.166 243.529 118.774 242.322 119.453 242.193C120.842 241.927 123.032 241.939 124.126 241.23C125.913 240.071 123.882 239.576 124.156 238.445C124.579 236.7 126.399 239.443 126.971 239.04C127.401 238.389 127.818 235.612 128.787 235.82C129.271 236.867 131.709 238.314 131.421 239.243C130.762 239.86 128.561 240.283 128.148 240.934C127.89 241.339 127.703 244.7 127.385 245.49C127.6 245.738 130.057 244.69 130.204 244.686C130.272 244.684 130.905 244.998 131.01 245.089C131.374 245.405 131.904 246.487 132.219 246.701V249.121C130.949 249.164 129.658 249.037 128.384 249.131C127.737 249.18 127.822 249.522 127.786 249.522C127.385 249.532 126.977 249.526 126.576 249.522L126.173 248.716C126.689 248.096 126.855 247.086 126.977 246.3C126.04 246.219 124.934 246.483 124.037 246.217C123.268 245.988 123.034 244.869 122.147 245.089L121.337 247.507C119.737 246.983 118.72 246.477 117.307 245.895C119.078 242.723 114.645 244.464 114.488 244.281C115.266 241.653 113.134 242.222 112.874 241.859C112.287 241.039 115.495 238.621 112.993 237.897C110.996 237.321 111.506 239.247 110.877 239.668C109.889 240.327 108.32 238.941 108.439 241.863C107.01 241.301 105.744 241.089 104.408 240.654C104.288 240.613 104.128 240.692 104.005 240.654C103.989 238.901 101.122 239.08 99.9752 238.639C97.001 237.49 94.9355 235.799 92.3179 234.205V234.212ZM98.7642 209.625C99.4271 208.962 97.7345 207.07 97.1581 208.624C96.6423 210.014 98.5909 209.799 98.7642 209.625ZM95.54 209.226C95.1007 208.787 94.2987 209.589 94.738 210.028C95.1773 210.468 95.9793 209.666 95.54 209.226ZM97.9581 212.048H96.7531V212.85H97.9581V212.048ZM97.9622 216.477C100.622 217.144 100.404 213.91 98.5687 214.468C97.8977 214.671 97.8916 215.884 97.9622 216.477ZM95.542 222.534C95.2902 222.222 91.0121 221.335 92.3179 223.733H95.5461C95.4917 223.403 95.6347 222.649 95.542 222.534ZM99.5702 222.526C99.1793 222.584 98.067 222.425 97.9622 222.526C97.14 223.322 99.4735 226.568 99.5702 222.526ZM93.93 226.959H92.3199V228.164H93.93V226.959ZM113.676 227.765H112.471V228.567H113.676V227.765ZM112.467 232.601C112.094 232.219 110.26 233.166 110.456 234.004C110.899 235.9 112.866 233.013 112.467 232.601Z" fill="white"/>
<path d="M108.312 248.372L122.134 253.758L102.193 275.722C97.4873 278.971 89.6949 272.512 91.2949 267.239C91.6334 266.125 94.4203 262.673 95.3352 261.611C99.325 256.98 104.457 253.172 108.312 248.37V248.372Z" fill="#AB8A64"/>
<path d="M247.478 129.024C248.707 130.499 250.017 132.48 250.702 134.263C257.658 152.401 244.195 177.464 231.166 189.889C218.056 202.393 195.299 215.259 177.756 204.388L178.159 203.985C186.953 207.594 199.358 205.303 207.851 201.637C231.075 191.614 252.933 162.849 249.09 136.681C248.629 133.531 247.97 131.857 246.672 129.024H247.478Z" fill="#B7C4C6"/>
<path d="M205.164 127.815L229.748 168.923C228.57 170.658 227.441 172.135 226.121 173.759L200.328 130.636C202.255 129.373 203.179 128.889 205.164 127.815Z" fill="black"/>
<path d="M245.869 139.905C248.471 168.201 217.128 202.234 188.423 202.389L185.016 201.571C199.045 201.025 212.8 192.555 222.714 183.046C223.939 181.871 225.088 180.118 226.121 178.998C226.15 178.966 226.607 179.068 226.927 178.708C237.64 166.708 246.174 149.07 244.261 132.653C244.868 132.995 245.196 134.71 245.347 135.389C245.72 137.058 245.72 138.281 245.869 139.905Z" fill="#A6B2B7"/>
<path d="M159.624 212.048C160.875 213.215 150.695 222.188 150.34 223.728C146.502 221.928 143.018 219.055 140.732 215.397C143.687 211.21 146.852 207.148 150.556 203.587C151.463 207.887 155.128 211.684 159.622 212.05L159.624 212.048Z" fill="#AB8A64"/>
<path d="M163.791 203.723C162.957 204.634 160.724 207.937 159.807 208.03C158.256 208.185 153.25 204.447 154.961 202.766C156.087 202.087 161.315 195.905 161.828 195.903C162.371 195.901 166.326 200.257 166.427 200.642C166.775 201.97 164.47 202.982 163.789 203.725L163.791 203.723Z" fill="#B7C4C6"/>
<path d="M178.159 203.985L177.756 204.388C176.791 203.79 175.532 203.183 174.943 202.168C175.999 202.077 177.537 203.729 178.159 203.985Z" fill="#B7C4C6"/>
<path d="M141.486 204.388C141.011 204.247 140.58 203.985 140.277 203.582Z" fill="#475F41"/>
<path d="M126.574 249.527C125.849 249.519 125.541 249.148 125.365 249.124Z" fill="#445D41"/>
<path d="M149.947 226.958C150.076 226.984 150.221 226.934 150.35 226.958Z" fill="#475F41"/>
<path d="M34.2832 133.457C34.0071 134.128 33.6484 134.654 33.4771 135.069L33.1406 134.825C33.2373 134.076 33.3643 133.227 34.2832 133.457Z" fill="#2A3B4A"/>
<path d="M54.0287 232.599C53.6559 232.619 53.3415 232.593 53.2227 232.599L53.4282 232.198L54.0287 232.599Z" fill="#2A3B4A"/>
<path d="M247.479 129.024H246.673C246.474 128.587 245.829 127.94 246.065 127.42C246.667 127.847 247.024 128.476 247.479 129.024Z" fill="#A6B2B7"/>
<path d="M224.104 110.889L224.311 108.867C224.974 109.135 227.42 108.938 227.751 109.095C228.392 109.395 228.678 110.778 229.337 111.096C231.106 111.951 231.868 110.018 230.955 113.712C229.623 112.936 225.492 111.151 224.104 110.891V110.889Z" fill="black"/>
<path d="M213.623 107.667V108.062C211.946 108.262 211.946 107.468 213.623 107.667Z" fill="black"/>
<path d="M130.508 105.752C137.039 104.932 144.704 105.903 149.565 110.671C151.118 112.194 155.171 117.657 151.574 118.789C149.419 119.468 147.715 115.577 146.133 114.102C137.978 106.497 125.148 110.963 117.341 116.764C116.225 117.594 111.872 122.11 110.863 121.596C109.218 120.76 110.518 118.779 111.056 117.733C114.139 111.761 123.999 106.57 130.51 105.752H130.508Z" fill="black"/>
<path d="M120.526 69.7803C120.557 70.0241 120.936 70.417 120.929 70.5863C120.716 76.6477 114.12 80.7967 108.938 82.5741C106.006 83.5796 98.7836 85.7821 100.95 80.2265C103.628 79.4325 106.374 78.5499 108.839 77.4376C112.434 75.8134 113.099 75.0054 115.69 72.1984C117.236 70.5238 117.683 68.2951 120.526 69.7803Z" fill="black"/>
<path d="M142.293 76.6311C142.059 76.4658 141.688 76.3933 141.487 76.228C140.044 75.0532 136.58 71.2326 138.456 69.3687C140.332 67.5047 143.032 71.3697 144.344 72.3651C145.912 73.556 148.38 74.757 150.271 75.3051C152.034 75.817 157.573 75.7505 156.745 78.761C155.496 83.299 144.794 78.4043 142.295 76.6331L142.293 76.6311Z" fill="black"/>
<path d="M116.384 83.9709C123.751 82.3165 121.158 95.1627 116.275 95.9526C107.953 97.3027 111.389 85.0913 116.384 83.9709Z" fill="black"/>
<path d="M149.949 91.9467C149.872 92.122 148.82 93.8771 148.74 93.9617C148.659 94.0464 148.179 94 147.934 94.1834C147.599 94.4353 147.563 94.7537 147.531 94.7678C144.915 95.9204 142.408 95.1103 141.913 92.128C141.705 90.8766 141.923 88.7366 142.291 87.5135C142.6 86.4958 144.587 83.6908 145.522 83.2898C150.894 80.9946 151.523 88.3497 149.949 91.9467Z" fill="black"/>
<path d="M133.327 115.025C135.032 114.8 138.746 114.967 139.076 117.153C139.57 120.416 135.907 118.026 134.043 118.126C132.574 118.205 127.502 121.351 126.978 119.543C126.397 117.544 131.697 115.241 133.325 115.025H133.327Z" fill="black"/>
<path d="M155.836 115.751C158.294 115.025 158.327 121.361 155.157 123.146C153.656 123.99 149.764 124.414 148.938 122.57C147.917 120.291 151.61 120.748 152.797 120.381C155.445 119.563 154.51 116.144 155.838 115.751H155.836Z" fill="black"/>
<path d="M105.62 118.953C107.026 118.012 107.798 121.097 108.247 121.756C110.033 124.369 113.483 122.552 114.017 124.472C114.831 127.39 108.814 127.102 107.016 125.405C105.914 124.365 104.36 119.793 105.62 118.951V118.953Z" fill="black"/>
<path d="M122.945 70.5867C123.016 69.0069 122.21 65.418 124.47 66.6472C124.906 66.883 125.291 68.3822 125.363 68.9747C125.452 69.7021 125.486 71.5278 125.363 72.1988C125.355 72.2432 124.988 72.9706 124.96 73.0049C124.444 73.6295 123.346 73.9358 122.544 73.8089C122.373 72.6965 122.897 71.6608 122.945 70.5867Z" fill="black"/>
<path d="M87.0754 156.431V158.039H86.2734" fill="#445E41"/>
<path d="M198.715 253.758C198.858 253.294 200.277 252.655 200.851 252.801C204.103 253.623 201.695 264.067 203.759 266.451C207.362 265.381 207.333 254.034 211.615 256.172C214.3 257.512 209.824 267.243 208.325 269.01C206.406 271.273 202.334 271.809 200.319 269.483C200.073 269.201 198.715 266.817 198.715 266.654V253.758Z" fill="black"/>
</g>
<defs>
<clipPath id="clip0_446_362">
<rect width="256.481" height="370.601" fill="white"/>
</clipPath>
</defs>
</svg>
