<?xml version="1.0" encoding="UTF-8"?>
<svg id="Livello_1" xmlns="http://www.w3.org/2000/svg" version="1.1" viewBox="0 0 1920 2216">
  <!-- Generator: Adobe Illustrator 29.8.3, SVG Export Plug-In . SVG Version: 2.1.1 Build 3)  -->
  <defs>
    <style>
      .st0 {
        fill: #677582;
      }

      .st1 {
        fill: #445e41;
      }

      .st2 {
        fill: #2a3b4a;
      }

      .st3 {
        fill: #455d41;
      }

      .st4 {
        fill: #eff3f7;
      }

      .st5 {
        fill: #2e3f4f;
      }

      .st6 {
        fill: #fff;
      }

      .st7 {
        fill: #475f41;
      }

      .st8 {
        fill: #ab8a64;
      }

      .st9 {
        fill: #fefefe;
      }

      .st10 {
        fill: #a6b2b7;
      }

      .st11 {
        fill: #b7c4c6;
      }

      .st12 {
        fill: #445d41;
      }
    </style>
  </defs>
  <path class="st9" d="M376,688c-3.5,8.7-6.8,17.2-10,26s-1.4,2.3-2,4c-4.3,12-8.6,23.9-12,36-6.2,3.1-5.9,12.9-8,18s-2.7,5.1-4,8-1.4,2.6-2,4c-10.7,23.8-18,47.8-28,70-.1.3-2.4,2.4-4,6-17,37.6-37.2,73.7-52.9,112.1-34.8,84.7-90.3,212.3-24.7,294.6s53.7,40.4,68.7,43.3c21.5,4,68.5-1.1,92.9-1.9s4.8.1,8,0c13.4-.5,26.6-1.4,40-2s8,.2,12,0c20.2-1,47.7-5.8,67.2-4.1s4.9.3,6.8,4.1c.4,10.6,4.6,22.9,6,34,1.9,14.6,4.4,29.8,6,44,13.4,117.9,25.3,238.5,23.9,356.9-.5,42.7-3.4,87.8.1,130.1,2.3,27.1,6.8,53.9,18.3,78.7,19.2-.7,37.6,7,56.6,8.4,25.1,1.8,52.7-1,78.2-.2,41.3,1.4,94.8,9.6,135,1.2,48.5-10.1-9.7-74.4-28.2-88-7.2-150,3.8-302.4-16.1-452.1-.3-2.5.9-4.1,2.1-6.1s22.5-25.1,24.1-25.8c6.6-3,22.2-.2,30.7-1.3,6.9-.8,13-5,18.2-5.8s2.4.7,3,3c2.7,10.5,4.3,25.2,5.8,36.3,12.9,96.7,16.8,196.3,16.4,293.8-.3,54.9-8.9,119.3.5,173.4,6.4,37.2,29.9,36.7,62.7,41.3,55.6,7.7,144.6,14.2,199.8,10.4,46.1-3.2,39.9-34.7,17.7-63.9-6.9-9.1-31.2-27-32.7-35.3-5.4-29.6,6.6-72.7,2-104-7.4-62.1,4.3-124.8-2.1-186.9,11.4,0,22.6,1.8,32-6,12.2,28.7,40.3,20.6,58.1,1,56.8-62.7,49.9-193.2,49.9-272,0-16.6-.1-33.2.4-49.8,19.6-12.8,40.4-19.1,56.3-37.9,30.1-35.6,39.4-77.9,30.3-123.6,61-71.2,116.2-184.4,80.6-278.5s-3.4-3.2-3.5-3.5c-16.9-39.9-32.8-47.4-64-74-45.9-39.2-61.5-52.4-126-50-5.7.2-12.6-.7-18,0-11.8,1.6-30.4,5.7-42,9s-30,13.9-37.5,14.7-3.9.3-5.6-1.5c-20.2-33.7-41.6-66.8-61.2-100.8-67.6-117.2-130.7-236.5-208-348-35.8-51.6-72.5-97.9-140.6-103.4-60.2-4.8-127,45.7-156.6,95.4-26.3,44.2-53,102.8-76.1,149.9-50.5,102.9-101.7,212.5-144.3,318.7Z"/>
  <path d="M1248,654c4,14-11.7,5.5-14,8s-.2,5.2.1,5.8c2.5,4,21.8-.2,25.9,4.2-139.7,9.9-293.1,178.5-288.1,319.1,1.1,31.4,15,72.2,43.1,88.9-.1-10.1-4.2-20.7-5-31-12.7-163.2,181-366.5,346.8-342.8,3.5.5,5.8,3.2,11.2,3.8s2.8,0,4,0c.7,8.5-9.1,7.1-6,18-4.6-2.1-21-3.8-26.9-4.1-48.1-2.2-82.5,12.1-123.1,34.1-9.9,5.3-14.4,7.7-24,14-84.6,55.5-170.5,166.3-162,273,2,25.7,7.3,41,31.3,52.7,80.3,39,198.5-40,250.6-97.6l-2,10,10,2c-5.1,5.6-10.8,14.3-16.9,20.1-49.2,47.2-117.5,89.2-187.1,91.9l16.9,4.1c142.5-.8,298-169.7,285.1-310.1,9.7-1.2,8-12.9,8-20l8,4c19.1,129.9-89.4,272.6-204.7,322.3-42.1,18.2-103.7,29.6-147.3,11.7s-10.7-9.5-16-9c2.9,5,9.2,8,14,11,87.1,54,200-9.9,265.1-71.9,64.7-61.7,131.5-186,96.9-276.1,7.3-5.3-3.2-14.4,14-12,0,.2,2.5.8,3.5,3.5,35.6,94.1-19.7,207.3-80.6,278.5,9.1,45.7-.1,88-30.3,123.6-15.9,18.8-36.7,25-56.3,37.9-.5,16.6-.4,33.2-.4,49.8,0,78.8,6.9,209.2-49.9,272-17.7,19.6-45.9,27.6-58.1-1-9.4,7.8-20.6,6-32,6,6.4,62.1-5.3,124.8,2.1,186.9,4.6,31.3-7.4,74.4-2,104s25.8,26.2,32.7,35.3c22.2,29.2,28.4,60.7-17.7,63.9-55.2,3.8-144.2-2.6-199.8-10.4-32.8-4.6-56.3-4.1-62.7-41.3-9.3-54.1-.7-118.5-.5-173.4.4-97.5-3.4-197.1-16.4-293.8-1.5-11.1-3.1-25.7-5.8-36.3s1.5-3.7-3-3-11.3,5-18.2,5.8c-8.5,1-24.2-1.7-30.7,1.3s-22.9,23.7-24.1,25.8-2.3,3.6-2.1,6.1c19.9,149.7,8.9,302.1,16.1,452.1,18.6,13.6,76.7,77.9,28.2,88-40.3,8.4-93.7.2-135-1.2-25.5-.9-53.1,2-78.2.2-19-1.4-37.4-9.2-56.6-8.4-11.5-24.7-16-51.6-18.3-78.7-3.5-42.3-.6-87.4-.1-130.1,1.4-118.5-10.5-239-23.9-356.9,3.1-5.5,8.1-3.3,11.6-9.5,5.3-9.4-10.1-18.6,10.4-22.5,21.9,155.5,27.6,314,30.1,471.1.4,26.2-.6,53.1,4.4,79.5.9,4.7,4.3,18.7,7.6,20.4,13.5,7.3,65.2,6.1,82.9,7.1,22.4,1.2,45.7,3.4,68,4s58,.4,87,0c.6-5.2-3.2-9.2-6-12.9-9.8-12.8-26.8-26.1-38.8-37.2l-3-7c-1.7-144.4,5.4-289.2-10.1-432.9-35.6,26.7-59,93.1-114.5,67.6-17.2-7.9-35.9-31.8-37-51.2-2.3-42.7,66.4-84,87.5-116.4-2.6,0-5.1-.5-7.4-1.6-136.4-61.2-263.5-173-288-328-2.1-12.9-9.9-56,13.4-40.4,0,.7,0,1.3,0,2,.6,4,1.3,6.5,2,10,1.2,6,3.1,9.9,4,14,32.4,139.6,95.6,212.7,216,286s23.2,16.3,38,22c4.3,5,13.5,7.9,20,10s1.4-.2,2,0l52.7,26.3c15.5,6.1,30.9,12.5,47.3,15.7s2.7-.2,4,0,2.4,2,6,2,4,0,6,0c9.1,4.6,28.9,1.6,36.7-4.3s4.1-2.1,3.3-5.7c-4.7.4-14.3-1.5-18-4s-4.2-6.4-6-8v-8c13.6-11.2,18.8-2,35.3-.3,5.5.6,13.4.9,18.7.3,9-1,22.3-9.4,24-19s-.3-2.5-2.5-3.5c-8.9-3.7-35.3-3.1-35.4-18.5s8.5-9.2,15.8-9,4.2-.3,6,0,1.4,1.7,4,2,4.8,1.6,8,2,2.7-.1,4,0c9.7.8,14.5,3,23.8-3.2s7.8-9.2,8.2-16.8c.6-13.4,1.3-14.8-10-16s-2.8.2-4,0-1.4.1-2,0c-3.4-.7-13.2-3-16-4-6.5-2.4-18.2-9.8-24-14s-8.8-6.8-12-10-12.9-14.4-14-16c-2.9-4.4-9-19.7-7.7-24.6,2.1-7.8,12.1-3.6,16.9-7.2s7.5-13.4,6.8-14.2c-28-9.9-47.3,11.8-74.5,7.5-35.3-5.6-115-65.2-139.5-92.5-32.6-36.3-61.6-103.8-73.9-151.1s.3-2.8,0-4c-2.3-9.3-4.7-18.5-6-28s-5.2-24.1,3.1-26,12.1,11.8,14.9,19c32.4,82.8,36.1,140.2,110,201,18.6,15.3,72.8,54,95.5,57.6,5.7.9,6.5-.8,10.5-1.6,10.9-2.3,20.9-8.7,32-10s13.9-.1,20,0,.4,1.9,4,2,4.2.2,6,0c1.5,2,3.6,3.3,6,4s9.1,2.3,11.9,1.1c4.4-1.9,15.8-16.7,24.1-21.1s14.8-2.5,20.1-5,3.2-6.3,3.9-7c5.6-5.8,22.1-17.2,22.2-24.9s-13.8-25.3-17.1-33.1c-26.1-61.7-5.9-147.2,25-204s3.7-3.9,6-8c6.4-11.4,16.8-21.1,20-34,11.8-7.1,21.9-24.4,31.9-35.1,14-14.9,32-32.5,48.1-44.9s17.8-12.2,26-18,16.5-8.2,15.7-12.6c-22.2-34.8-43.7-70.2-64.1-106-53.9-94.7-103.9-189.5-162.8-281.2-31-48.3-82.2-136.6-140.8-149.2-72.5-15.7-127.9,42.8-160.4,99.7-55.8,97.5-98.9,202.9-143.7,305.3-2.5,5.7-5.5,12.1-8,18s-8.8,14.6-12,22c-16.9,39.2-31.4,79.5-50,118,0-.8-.6-11-.8-12-1-4.1-12.3-24.3-19.2-18,42.6-106.2,93.8-215.8,144.3-318.7s49.8-105.7,76.1-149.9c29.6-49.6,96.4-100.2,156.6-95.4,68.2,5.5,104.8,51.8,140.6,103.4,77.3,111.5,140.5,230.8,208,348,19.7,34.1,41,67.1,61.2,100.8,1.7,1.8,3.3,1.7,5.6,1.5,7.5-.8,27.2-11.7,37.5-14.7s30.1-7.4,42-9ZM1356,1088c-3.3-3.4-28,19.7-32.2,22.8-61.1,45.2-142.9,83.6-220.2,60.6-26-7.7-42.4-20.9-63.6-36.6-3.9,6.8-22.7,22-25,27.2-3.9,8.9-.8,19.8-8.5,33.5-5.1,8.9-33.8,35.3-34.3,37.8s11.3,21.4,11.7,32c.4,11.7-10.2,31.2-20,37.6-3.4,2.2-12.8,4.5-13.5,5.5-1.2,1.7-3.3,15.9-6,21-7.8,14.7-22.6,22.4-38.1,26.8,4.7,36.9,11.6,73.7,15.7,110.8,15.3,138.7,10.7,271.4,10.8,410.3,0,4.7,1.9,9.7,1.4,14.6,78,11.5,157,17.9,235.9,18.1.4-22.9-43.1-41.8-45.9-59.1s1.8-22.8,2-33.8c2.4-126.6,3.5-262.3-6.1-388.1-4.9-63.5-15.4-126.4-19.9-190,.9-4.8,8.3-11.2,13-13,88.8-19.1,247.5-8.4,242.9-138ZM1010.7,1134.7c3.4-3.7,14.8-8.7,13.1-15.3s-20.1-23.5-22.8-23.5-28.5,30.7-34.1,34.1c-8.5,8.3,16.3,26.9,24,26.1s15.6-16.8,19.8-21.4ZM990,1176c-22.3-1.8-40.5-20.7-45-42-18.4,17.7-34.1,37.8-48.7,58.6,11.3,18.1,28.6,32.4,47.7,41.3,1.8-7.6,52.3-52.2,46.1-58ZM1268,1230l-144,22,16,113,8,105c8.3.3,5.7-15.5,13.4-17.7,15.6-4.6,9.4,24.1,7.7,31.8s-4.2,7-5,11-3,29.6-2.1,30.9c22.9-6.2,16.7-26,24.9-42.1,4.1-8.2,12.4-14.6,19.3-5,6.7,9.4-9.9,53.4,1.1,57s20.4-12.6,24.4-19.2c36.6-60.6,35.7-133.6,36.3-201.6.2-28.4,0-56.7,0-85.1ZM735.4,1356.3c-19.1,23.8-44.6,42.7-64.4,65.7s-18.4,22.4-20.1,27.9c-7.9,26.2,30.7,58.2,54.1,42.1l99-109-68.6-26.7Z"/>
  <path d="M1392,704c-6.5,2.5-12.9,5.5-20,6-.6-7-2.3-2.8-4-4-7.7-5.3-15.9-13.3-24-18,4.5-18.3.8-8.7-8-13s-4.7-8.4-7.9-9.9-13.8.2-17.1-1.1l-1,10c-12.7-2.4-28.9-2.3-42-2l-2-18c64.5-2.4,80.1,10.8,126,50Z"/>
  <path d="M396,718c-.5,4.3-2.5,8-4,12-6.7,18.5-16.4,37.7-24,56-4.6-1.1-5.2,3.1-5.7,6.8l1.7,1.2c-17.9,43.2-34.9,85.2-54,128s-1.3,2.5-2,4-1.4,2.6-2,4c-5.6,12.6-12.3,25.3-18,38-37,82.1-112.4,227.8-19,298,40.5,30.4,142.3,14.8,193,12,.6,0,2.2,0,4,0,18.8-1,46.3-5.9,64-2,2,6.9-6.9,11.9-7.8,15.4s3.4,6.3,3.9,9.8-2.1,4.5-2.1,4.8c-1.9-3.9-2.8-3.8-6.8-4.1-19.5-1.6-47,3.1-67.2,4.1,2.8-5.9-14.2-6.6-12,0-13.4.6-26.6,1.5-40,2-.8-3.1-7.4-3-8,0-24.4.8-71.4,5.9-92.9,1.9-15.1-2.8-58.7-30.7-68.7-43.3-65.6-82.3-10-209.9,24.7-294.6,15.7-38.3,35.9-74.5,52.9-112.1,5.2,1,4.2-1.4,4-6,10-22.2,17.3-46.2,28-70,3.4.2,4.7.7,4-3l-2-1c1.3-2.9,3.2-6.1,4-8,7,1,6.5-12.6,8-18,3.4-12.1,7.7-24,12-36,3.4.2,4.7.7,4-3l-2-1c3.2-8.8,6.5-17.3,10-26,6.9-6.4,18.1,13.9,19.2,18s.9,11.3.8,12Z"/>
  <path d="M1456,778c-17.2-2.4-6.7,6.7-14,12-3.4-8.9-9.9-18.7-16-26s-4-5.8-7-8c-1.2,2.6,2,5.8,3,8,6.4,14.1,9.7,22.4,12,38l-8-4c0,7.1,1.7,18.8-8,20-.7-8.1-.7-14.1-2.6-22.4s-2.4-11.9-5.4-13.6c9.5,81.5-32.9,169-86,228.5s-3.9,1.3-4,1.4l-10-2,2-10c1.4-1.5,5.1-10.4,8-14,6.5-8.1,12.1-15.4,18-24,37.1-54.5,73.8-132.2,50-199-3.1-8.7-13.8-31.1-22-35-3.1-10.9,6.7-9.5,6-18,7.1-.5,13.5-3.5,20-6,31.2,26.6,47.1,34.1,64,74Z"/>
  <path class="st5" d="M1368,706c1.7,1.2,3.4-3,4,4-1.2,0-2.8.1-4,0v-4Z"/>
  <path d="M548,1294c7.9,21.2,7,36.9,10,58-20.5,4-5.1,13.2-10.4,22.5-3.5,6.2-8.5,4-11.6,9.5-1.6-14.2-4.1-29.4-6-44,5.6,1.3,4.5-3.5,4.1-7.1-.6-6.2-4.4-10.1-4.4-13.9s4.2-7.2,4.2-10-7.6-8.4-2.2-15.8c2.6-3.6,12.2,1.1,16.2.8Z"/>
  <path d="M548,1294c-4,.3-13.6-4.5-16.2-.8-5.4,7.5,2.2,12.3,2.2,15.8s-4.2,5.5-4.2,10,3.8,7.7,4.4,13.9,1.5,8.3-4.1,7.1c-1.4-11.1-5.6-23.4-6-34s2.5-2,2.1-4.8-4.9-5.9-3.9-9.8,9.8-8.5,7.8-15.4c14,3.1,13.3,5.4,18,18Z"/>
  <path d="M1266,654l2,18c-2.7,0-5.4-.2-8,0-4.1-4.4-23.4-.1-25.9-4.2s-.3-5.6-.1-5.8c2.3-2.5,18,5.9,14-8,5.4-.7,12.3.2,18,0ZM1258,658c-8.3-1-8.3,3,0,2v-2Z"/>
  <path class="st2" d="M352,754c-1.5,5.4-1,19-8,18,2.1-5.1,1.8-14.9,8-18Z"/>
  <path class="st5" d="M438,1306c-2.2-6.6,14.8-5.9,12,0-4,.2-8-.2-12,0Z"/>
  <path class="st0" d="M398,1308c-3.2.1-6.1,0-8,0,.6-3,7.2-3.1,8,0Z"/>
  <path class="st2" d="M310,854c.2,4.6,1.2,7-4,6,1.6-3.6,3.9-5.7,4-6Z"/>
  <path class="st2" d="M340,780l2,1c.7,3.7-.6,3.2-4,3,.6-1.4,1.4-2.7,2-4Z"/>
  <path class="st2" d="M366,714l2,1c.7,3.7-.6,3.2-4,3,.6-1.7,1.6-2.9,2-4Z"/>
  <path class="st6" d="M586,486c-3.5-3.7-17-2.5-16,6,1.8,0,20.5-1.2,16-6ZM775.4,540.4c-24.8,5.6-41.8,66.2-.5,59.5,24.2-3.9,37.1-67.7.5-59.5ZM845.5,648.5c-32.3,4.1-81.2,29.8-96.5,59.5-2.7,5.2-9.1,15-1,19.2s26.6-19.9,32.2-24c38.7-28.8,102.4-51,142.9-13.2,7.9,7.3,16.3,26.6,27,23.3,17.9-5.6-2.3-32.7-10-40.3-24.1-23.7-62.2-28.5-94.6-24.4ZM859.5,694.5c-8.1,1.1-34.4,12.5-31.5,22.4,2.6,9,27.8-6.6,35.1-7,9.2-.5,27.4,11.4,25-4.8-1.6-10.9-20.1-11.7-28.5-10.6ZM971.2,698.1c-6.6,1.9-1.9,18.9-15.1,23s-24.2-.5-19.1,10.9c4.1,9.2,23.4,7.1,30.9,2.9,15.7-8.9,15.6-40.3,3.4-36.7ZM722,714c-6.3,4.2,1.5,26.9,6.9,32,8.9,8.4,38.8,9.8,34.7-4.6s-19.8-.5-28.6-13.5-6.1-18.6-13-13.9ZM630,900h-4v8h4v-8ZM368,910c.5-3.7.1-5.9-3-8h-3s0,8,0,8h6ZM408,918c-4.4,1.4-6.9-5.5-9-6-7.5-1.6-7.7,17.4,8,18.1s2.1-6.4,3.1-10.7,3.8-1.7,4-2.3c2.4-7.5-8.5-7.8-6,1ZM382,960c-4.8-6.2-22.6.3-18,12,.5.5,11.5-5.4,12.8-6.1s7.8-2.4,5.1-5.8ZM402,968c-2.2-2.2-6.2,1.8-4,4s6.2-1.8,4-4ZM356,1002h-6v4h6v-4ZM372,1004c-6.3-1-10.9,3.8-10,10,3,1.1,11.8-8.5,10-10ZM566,1052h-6v4h6v-4ZM710,1054c-2.2-2.2-6.2,1.8-4,4s6.2-1.8,4-4ZM725.8,1072.2c-8.8-5.4-5.7,9.3,2.2,7.8.7-.7-1.9-7.6-2.2-7.8ZM800,1090h-3c-3.1,2.1-3.5,4.3-3,8h6s0-8,0-8ZM534,1130c13.2,3.3,12.1-12.7,3-10s-3.4,7-3,10ZM541.9,1149.9c.6-.4,3.1-7.2.2-9s-8.5-.7-12.1-.9c-3,6.1,8.9,12.1,11.9,9.9ZM572,1142h-20c-2.5,11.9,11.5.3,20,6v-6Z"/>
  <path class="st6" d="M392,730c14.6.7,17.2,6.7,14,20h22c2.2,10.6-6.1,14.1-11.7,21.3-2.7,3.5-4.1,9.5-6.3,11.7s-9,2.2-11,5-1.3,7.2-3.3,10.7-7.4,6.3-8.7,9.3-.5,8-1.9,10.1-8.3,1.2-10.3,3.8,2.9,9,.4,12.2-12.7.6-15.2,6.9c1.6,11.2,12.3-.9,14,1,2.5,6.8-5.2,13.2-4.1,18.7s9.1,3.5,8.1,8.3c-1.8,8.5-9.7-4.3-14-2.1-6.6,3.4-1.1,8.9-2.3,13.7s-6.4,6.2-8.6,9.6-.8,7.2-3.1,9.1-12.7-4.3-14.1,1.8,8.7,8.5,12,9c.4-5.5,2.7-6.7,8-6,1.4,6.9-1.5,7-8,6-.3,4.1,2.6,8.4,2,12.9s-5.6,7.2-6,12.2,3.1,9.2,2.1,13.5-5.8,2.5-7.2,5.3c-2.3,4.9-3,19.5-7.9,26.1s-7.4,1.2-10.1,3.9-2.4,10.9-6.9,13.1-9.6.6-10,1,.3,11.5-.2,14.8c-.9,5.5-8.2,21.5,1.1,21.2s17.8-7.6,19.1-9.1c4.2-4.9-2.3-12.5,1-13,14.7.4-1.8,11,7,15s14.4-3.1,21.8,1.2c3.8,10.7-7.3,14.5-8.9,17.7s-.2,8.6-1.4,12.7-11.8,9.1-7.6,19.4c9.9-4.1,10.7.6,10,10-1.8,1.9-22.4-6.6-24.9-6s-2.6,6.7-3.8,9.4-3.2.7-3.3,1.9c-.4,3.7,3.8,7.8,1.2,12.7s-14.3,5.4-11.1,9.9,10.3,6,12.5,5.8c12.1-1.6,23.6-18.5,37.5-15.7.6,3.8-3.4,8.5-1.1,12s22.1,14.7,25.1,12c-1.8-12.7-17.6-6.2-18.1-20.9s7.4-2,9.2-5.1-1.5-12.4.9-16c-7.3,1.5-17.5-4.8-16.2-12.7s15.6-6.6,16.2-7.3c1.2-1.3-5.6-10.9,2.9-18,2.9-2.4,6.5-2,10-6,6.8-7.8,18.3-38.9,20.4-49.3s-2-5.9-1.1-9.3,7.3-4.9,8.7-7.4c3-5.3-1.8-11.2,8.5-13.5s13.3-.8,14.6,9.5c-23.3-15.5-15.5,27.5-13.4,40.4,24.5,155,151.7,266.8,288,328,2.3,1.1,4.8,1.6,7.4,1.6-21.2,32.3-89.9,73.7-87.5,116.4s19.8,43.2,37,51.2c55.5,25.5,79-40.9,114.5-67.6,15.5,143.7,8.4,288.5,10.1,432.9l3,7c12,11.1,29,24.4,38.8,37.2s6.7,7.8,6,12.9c-29,.4-57.9.7-87,0s-45.7-2.8-68-4c-17.8-1-69.4.2-82.9-7.1s-6.7-15.7-7.6-20.4c-5-26.3-4-53.2-4.4-79.5-2.5-157.1-8.2-315.6-30.1-471.1-3-21.1-2.1-36.8-10-58-4.7-12.6-4-14.9-18-18s-45.2,1-64,2l-3-2-1,2c-50.7,2.8-152.5,18.4-193-12-93.4-70.2-18-215.8,19-298l17.6-12.4c-.5-8.1,5.7-18.4.4-25.6.6-1.4,1.4-2.7,2-4,4.7.6,5.4-.5,2-4,19.1-42.8,36.1-84.8,54-128,.9-2.1,2.6-4.7,4-8,7.6-18.3,17.3-37.5,24-56Z"/>
  <path class="st6" d="M466,560c44.8-102.4,87.9-207.8,143.7-305.3,32.5-56.9,88-115.4,160.4-99.7,58.5,12.7,109.7,100.9,140.8,149.2,58.9,91.6,108.9,186.5,162.8,281.2,20.4,35.9,41.9,71.2,64.1,106,.7,4.4-11.9,9.9-15.7,12.6l-8-2c4.2-8.4-2.5-40.4-8.6-45.4-3.1-2.5-9-2-11.6-5.4s-1.3-7.3-2.8-9.2c-2.2-2.9-7.9-1-10.1-3.9s-.3-7.3-3.8-10.2c-5.9-5.1-17.9-1.7-19.2-2.6s-6.8-12.6-11.3-16.9-10.8-8-15.3-10.7-18.4-7.1-19.1-7.9c-1-1.2.3-6.6-1.2-9.8s-6.4-3.3-9-5.1-3.8-9.5-6-3.6-.8,12.1-7,10.7-2.1-15.8-9-14c2,15.2-6.5,13.2-15.5,17.6s-8.4,9.8-14.7,5.6c-3.6-2.5-.9-12.3-7.9-11.1,7.8-17.8,4.7-54.3-22-43-4.6,2-14.5,15.9-16,21-3.2-1.4.2-5.7-.4-8.5s-7.1-8.4-7.5-14.6c-.7-11.5,8.8-19.9,7.9-30.9,12.4,8.8,65.5,33.1,71.7,10.6,4.1-14.9-23.4-14.6-32.1-17.1-9.4-2.7-21.6-8.7-29.4-14.6-6.5-4.9-19.8-24.2-29.2-14.9s7.9,28.2,15,34c-6.6-.7-15.6,3.8-21.4,3.5s-4.8-2.8-7.7-3.3c-13.3-2.5-7.6,5.2-12.2,8.1s-15,3.2-18.8,2.9-13.4-2.6-13.9-3.1c-1-1,2-6.6,1.6-8.7s-8.2-12.3-9.5-15.2c.1-.2,2-3.8,2-4l34-9c3.6-3.8,10.8-8.2,10.2-13.9s-6.6-11.2-7.3-11.3c-3.9-.5-6.6,3.9-9.9,4.2s-10.6-5.1-12.6,1.3c-3,9.8,3.5,14.4-14.3,12.7-.4-2.9-2.3-10.4-4.4-11.5-11.2-6.1-7.2,11.7-7.6,19.5h-10c0-.8-1.8-2.8-2-4-.3-2.5,3.7-9.3-4-13s-27.3-3.2-28.7-2.8c-9.5,2.9,1.5,12.7,2.3,15.2,1.8,5.9-3.6,14.7,6.4,12.6-12.9,13.9-16.2,17.9-34,26,2.5-18.1-29.4-8.6-33.1-19.9s-1.9-20.2-11.9-20.1-6.9,5.4-10.3,5.7-17.2-7.9-20.5-5.5-5.3,20.2-7.2,23.8-6.3,3.6-7.9,6.1-.8,6.2-2,7.9c-5.2,7.5-19.6-4.2-21-11.1-2.5-12.8,6.4-39.4,4.1-47.7s-9-4.8-9.6-4.9c-2.9-.4-4.9,4.1-7.5,3.7-4.8-.8-.3-10.9-6.1-10.1s-8.9,6.9-14.7,6.3c-.4,10.6-6.4,18.7-4.3,29.7-2.4,2.8-9.8-10.4-10.7-12.2-3-5.8-3-18-11.2-15.7,4.8,8.6-1.7,12-3.2,18s-2.3,13.7-2.5,15.3c-.3,3,5.1,6.4,3.6,10.7-8.7-2.4-8.4-14.3-20.7-9.8-3.9,1.4-2.5,5.7-4,9.1s-2.9.7-3.2,2.1c-1.1,4.7.8,11.3-2.2,16.4-2.6,1.8-12.6-3.2-13.8-1.9s-1.1,23-2.3,26.7-7.5,4.1-8.9,9.2,2.8,13.4-1.1,15.8c-4.6,2.8-24.6-.4-25.6.4-2.4,2-1.1,27.5-14.1,3.9ZM1012.9,545.1c-6.6-7.6-23-15.1-24.9,0-2,16.2,7.2,12.3,13.4,17.4s4,10.4,16.5,7.4c3.1-9.3-17.2-11.5-6.4-17.5,5-2.8,8.1.3,1.4-7.4Z"/>
  <path class="st6" d="M604,924c12.4,47.3,41.4,114.7,73.9,151.1,24.5,27.3,104.3,86.9,139.5,92.5,27.3,4.3,46.5-17.4,74.5-7.5.7.8-5.6,13.3-6.8,14.2-4.8,3.7-14.8-.6-16.9,7.2s4.8,20.2,7.7,24.6c-4.3,13.4.2,17.4,14,16,3.2,3.2,8.3,7.3,12,10,.6,14.8,10.6,20.6,24,14,2.8,1,12.6,3.3,16,4l1,2,1-2c1.2.2,2.7-.1,4,0l10,16c-.4,7.7-1.3,12.3-8.2,16.8s-14.1,4-23.8,3.2c1.5-8.8-5.4-9-4,0-3.2-.4-6-1.7-8-2,.7-4.6-.8-5.6-4-2-1.8-.3-4.1,0-6,0,.5-5.1-4.9-3.7-5.6-9.4-.8-6,3.1-12.6-.3-17.4s-4.5,2.2-6,3.8c-8.6,9-21,22.3-13.8,35.8s18.8,16.2,22.3,17.7c5.4,2.4,19.7,1,15,9.2-1.8,3.1-14.3,4.7-13.6,10.3-5.4.6-13.3.3-18.7-.3-16.5-1.7-21.7-10.9-35.3.3s-5.8-1.9-4,6c-.7,0-12.9,5.2-14,4,1.6-3.9,2.5-20.6,3.8-22.6,2.1-3.2,13-5.3,16.2-8.4,1.4-4.6-10.7-11.8-13.1-17-4.8-1-6.9,12.8-9,16-2.8,2-11.9-11.6-14-2.9-1.4,5.6,8.7,8.1-.2,13.8-5.4,3.5-16.3,3.5-23.2,4.8s-11.4,6.6-14.7,2.3,4.5-7.9,3.7-12.5-5.8-14.2-6.3-14.9c-1.1-1.7-6.7-2.6-7.3-5.8s6-8.7,3.8-17.4c-.4-1.8-6-.8-3.8-6.2s8.9-4,7.9-8.1l-10-8c0-5.2,22.6-7.6,19.2-21s-7.3-3.7-9.9-4.6-16.5-5.9-17.3-6.3c-2.8-1.7-2.9-7.5-6.1-9.9s-21.8-8.3-23.8-6.9c-2,3.4-1.3,19.4-8.2,14.9s-4.4-19-7.8-23.8-19.1-5.1-6.8-8.9,14,2.4,18.6-3.4c0-5.9-13.5-1.7-15.8-5.1s2.2-8.5,1.6-10.7c-1-3.8-9.8-2.2-9.9-8.1s7.1-6,6.1-11c-10.2,5.1-16.2-1.3-23.2-2s-8.2,2.2-11.9,2.1c-10.3-.2-23.9.5-28-10.2-12.5.6-5.8,11.8-8.9,20.1,5.6,2,7.9-4.7,11.2-5.5s9.6,2.2,13.7-.6c5.4,13-17.1,10.8-19.2,13.3s-4.8,11.6-3.8,12.7,10.9-1.2,8,10.1c-29-4.5-14.4,3.1-13.8,17,.2,4.8-1.3,16.4-5.6,18.7-7.6,4-15.4-2.7-12.6,12.4,14-2.6,10.6,2.7,15.2,7.8,3.1,3.4,6.1,4.2,8.9,9.1s1.9,8.9,3.8,10.3,13.4-1.9,17.7,1.2,7.5,19,.4,19.6c-120.4-73.3-183.6-146.4-216-286,8-.7,4.9-.3,6.1,4.8s1.7,16.3,2.2,16.9,4.6,0,6.6,2.3,1.2,5.7,3,7.1c2.5,2.2,7.3-2.4,11.2-3,14.2-2.2,13.1,3.8,22.9,10.9,2.6,4.9-7.3,2.3-8,3s-.5,13.5,0,14c.8.8,9-.9,9.9,0s-1.9,13.4,8.8,9.7,3.2-5.5,5.3-6.7c3.1-1.9,13.5-2.4,17.9-5l-8,10.9c14.7,16.6,11.2-14.4,26.9-13,13.6,1.2-.5,13.5,5.1,17.1,4.3,2.8,23-2.6,14.7,7s-5,2.7-8,7.6-6.1,17.2-9.6,20.3c-6.4,5.6-13.5-4.2-11,12-13.3,3.6-3.8-11.1-16-12l8,34c-8.2-1.7-16.9,2.4-9.8,10.8,5.8,7,10.4,21.9,18.7,31.2s20.3,12,21.8,11.7,8.5-7.4,8.8-9c.8-4.1-5.1-20.1.3-23.9,10.1-7.1,9.1,8,10.3,9s15.9,0,16.7-.2c3.4-1.1,2.9-6.3,5.2-8.6s6.4-1.7,8.1-4.3c8-12.3-9.3-23.9-6.2-26.7s7.2,4.6,9.1,5.8c7.8,4.8,11.4.2,18.8-1.8,1.8-5.9-6.6-4.1-7.8-9.3s3.5-6.2,3.7-9.6-4.4-23.9-4.9-25-12.4-12.4-13.1-12.9c-4-2.6-14-2.2-15.5-3.5s-1.2-5.8-2.6-8.4-5.2-4.9-5.7-6.3c-1.9-4.8,6.4-1.7,7.8-6.2s-2.2-10.8.2-14.7l-10-3c16.8-5.5,5.4-14.1,6.6-25.8.6-5.8,8.6-12.8,9.3-22.5.5-6.9-2.6-12.7-2-19.7.7-8.2,5.8-16.2,6.1-28,.1-5.3-5.5-9.9,2-13ZM871.7,1220.3c-1.3-2.2-15.9-5-15.8,2.7.1,12.6,23.7,10.3,15.8-2.7Z"/>
  <path class="st11" d="M1260,672c2.6-.2,5.3,0,8,0,13.1-.3,29.3-.4,42,2s27.4,10.1,34,14c8.1,4.7,16.3,12.7,24,18v4c-5.4-.6-7.7-3.3-11.2-3.8-165.8-23.7-359.5,179.7-346.8,342.8.8,10.3,4.9,20.9,5,31-28.1-16.7-42-57.5-43.1-88.9-5.1-140.6,148.3-309.2,288.1-319.1Z"/>
  <path class="st4" d="M1366,728c8.3,3.8,18.9,26.2,22,35,23.8,66.8-13,144.5-50,199l-122-204c40.6-22,75-36.2,123.1-34.1,5.9.3,22.4,2,26.9,4.1Z"/>
  <path class="st6" d="M656,1286c7.1-.6.4-19-.4-19.6-4.3-3.1-15.7.3-17.7-1.2s-2-7.3-3.8-10.3c-2.8-4.9-5.8-5.7-8.9-9.1-4.6-5-1.2-10.3-15.2-7.8-2.7-15.1,5-8.3,12.6-12.4s5.8-13.8,5.6-18.7c-.6-13.8-15.2-21.4,13.8-17,2.9-11.2-6.8-8.8-8-10.1s2.6-11.3,3.8-12.7c2-2.5,24.6-.2,19.2-13.3-4.1,2.7-11.2,0-13.7.6s-5.6,7.4-11.2,5.5c3-8.3-3.7-19.6,8.9-20.1,4.1,10.8,17.7,10,28,10.2,3.7,0,7.5-2.5,11.9-2.1,7,.7,13,7.1,23.2,2,1,5-6.1,6.5-6.1,11s8.9,4.3,9.9,8.1-3.3,8.2-1.6,10.7,15.9-.8,15.8,5.1c-4.6,5.8-12.8,1.6-18.6,3.4-12.2,3.8,6,7.7,6.8,8.9,3.4,4.7-.1,18.7,7.8,23.8s6.3-11.5,8.2-14.9c2-1.4,21.4,5.2,23.8,6.9s3.3,8.2,6.1,9.9,14.5,5.3,17.3,6.3,7.6-4,9.9,4.6c3.5,13.5-19.1,15.8-19.2,21l10,8c1,4.1-6.6,5-7.9,8.1-2.2,5.4,3.4,4.4,3.8,6.2,2.1,8.7-4.1,15.9-3.8,17.4.6,3.2,6.2,4.1,7.3,5.8s6.1,14.1,6.3,14.9c.8,4.6-5.1,10.8-3.7,12.5,3.3,4.3,11.3-1.7,14.7-2.3,6.9-1.3,17.8-1.3,23.2-4.8,8.9-5.8-1.2-8.2.2-13.8,2.1-8.7,11.1,4.9,14,2.9,2.1-3.2,4.2-17,9-16,2.4,5.2,14.5,12.4,13.1,17-3.3,3.1-14.2,5.2-16.2,8.4s-2.2,18.7-3.8,22.6c1.1,1.2,13.3-4,14-4s3.5,1.5,4,2c1.8,1.6,4.4,6.9,6,8v12c-6.3.2-12.7-.4-19,0-3.2.2-2.8,1.9-3,1.9-2,0-4,0-6,0l-2-4c2.6-3.1,3.4-8.1,4-12-4.7-.4-10.1.9-14.6-.4s-5-6.7-9.4-5.6l-4,12c-7.9-2.6-13-5.1-20-8,8.8-15.7-13.2-7.1-14-8,3.9-13-6.7-10.2-8-12-2.9-4.1,13-16.1.6-19.7-9.9-2.9-7.4,6.7-10.5,8.8-4.9,3.3-12.7-3.6-12.1,10.9-7.1-2.8-13.4-3.8-20-6s-1.4.2-2,0c0-8.7-14.3-7.8-20-10-14.8-5.7-25-14.1-38-22ZM688,1164c3.3-3.3-5.1-12.7-8-5s7.1,5.8,8,5ZM672,1162c-2.2-2.2-6.2,1.8-4,4s6.2-1.8,4-4ZM684,1176h-6v4h6v-4ZM684,1198c13.2,3.3,12.1-12.7,3-10s-3.4,7-3,10ZM672,1228c-1.3-1.5-22.5-5.9-16,5.9h16c-.3-1.6.4-5.4,0-5.9ZM692,1228c-1.9.3-7.5-.5-8,0-4.1,4,7.5,20.1,8,0ZM664,1250h-8v6h8v-6ZM762,1254h-6v4h6v-4ZM756,1278c-1.8-1.9-11,2.8-10,7,2.2,9.4,12-4.9,10-7Z"/>
  <path class="st8" d="M735.4,1356.3l68.6,26.7-99,109c-23.3,16.1-62-15.9-54.1-42.1s15.5-22.7,20.1-27.9c19.8-23,45.3-41.9,64.4-65.7Z"/>
  <path class="st11" d="M1426,764c6.1,7.3,12.6,17.1,16,26,34.5,90-32.3,214.4-96.9,276.1-65.1,62.1-178,125.9-265.1,71.9l2-2c43.6,17.9,105.2,6.5,147.3-11.7,115.2-49.7,223.7-192.5,204.7-322.3-2.3-15.6-5.6-23.9-12-38h4Z"/>
  <path d="M1216,758l122,204c-5.9,8.6-11.5,15.9-18,24l-128-214c9.6-6.3,14.1-8.7,24-14Z"/>
  <path class="st10" d="M1418,818c12.9,140.4-142.6,309.3-285.1,310.1l-16.9-4.1c69.6-2.7,137.9-44.7,187.1-91.9,6.1-5.8,11.8-14.5,16.9-20.1s2.4.3,4-1.4c53.2-59.6,95.5-147.1,86-228.5,3,1.7,4.6,10.2,5.4,13.6,1.9,8.3,1.8,14.3,2.6,22.4Z"/>
  <path class="st8" d="M990,1176c6.2,5.8-44.3,50.3-46.1,58-19.1-8.9-36.3-23.2-47.7-41.3,14.7-20.8,30.4-40.9,48.7-58.6,4.5,21.3,22.7,40.2,45,42Z"/>
  <path class="st11" d="M1010.7,1134.7c-4.1,4.5-15.2,20.9-19.8,21.4-7.7.8-32.5-17.8-24-26.1,5.6-3.4,31.5-34.1,34.1-34.1s22.3,21.6,22.8,23.5c1.7,6.6-9.7,11.6-13.1,15.3Z"/>
  <path class="st11" d="M1082,1136l-2,2c-4.8-3-11-6-14-11,5.2-.5,12.9,7.8,16,9Z"/>
  <path class="st7" d="M900,1138c-2.4-.7-4.5-2-6-4"/>
  <path class="st7" d="M926,1286"/>
  <path class="st12" d="M826,1362c-3.6,0-5.1-1.9-6-2"/>
  <path class="st7" d="M888,1134"/>
  <path class="st7" d="M942,1250c.6.1,1.4-.1,2,0"/>
  <path class="st2" d="M368,786c-1.4,3.3-3.1,5.9-4,8l-1.7-1.2c.5-3.7,1.1-7.9,5.7-6.8Z"/>
  <path class="st2" d="M466,1278c-1.8,0-3.4,0-4,0l1-2,3,2Z"/>
  <path class="st7" d="M310,922"/>
  <path class="st10" d="M1426,764h-4c-1-2.2-4.2-5.4-3-8,3,2.1,4.8,5.2,7,8Z"/>
  <path d="M1310,674l1-10c3.3,1.3,15.4.4,17.1,1.1,3.2,1.5,4.6,8.3,7.9,9.9,8.8,4.2,12.6-5.4,8,13-6.6-3.9-27.1-12.7-34-14Z"/>
  <path d="M1258,658v2c-8.3,1-8.3-3,0-2Z"/>
  <path d="M845.5,648.5c32.4-4.1,70.5.8,94.6,24.4,7.7,7.6,27.8,34.7,10,40.3s-19.2-15.9-27-23.3c-40.5-37.7-104.1-15.6-142.9,13.2s-27.1,26.5-32.2,24c-8.2-4.2-1.7-14,1-19.2,15.3-29.6,64.2-55.4,96.5-59.5Z"/>
  <path d="M796,470c.2,1.2,2,3.2,2,4-1.1,30.1-33.8,50.7-59.5,59.5s-50.4,15.9-39.6-11.6c13.3-3.9,26.9-8.3,39.1-13.8,17.8-8.1,21.1-12.1,34-26s9.9-19.4,24-12Z"/>
  <path d="M904,504c-1.2-.8-3-1.2-4-2-7.2-5.8-24.4-24.8-15-34s22.7,9.9,29.2,14.9c7.8,5.9,20,11.9,29.4,14.6,8.8,2.5,36.2,2.2,32.1,17.1-6.2,22.5-59.3-1.8-71.7-10.6Z"/>
  <path d="M775.4,540.4c36.6-8.2,23.7,55.5-.5,59.5-41.3,6.7-24.3-53.9.5-59.5Z"/>
  <path d="M942,580c-.4.9-5.6,9.6-6,10s-2.8.2-4,1.1-1.8,2.8-2,2.9c-13,5.7-25.4,1.7-27.9-13.1-1-6.2,0-16.8,1.9-22.9s11.4-19,16-21c26.7-11.4,29.8,25.1,22,43Z"/>
  <path d="M859.5,694.5c8.5-1.1,26.9-.3,28.5,10.6,2.5,16.2-15.7,4.3-25,4.8-7.3.4-32.5,16-35.1,7-2.9-9.9,23.4-21.3,31.5-22.4Z"/>
  <path d="M971.2,698.1c12.2-3.6,12.4,27.8-3.4,36.7-7.4,4.2-26.8,6.3-30.9-2.9-5.1-11.3,13.3-9,19.1-10.9,13.1-4.1,8.5-21,15.1-23Z"/>
  <path d="M722,714c7-4.7,10.8,10.6,13,13.9,8.9,13,26,3.9,28.6,13.5,4,14.5-25.8,13.1-34.7,4.6-5.5-5.2-13.2-27.8-6.9-32Z"/>
  <path d="M808,474c.4-7.8-3.7-25.7,7.6-19.5,2.2,1.2,4.1,8.6,4.4,11.5s.6,12.7,0,16-1.9,3.8-2,4c-2.6,3.1-8,4.6-12,4-.8-5.5,1.7-10.7,2-16Z"/>
  <path class="st3" d="M534,1130"/>
  <polyline class="st1" points="630 900 630 908 626 908"/>
  <path d="M1184,1383c.7-2.3,7.8-5.5,10.6-4.7,16.1,4.1,4.2,55.9,14.4,67.7,17.9-5.3,17.7-61.6,39-51,13.3,6.7-8.9,54.9-16.3,63.7-9.5,11.2-29.7,13.9-39.7,2.3-1.2-1.4-8-13.2-8-14v-64Z"/>
  <path class="st3" d="M684,1198"/>
</svg>