<svg width="219" height="264" viewBox="0 0 219 264" fill="none" xmlns="http://www.w3.org/2000/svg">
<path d="M138.953 22.3965C138.947 22.2734 138.783 22.1496 138.748 22.0471C138.535 21.4235 137.656 20.5251 137.042 20.7451C136.428 20.9651 135.053 25.3298 137.386 25.5551C138.681 25.6805 139.003 23.3315 138.953 22.3965ZM168.252 31.4662C168.167 31.4352 168.064 31.41 167.975 31.3943C166.541 31.1502 166.812 31.7799 166.364 33.0479C166.246 33.3802 166.142 33.8076 166.076 34.1563C166.071 34.1876 165.985 34.0853 166.005 34.4338C166.014 34.6021 165.886 34.8384 166.002 35.0267C166.217 35.3786 166.407 35.3315 166.622 35.4804C166.687 35.5254 166.683 35.7169 166.785 35.7508C167.015 35.8265 167.103 35.6319 167.177 35.6242C168.756 35.4767 170.137 32.4756 168.809 31.6103L168.467 31.2271L168.254 31.4665L168.252 31.4662ZM176.744 37.5107C176.697 37.7324 176.491 38.2625 176.531 38.3424C176.557 38.3965 176.923 38.4351 177.084 38.4855C178.261 38.8587 178.762 38.6937 179.83 38.1637C184.434 35.8777 177.56 33.6244 176.744 37.5107ZM129.541 26.7604C128.986 26.1915 128.698 25.627 127.708 25.8382C125.813 26.243 127.833 29.9786 127.652 31.3174C130.508 32.2395 130.098 30.2976 129.736 28.2883C130.708 27.5305 129.97 27.1971 129.54 26.7586L129.541 26.7604ZM177.592 76.4793C177.649 72.5622 176.807 68.0539 175.898 64.2033C175.674 63.2525 174.645 59.0985 174.265 58.5884C173.93 58.1376 173.71 57.9237 173.115 57.8584C171.558 57.6888 167.001 63.7221 165.394 64.7359C165.133 64.9745 164.813 64.976 164.523 64.7959C163.561 64.2016 158.871 44.0319 157.6 43.248C156.589 42.6249 155.879 43.1516 155.32 44.0207C154.219 45.7311 152.779 49.8777 152.002 51.9576C151.522 53.244 151.378 54.6797 150.678 55.9004C150.28 55.5351 149.968 54.9523 149.716 54.4726C147.618 50.4753 146.024 45.8893 143.95 41.8907C143.379 40.791 141.908 37.3794 140.39 38.622C139.909 39.0155 139.604 41.3761 139.486 42.1686C138.502 48.8122 138.725 55.9211 137.705 62.5953C137.372 62.808 136.066 61.3433 135.77 61.0342C131.125 56.1712 127.086 49.9095 122.673 44.7781L121.196 44.1228C121.095 43.8303 121.097 43.9374 120.918 44.0509C119.93 44.6772 119.974 45.0307 119.792 46.2432C119.087 50.9487 120.843 63.2305 121.357 68.5775C121.773 72.9192 123.875 83.4873 123.331 87.1524C123.297 87.3805 123.258 87.6057 123.183 87.8216C121.053 87.5511 115.383 82.4611 115.468 87.3137C115.507 89.5427 119.871 98.4676 121.122 100.9C122.568 103.713 124.097 106.417 125.991 108.959C122.923 109.165 122.981 110.546 123.53 113.343C124.474 118.155 128.94 116.055 132.484 116.998C127.219 121.789 119.679 130.776 111.9 125.354C110.211 124.176 109.116 122.329 109.731 120.268C111.413 114.639 111.927 107.44 111.735 101.489C111.617 97.8407 110.309 92.1073 105.823 96.0405C105.165 93.2911 103.807 87.6397 100.428 87.2616C98.4569 87.0411 97.9208 89.0931 97.5998 90.6576C94.745 86.1978 90.7848 88.0097 91.6356 93.108C90.7882 93.482 90.0184 92.6934 88.8224 93.1045C87.8811 93.4291 87.8414 94.1309 87.4052 94.6263C86.825 95.2828 86.7926 94.0249 86.6225 93.7218C85.4444 91.6179 84.1919 89.4814 82.916 87.4351C78.9573 81.0816 71.2672 67.418 65.189 63.9203C65.1606 63.904 65.0967 63.6935 64.706 63.499C56.2701 59.3076 47.9835 65.168 44.5452 72.9537C39.041 85.4165 34.4568 98.6995 30.0565 111.61C30.0259 111.699 30.0153 111.797 29.9846 111.887C29.7108 112.693 29.6095 113.575 29.3384 114.381C29.332 114.401 29.0522 114.401 28.9891 114.587C28.926 114.774 28.9053 114.962 28.8453 115.142C28.7547 115.412 28.7192 115.703 28.63 115.973C28.5701 116.153 28.5466 116.347 28.4863 116.528C28.457 116.618 28.444 116.714 28.4144 116.805C28.237 117.347 28.1608 117.927 27.9835 118.469C27.8204 118.967 27.3865 119.836 27.1317 120.614C27.0731 120.794 27.0413 120.985 26.9879 121.168C26.7821 121.872 26.6148 122.528 26.243 123.169L26.4136 123.385C25.5312 125.534 25.1489 127.518 24.4843 129.689C24.4564 129.78 24.4406 129.875 24.4124 129.967C22.8542 135.101 21.6151 140.278 20.1135 145.417C20.1084 145.436 19.8225 145.426 19.7641 145.622C17.3343 153.841 14.1612 164.689 24.9217 168.547C29.7914 170.293 35.0438 169.47 40.0096 170.124C39.8321 177.741 40.7953 185.633 40.4734 193.224C40.0178 203.931 37.0671 217.023 38.194 227.455C38.4781 230.09 38.6984 231.325 41.5116 232.312C48.4297 232.082 57.8948 235.089 64.5274 234.264C65.3597 234.16 66.0855 234.067 66.5121 233.243C68.4145 229.563 62.3843 227.246 62.2063 224.602C62.8636 214.847 64.0048 205.106 64.4256 195.34C64.8244 186.103 64.3249 176.821 64.6557 167.618L70.826 167.127C70.9994 167.166 71.0732 169.195 71.0884 169.571C71.8774 187.707 70.1609 204.475 69.5144 222.415C69.386 225.979 69.685 229.47 69.6561 233.022C70.1682 233.456 70.5363 234.07 71.1782 234.357C74.456 235.82 88.4304 236.518 92.6751 236.596C96.0756 236.658 101.111 236.786 97.8388 231.824C97.135 230.758 94.0033 227.904 93.9807 227.288C93.9237 225.789 94.3797 223.834 94.4619 222.3C95.3411 205.981 95.9954 189.862 95.4982 173.531C95.4001 170.321 94.9737 167.059 95.1711 163.874C103.864 163.182 118.092 163.423 117.15 151.041C120.18 151.128 123.279 150.382 126.052 149.198C136.303 144.819 141.255 133.175 150.963 128.455C153.8 127.074 155.144 127.56 157.882 127.038C159.412 126.746 162.072 125.302 163.565 125.594C164.429 125.763 164.959 126.457 166.143 126.3C166.477 126.256 171.601 123.968 172.314 123.618C175.328 122.138 177.475 120.457 176.612 116.753L195.932 116.646C199.489 116.254 199.964 114.909 200.735 111.602C202.705 103.15 204.617 93.1003 205.672 84.5004C205.853 83.0314 206.548 78.6564 205.849 77.584C204.855 76.0563 202.694 76.2617 201.059 76.0559C200.859 76.0306 200.73 76.2637 200.71 76.2615C200.528 76.2425 200.334 76.13 200.155 76.1177C197.881 75.9607 196.554 75.9945 194.32 76.0033C193.805 76.0048 193.32 75.5592 193.276 76.4066C188.055 76.4646 182.798 76.3552 177.58 76.4806L177.592 76.4793ZM182.649 53.5349C182.483 53.2641 182.54 52.7946 182.108 52.548C180.117 51.4163 177.705 57.021 180.578 56.6534C181.098 56.5869 181.859 55.2104 182.361 54.6433C182.596 54.3783 183.042 54.3651 183.171 53.8198C183.243 53.5142 182.711 53.6355 182.649 53.5349ZM110.472 55.8359C109.783 55.8394 109.575 56.6367 109.525 57.2056C109.458 57.9715 109.894 58.0134 110.103 58.4021C110.131 58.4551 109.916 58.7578 110.019 58.9192C110.166 59.1482 110.706 59.0808 110.79 59.1722C111.263 59.681 111.867 61.805 112.572 62.2364C113.804 62.9894 115.184 62.3313 114.791 60.937C114.647 60.4276 111.939 56.3284 111.58 56.1231C111.598 55.6849 110.699 55.4343 110.472 55.8359ZM100.107 74.1512C99.8488 74.1375 99.5431 73.9577 99.2763 73.9359C99.1388 73.924 98.9948 74.0169 98.927 74.1415C98.3704 74.2327 98.5007 74.0725 97.9522 74.4811C97.8256 74.5756 97.6231 74.4832 97.8804 74.7586L97.7366 75.3135C97.4833 75.4225 97.6472 75.4872 97.6647 75.5909C97.6813 75.687 97.4818 75.9314 97.5999 76.0982C97.728 76.2779 97.9833 76.2241 98.0745 76.2892C98.8408 76.8282 98.4469 76.4745 98.9054 76.5045C99.7583 76.5611 102.394 76.837 102.809 76.1228C103.697 74.5913 101.572 74.1415 100.454 73.9481L100.105 74.1536L100.107 74.1512ZM104.048 80.2497C103.004 80.3361 102.76 81.8376 103.624 82.5367C104.127 82.9438 107.324 84.2769 107.814 83.8578C109.893 82.0855 105.365 80.1397 104.048 80.2497Z" fill="#385E39"/>
<path d="M201.069 76.0538C202.704 76.2582 204.865 76.0528 205.859 77.5819C206.556 78.6553 205.861 83.0289 205.682 84.4983C204.628 93.0985 202.716 103.148 200.745 111.599C199.974 114.907 199.498 116.253 195.942 116.644L176.621 116.751C177.484 120.455 175.338 122.135 172.323 123.616C171.609 123.966 166.485 126.254 166.153 126.298C164.969 126.455 164.44 125.761 163.575 125.592C162.08 125.299 159.421 126.744 157.892 127.036C155.156 127.557 153.81 127.072 150.973 128.453C141.264 133.173 136.311 144.817 126.062 149.196C123.29 150.38 120.19 151.126 117.16 151.039C118.103 163.421 103.875 163.178 95.1807 163.872C94.9833 167.057 95.4101 170.318 95.5078 173.529C96.005 189.86 95.3507 205.979 94.4715 222.298C94.3893 223.832 93.9319 225.786 93.9903 227.286C94.0143 227.902 97.1463 230.755 97.8484 231.822C101.121 236.784 96.0849 236.658 92.6847 236.594C88.44 236.516 74.4656 235.817 71.1878 234.355C70.5441 234.069 70.1778 233.454 69.6657 233.019C69.6929 229.469 69.3956 225.977 69.524 222.413C70.1705 204.472 71.887 187.705 71.098 169.569C71.0814 169.193 71.009 167.164 70.8356 167.125L64.6653 167.616C64.3345 176.819 64.8337 186.102 64.4352 195.337C64.0144 205.104 62.8715 214.846 62.2159 224.599C62.3925 227.243 68.4241 229.561 66.5217 233.241C66.0951 234.065 65.3703 234.16 64.537 234.262C57.9044 235.087 48.4393 232.08 41.5212 232.31C38.7083 231.322 38.4877 230.088 38.2036 227.453C37.0767 217.02 40.0288 203.929 40.483 193.222C40.8049 185.631 39.8417 177.739 40.0192 170.122C35.0534 169.468 29.801 170.291 24.9313 168.545C14.1687 164.689 17.3418 153.841 19.7716 145.623L20.121 145.417C21.6225 140.278 22.8617 135.101 24.4199 129.967L24.7277 129.899L24.4918 129.69C25.1564 127.518 25.5383 125.536 26.4211 123.386C26.6255 122.888 27.5956 121.995 26.9954 121.169C27.0488 120.986 27.0803 120.795 27.1392 120.614C28.0507 120.547 28.0961 119.177 27.991 118.469C28.1683 117.927 28.2445 117.347 28.4219 116.806L28.7297 116.737L28.4938 116.528C28.5537 116.348 28.5773 116.154 28.6375 115.973C29.0652 116.043 29.2603 115.289 28.8528 115.142C28.9128 114.962 28.9367 114.767 28.9966 114.587L29.3459 114.382C29.6173 113.574 29.7183 112.693 29.9921 111.887L30.3 111.819L30.064 111.61C34.4629 98.6995 39.0485 85.4168 44.5527 72.954C47.991 65.1683 56.2762 59.3075 64.7134 63.4993L65.1965 63.9205C71.2729 67.4193 78.9645 81.0833 82.9234 87.4354C84.198 89.4814 85.4519 91.6182 86.63 93.7221C86.8001 94.0252 86.8325 95.283 87.4127 94.6265C87.8503 94.1315 87.889 93.428 88.8299 93.1048C90.0259 92.6937 90.7957 93.4823 91.6431 93.1082C90.7927 88.0086 94.7528 86.1967 97.6073 90.6579C97.9283 89.0934 98.4644 87.0413 100.435 87.2618C103.815 87.64 105.172 93.2914 105.831 96.0408C110.317 92.1076 111.625 97.841 111.742 101.49C111.934 107.44 111.421 114.639 109.739 120.269C109.123 122.331 110.218 124.178 111.907 125.354C119.687 130.776 127.225 121.789 132.491 116.998C128.947 116.055 124.482 118.155 123.537 113.343C122.989 110.545 122.93 109.164 125.998 108.959C127.693 108.846 130.073 109.054 131.901 109.01C140.09 108.809 148.358 109.088 156.505 108.289C157.485 102.796 158.765 97.317 159.718 91.8171C160.065 89.8079 160.959 85.7877 160.866 83.9767C161.621 81.946 161.628 77.9892 163.975 77.0843C168.502 76.7858 173.065 76.5897 177.598 76.4806C182.816 76.3552 188.072 76.4643 193.294 76.4066C195.582 76.3806 197.901 76.4438 200.173 76.1177C200.352 76.13 200.545 76.2422 200.728 76.2615L201.077 76.0559L201.069 76.0538ZM158.311 114.373L197.061 113.755C197.531 113.405 197.76 112.909 197.901 112.355C198.387 110.448 198.562 107.804 198.978 105.827C200.834 97.0008 202.94 88.2069 203.531 79.186L165.023 79.4728C162.941 84.2732 162.829 89.6594 161.909 94.7488C161.265 98.3095 160.365 101.856 159.742 105.422C159.223 108.384 158.927 111.423 158.308 114.372L158.311 114.373ZM87.7479 115.023C85.3463 118.464 82.3249 121.515 79.2877 124.404C78.2442 125.398 75.3864 127.309 74.721 128.22C74.2491 128.865 74.2558 130.273 73.7007 130.479C72.3639 130.976 66.2009 127.674 64.8985 126.702C63.7812 125.866 64.3661 124.368 65.421 124.365C66.6435 124.36 69.9114 126.928 71.47 127.295C72.3712 127.508 76.8993 123.167 77.8139 122.299C80.5429 119.708 86.6556 113.576 88.2101 110.427C90.4469 105.897 85.7467 97.6797 83.5245 93.6577C80.3097 87.8389 69.1051 68.9243 64.0435 66.1251C62.1325 65.0675 59.9076 64.3415 57.7198 64.5978C54.4235 64.9844 49.1995 69.4177 47.7037 72.3285C45.4381 76.7363 43.0205 83.5592 41.1552 88.3475C33.7972 107.229 28.5097 125.706 22.8744 145.109C21.4531 150.001 18.8129 154.769 20.1055 160.11C22.2456 168.952 34.7023 166.737 41.4767 167.542C41.9494 167.672 42.0703 168.079 42.2031 168.487C42.7905 170.288 42.67 176.215 42.7556 178.496C42.9341 183.196 43.2562 188.718 43.0574 193.353C42.6083 203.881 40.1947 215.008 40.6089 225.568C40.7397 228.898 40.7712 229.405 44.1881 230.032C48.7146 230.863 57.6424 231.613 62.2755 231.626C62.7962 231.628 63.3381 231.787 63.7987 231.415C64.2301 230.59 59.1848 226.773 59.5686 225.218C61.7264 205.656 62.3758 186.082 61.9808 166.453C62.1294 165.697 62.7668 165.453 63.4589 165.37L80.6976 163.486C82.1262 163.64 82.4047 165.136 81.0881 165.79C79.8039 166.427 76.0019 166.154 74.3658 166.738C74.0119 166.864 73.7058 166.977 73.6073 167.391C73.3702 176.409 74.1035 185.469 73.8817 194.479C73.5782 206.839 71.3783 219.192 72.3664 231.549C72.7356 232.57 76.0174 232.77 77.1271 232.91C81.8426 233.502 88.3214 234.002 93.0548 234.028C96.1739 234.046 96.5319 234.081 94.327 231.546C93.3139 230.382 91.6447 229.546 91.498 228.044C92.6616 206.285 94.026 184.459 92.3064 162.716C92.3299 162.322 92.5378 162.028 92.8198 161.774C94.0784 160.636 107.075 160.961 111.09 158.484C116.031 155.437 114.922 150.135 112.769 145.755C111.474 143.122 108.339 138.905 107.514 136.398C106.776 134.16 108.865 133.585 109.933 135.442L116.742 148.127C130.121 149.214 136.373 135.317 145.895 128.606C147.121 127.742 149.624 126.242 150.976 125.663C152.535 124.994 154.731 124.895 156.027 124.267C156.722 123.93 157.1 123.327 157.866 123.003C159.68 122.236 160.988 122.953 162.561 121.001C163.208 120.197 164.555 117.483 163.372 117.151L137.162 116.959C129.332 122.113 121.696 134.502 110.793 127.89C109.604 127.169 109.059 125.938 107.799 125.543C104.666 131.173 99.3113 135.678 94.545 139.95C90.351 143.71 82.4883 151.18 77.1941 152.381C68.0462 154.458 60.2093 149.972 52.2125 146.389C51.1501 145.912 46.3734 144.27 46.1776 143.598C45.4472 141.086 49.2634 142.538 50.4904 142.939C60.6587 146.26 70.4891 154.931 81.5706 147.443C87.3204 143.557 98.8651 133.303 103.238 127.974C108.138 122.003 109.987 107.855 109.087 100.236C109.024 99.7076 108.456 96.6381 107.646 97.6096C106.602 98.8624 106.234 102.695 105.582 104.417C104.926 106.151 103.994 105.445 102.528 106.007C101.478 106.408 98.4151 109.168 97.9489 107.019C97.474 104.829 103.343 103.603 103.572 102.777C104.086 100.929 102.814 93.0356 101.705 91.4249C101.366 90.9329 100.929 90.5726 100.319 90.4812C99.7487 90.7864 100.961 100.609 100.256 102.132C99.8255 103.061 98.465 103.146 97.9845 102.304C97.6476 101.713 97.2298 97.0634 96.8376 95.6975C96.5145 94.5731 95.6053 91.963 94.6086 91.3703C94.1829 91.1164 94.1763 91.313 94.0804 91.6775C93.5189 93.8163 95.5983 99.7095 95.6435 102.272C95.6768 104.161 94.2567 104.996 93.2543 103.443C92.7967 102.735 91.5784 94.9982 89.715 96.0136C88.9202 96.4472 91.0061 104.589 91.1521 105.854C91.5384 109.22 90.8088 112.162 90.2541 115.457C88.7657 116.894 88.9237 115.844 87.7503 115.025L87.7479 115.023ZM156.183 111.159L126.71 111.572C125.518 111.83 126.027 114.373 127.448 114.035C136.127 113.832 145.504 115.123 154.107 114.613C154.454 114.592 155.524 114.64 155.664 114.379C156.098 113.566 155.709 112.069 156.184 111.159L156.183 111.159ZM174.06 117.322C173.745 116.997 172.148 116.649 171.81 117.175C171.378 117.849 171.652 120.288 171.031 121.217C171.283 121.729 173.878 119.844 174.104 119.423C174.31 119.038 174.254 117.524 174.06 117.324L174.06 117.322ZM164.42 122.757C164.583 123.008 165.132 122.879 165.453 122.719C166.06 122.416 168.395 120.527 168.761 119.961C170.202 117.732 169.368 116.123 166.728 116.9C165.811 117.17 165.955 119.648 165.511 120.826C165.34 121.279 164.357 122.659 164.42 122.758L164.42 122.757Z" fill="#1C3D54"/>
<path d="M121.198 44.1202L122.676 44.7755C127.089 49.9083 131.127 56.17 135.773 61.0316C136.067 61.3404 137.373 62.8051 137.707 62.5928C138.726 55.9182 138.504 48.8096 139.488 42.166C139.606 41.3735 139.911 39.0129 140.392 38.6194C141.91 37.3783 143.382 40.7884 143.952 41.8882C146.027 45.8867 147.621 50.4713 149.719 54.4701C149.97 54.9498 150.283 55.5325 150.681 55.8978C151.38 54.6754 151.524 53.2397 152.005 51.955C152.78 49.8747 154.222 45.7286 155.322 44.0181C155.882 43.1477 156.591 42.6223 157.602 43.2454C158.875 44.0296 163.564 64.1991 164.526 64.7933C164.817 64.9724 165.137 64.9709 165.397 64.7333C167.004 63.7196 171.559 57.6858 173.118 57.8559C173.713 57.9211 173.932 58.135 174.267 58.5859C174.647 59.0973 175.676 63.2513 175.901 64.2007C176.808 68.0509 177.652 72.5597 177.595 76.4768C173.062 76.5858 168.499 76.7805 163.972 77.0804C161.626 77.9857 161.618 81.9421 160.862 83.9728C160.832 83.3772 158.86 76.7271 158.603 76.3808C158.222 75.8663 157.506 75.5296 156.885 75.8128C155.732 76.3386 151.823 89.172 150.318 91.001C146.135 84.32 142.739 77.0005 137.61 70.9805C134.974 69.5989 135.787 76.3896 135.866 77.6583C136.281 84.294 137.824 90.8507 138.079 97.5118C137.916 98.2897 136.938 97.9341 136.441 97.7714C134.828 97.2425 130.398 93.4286 129.225 95.517C128.893 96.1075 129.671 101.057 129.887 102.085C130.383 104.451 131.391 106.651 131.897 109.007C130.069 109.052 127.689 108.844 125.995 108.957C124.101 106.414 122.574 103.711 121.126 100.898C119.875 98.4653 115.512 89.5395 115.472 87.3115C115.387 82.4589 121.057 87.5489 123.187 87.8194C123.262 87.6035 123.301 87.3782 123.335 87.1502C123.879 83.4851 121.777 72.917 121.361 68.5753C120.849 63.2286 119.091 50.9465 119.796 46.241C119.978 45.0299 119.934 44.675 120.922 44.0487L121.2 44.1206L121.198 44.1202ZM172.224 67.1415C171.16 67.2093 169.819 71.4244 170.965 71.8176C172.547 72.3608 173.311 70.3159 173.621 69.0846C173.901 67.9771 173.485 67.0598 172.224 67.1401L172.224 67.1415ZM151.187 68.4967C148.59 68.1954 149.833 75.1774 152.006 73.1039C152.523 72.6102 152.571 68.6569 151.187 68.4967ZM130.906 77.1429C130.659 77.113 130.044 77.2541 129.87 77.4222C129.076 78.1905 130.162 82.2648 131.518 82.2443C134.245 82.2033 132.072 77.2807 130.906 77.1429Z" fill="#F8A43D"/>
<path d="M111.582 56.1232C111.94 56.3285 114.649 60.4277 114.792 60.9371C115.186 62.3315 113.806 62.9895 112.574 62.2366C111.869 61.8051 111.266 59.6815 110.792 59.1724C110.761 58.7453 110.516 58.5058 110.105 58.4022C109.896 58.0136 109.459 57.9712 109.527 57.2058C109.576 56.6368 109.784 55.8395 110.474 55.836C110.64 55.8347 111.44 56.042 111.582 56.1232Z" fill="#EF6839"/>
<path d="M129.542 26.7603C129.17 27.3999 129.666 27.8924 129.737 28.29C130.1 30.2979 130.51 32.2399 127.653 31.3191C127.834 29.9804 125.814 26.2447 127.709 25.84C128.699 25.6287 128.985 26.1929 129.543 26.7621L129.542 26.7603Z" fill="#EF6839"/>
<path d="M104.047 80.2498C105.365 80.1411 109.894 82.0859 107.814 83.8578C107.324 84.277 104.127 82.9439 103.624 82.5367C102.76 81.8377 103.004 80.3361 104.047 80.2498Z" fill="#EF6839"/>
<path d="M98.9065 76.5019L98.0755 76.2866C97.9829 76.2212 97.7287 76.2767 97.601 76.0956C97.4828 75.9288 97.6824 75.6844 97.6658 75.5883L97.953 74.4799C98.5025 74.073 98.3711 74.2315 98.9277 74.1403C99.053 74.1195 99.1762 74.0152 99.277 73.9347C99.5452 73.9568 99.8509 74.1367 100.108 74.15C100.337 74.162 100.438 73.9408 100.457 73.9444C101.575 74.1392 103.7 74.589 102.812 76.1192C102.397 76.8334 99.7611 76.5575 98.9083 76.5009L98.9065 76.5019Z" fill="#EF6839"/>
<path d="M177.082 38.4863C177.183 38.0802 177.11 37.734 176.742 37.5116C177.558 33.6253 184.433 35.8785 179.829 38.1646C178.76 38.696 178.26 38.8596 177.082 38.4863Z" fill="#EF6839"/>
<path d="M138.748 22.047L138.953 22.3964C139.003 23.3314 138.681 25.6804 137.386 25.555C135.054 25.3283 136.422 20.9664 137.042 20.745C137.662 20.5237 138.535 21.4234 138.748 22.047Z" fill="#EF6839"/>
<path d="M168.807 31.6104C170.136 32.4758 168.756 35.4772 167.175 35.6243L166.62 35.4805C166.406 35.3316 166.216 35.3787 166 35.0268C165.885 34.8385 166.013 34.6008 166.003 34.4339L166.075 34.1564C166.14 33.8077 166.245 33.3804 166.362 33.048L167.973 31.3944C168.063 31.4101 168.166 31.4353 168.251 31.4663C168.425 31.5307 168.688 31.5336 168.806 31.6101L168.807 31.6104Z" fill="#EF6839"/>
<path d="M182.649 53.5349L182.362 54.6433C181.86 55.2091 181.099 56.587 180.578 56.6535C177.706 57.0211 180.117 51.4164 182.108 52.5481C182.541 52.7933 182.484 53.2641 182.649 53.5349Z" fill="#EF6839"/>
<path d="M200.166 76.116C197.895 76.4425 195.575 76.3789 193.287 76.4049C193.331 75.5576 193.815 76.0028 194.33 76.0016C196.565 75.9942 197.891 75.959 200.166 76.116Z" fill="#DBCCAC"/>
<path d="M27.1372 120.615C27.3923 119.836 27.8262 118.967 27.989 118.47C28.0941 119.178 28.0484 120.549 27.1372 120.615Z" fill="#3D6140"/>
<path d="M167.976 31.3951L166.365 33.0487C166.813 31.7821 166.543 31.151 167.976 31.3951Z" fill="#DBCCAC"/>
<path d="M129.542 26.76C129.971 27.1985 130.71 27.5319 129.737 28.2896C129.666 27.8921 129.17 27.3995 129.542 26.76Z" fill="#DBCCAC"/>
<path d="M26.4192 123.387L26.2487 123.171C26.6209 122.528 26.7877 121.873 26.9936 121.17C27.5934 121.997 26.6237 122.889 26.4192 123.387Z" fill="#3D6140"/>
<path d="M182.649 53.5349C182.711 53.6369 183.243 53.5156 183.171 53.8198C183.042 54.3651 182.596 54.3783 182.361 54.6433L182.649 53.5349Z" fill="#DBCCAC"/>
<path d="M177.082 38.4868C176.922 38.4364 176.556 38.3965 176.53 38.3438C176.491 38.2642 176.697 37.7341 176.742 37.5121C177.109 37.7359 177.183 38.082 177.082 38.4868Z" fill="#DBCCAC"/>
<path d="M110.792 59.1727C110.708 59.0813 110.168 59.1486 110.021 58.9197C109.917 58.7596 110.132 58.4556 110.105 58.4025C110.516 58.5047 110.76 58.7456 110.792 59.1727Z" fill="#DBCCAC"/>
<path d="M111.581 56.1236C111.44 56.0424 110.639 55.835 110.473 55.8364C110.7 55.4348 111.6 55.6858 111.581 56.1236Z" fill="#DBCCAC"/>
<path d="M98.9063 76.5019C98.4477 76.4719 98.8416 76.8257 98.0753 76.2866L98.9063 76.5019Z" fill="#DBCCAC"/>
<path d="M28.6358 115.975C28.725 115.705 28.7605 115.413 28.8511 115.144C29.2586 115.291 29.0634 116.044 28.6358 115.975Z" fill="#3D6140"/>
<path d="M65.1938 63.9238L64.71 63.502C65.1 63.6964 65.1654 63.9076 65.1938 63.9238Z" fill="#DBCCAC"/>
<path d="M168.808 31.6104C168.692 31.5342 168.427 31.5309 168.253 31.4664L168.466 31.2267L168.808 31.6104Z" fill="#DBCCAC"/>
<path d="M167.176 35.624C167.103 35.6303 167.014 35.8252 166.784 35.7508C166.683 35.7172 166.686 35.5251 166.62 35.48L167.176 35.624Z" fill="#DBCCAC"/>
<path d="M97.6642 75.589C97.6463 75.4866 97.4828 75.4206 97.7361 75.3115L97.6642 75.589Z" fill="#DBCCAC"/>
<path d="M97.8795 74.7566C97.6218 74.4826 97.8247 74.5736 97.9513 74.4791L97.8795 74.7566Z" fill="#DBCCAC"/>
<path d="M138.953 22.3962L138.748 22.0469C138.782 22.149 138.947 22.2731 138.953 22.3962Z" fill="#DBCCAC"/>
<path d="M29.9903 111.889C30.0209 111.799 30.0315 111.701 30.0621 111.611L30.2981 111.821L29.9903 111.889Z" fill="#3D6140"/>
<path d="M28.9946 114.588C29.0577 114.402 29.3375 114.402 29.3439 114.383L28.9946 114.588Z" fill="#3D6140"/>
<path d="M100.107 74.1515L100.457 73.9459C100.437 73.9423 100.337 74.1635 100.107 74.1515Z" fill="#DBCCAC"/>
<path d="M28.42 116.807C28.4493 116.717 28.4623 116.621 28.4919 116.529L28.7279 116.738L28.42 116.807Z" fill="#3D6140"/>
<path d="M200.72 76.2599C200.74 76.2621 200.867 76.0286 201.069 76.0543L200.72 76.2599Z" fill="#DBCCAC"/>
<path d="M121.198 44.1205L120.92 44.0486C121.099 43.9351 121.097 43.828 121.198 44.1205Z" fill="#DBCCAC"/>
<path d="M24.4187 129.967C24.4465 129.877 24.4623 129.782 24.4905 129.69L24.7265 129.899L24.4187 129.967Z" fill="#3D6140"/>
<path d="M19.7715 145.623C19.8294 145.427 20.1144 145.436 20.1208 145.417L19.7715 145.623Z" fill="#DBCCAC"/>
<path d="M166.005 34.4327C165.986 34.0842 166.072 34.1878 166.077 34.1552L166.005 34.4327Z" fill="#DBCCAC"/>
<path d="M98.9272 74.1417C98.9947 74.0185 99.139 73.9242 99.2766 73.9361C99.1775 74.0156 99.0539 74.1212 98.9272 74.1417Z" fill="#DBCCAC"/>
<path d="M87.7477 115.023C88.9211 115.842 88.7617 116.892 90.2515 115.455C90.8065 112.159 91.5358 109.218 91.1495 105.852C91.0049 104.588 88.918 96.4438 89.7124 96.0116C91.5758 94.9962 92.7945 102.732 93.2517 103.441C94.2545 104.993 95.6742 104.159 95.6409 102.27C95.5957 99.7075 93.5163 93.8143 94.0778 91.6756C94.1723 91.3107 94.1803 91.1144 94.606 91.3683C95.6023 91.9624 96.5116 94.5725 96.835 95.6955C97.2276 97.06 97.645 101.711 97.9819 102.302C98.4624 103.145 99.8229 103.059 100.253 102.13C100.957 100.605 99.7461 90.7844 100.317 90.4792C100.927 90.5706 101.363 90.9323 101.702 91.4229C102.811 93.0336 104.084 100.925 103.569 102.775C103.339 103.601 97.4714 104.827 97.9463 107.017C98.4111 109.165 101.474 106.406 102.525 106.005C103.991 105.443 104.924 106.151 105.579 104.415C106.232 102.693 106.6 98.8605 107.644 97.6077C108.454 96.6361 109.022 99.7056 109.085 100.234C109.984 107.853 108.135 122.001 103.235 127.972C98.8622 133.303 87.3174 143.557 81.568 147.441C70.4865 154.929 60.6544 146.259 50.4878 142.937C49.2608 142.536 45.4446 141.084 46.175 143.596C46.3708 144.269 51.1472 145.912 52.2099 146.387C60.207 149.969 68.0439 154.455 77.1915 152.379C82.4857 151.178 90.3484 143.708 94.5424 139.948C99.3087 135.676 104.665 131.172 107.797 125.541C109.056 125.936 109.602 127.169 110.79 127.888C121.695 134.5 129.329 122.111 137.159 116.957L163.369 117.149C164.552 117.481 163.205 120.195 162.559 120.999C160.985 122.952 159.678 122.234 157.864 123.001C157.096 123.326 156.717 123.929 156.025 124.265C154.728 124.893 152.532 124.992 150.973 125.661C149.621 126.242 147.119 127.74 145.893 128.604C136.37 135.316 130.118 149.214 116.739 148.125L109.931 135.44C108.862 133.583 106.774 134.158 107.511 136.396C108.336 138.903 111.472 143.12 112.766 145.753C114.918 150.131 116.028 155.435 111.088 158.482C107.071 160.958 94.0754 160.635 92.8172 161.772C92.5352 162.026 92.3273 162.32 92.3038 162.714C94.0234 184.457 92.659 206.283 91.4954 228.042C91.6421 229.544 93.3127 230.381 94.3244 231.544C96.5297 234.077 96.1717 234.042 93.0522 234.026C88.3188 234 81.84 233.5 77.1245 232.908C76.0148 232.768 72.7343 232.568 72.3638 231.547C71.3757 219.19 73.5756 206.837 73.8791 194.477C74.1005 185.469 73.3676 176.407 73.6047 167.389C73.7032 166.975 74.0107 166.862 74.3632 166.736C75.9976 166.153 79.8013 166.425 81.0855 165.788C82.4018 165.136 82.1236 163.638 80.695 163.484L63.4563 165.368C62.7642 165.451 62.1278 165.696 61.9782 166.451C62.3732 186.08 61.7238 205.654 59.566 225.216C59.1836 226.772 64.2275 230.588 63.7961 231.413C63.3358 231.784 62.7939 231.624 62.2729 231.624C57.6401 231.609 48.712 230.861 44.1855 230.03C40.7686 229.403 40.7371 228.896 40.6063 225.566C40.1924 215.005 42.6057 203.879 43.0548 193.351C43.2522 188.716 42.9315 183.194 42.753 178.495C42.6657 176.214 42.7879 170.286 42.2005 168.485C42.0677 168.077 41.9471 167.669 41.4741 167.54C34.6993 166.737 22.243 168.95 20.1029 160.108C18.8103 154.767 21.4519 149.999 22.8718 145.107C28.5071 125.704 33.7946 107.227 41.1526 88.3455C43.0193 83.5576 45.4355 76.7343 47.7011 72.3265C49.1965 69.4171 54.4209 64.9824 57.7172 64.5958C59.9064 64.3399 62.1295 65.0669 64.0409 66.1232C69.1039 68.9227 80.3071 87.8369 83.5219 93.6557C85.7441 97.6778 90.4443 105.895 88.2075 110.425C86.653 113.574 80.5403 119.706 77.8113 122.297C76.8967 123.165 72.3686 127.506 71.4674 127.293C69.9088 126.927 66.6409 124.358 65.4184 124.363C64.3635 124.366 63.7786 125.864 64.8959 126.7C66.1966 127.673 72.3613 130.974 73.6981 130.477C74.2532 130.271 74.2465 128.863 74.7184 128.218C75.3838 127.307 78.2419 125.395 79.2851 124.402C82.3209 121.513 85.3437 118.462 87.7453 115.021L87.7477 115.023ZM68.3412 89.0313C66.9403 89.1303 66.8941 94.914 69.5696 93.9121C70.3841 93.608 71.0619 88.8377 68.3412 89.0313ZM57.7899 91.0394C55.4308 90.8027 55.9954 94.7891 57.0661 95.6157C59.8621 97.7716 59.9438 91.2569 57.7899 91.0394ZM60.6151 104.442C59.7224 99.0366 57.1535 102.895 55.4802 103.109C54.8907 103.184 55.1958 102.018 54.6938 101.458C54.3502 101.076 54.0473 100.925 53.5251 100.947C52.2438 101.001 47.6047 105.142 49.6987 106.065C51.3359 106.785 52.085 104.42 52.4883 104.4C53.5562 104.347 52.8835 105.589 53.7003 106.276C55.6926 107.951 57.678 104.574 58.04 104.667C58.6418 106.087 58.4555 107.589 60.4625 107.585C61.6874 107.583 66.016 104.171 64.0222 103.245C62.376 102.479 61.9491 104.001 60.6182 104.441L60.6151 104.442ZM100.475 122.683C101.948 121.816 100.61 119.197 99.12 120.182C97.6355 121.164 98.8944 123.613 100.475 122.683Z" fill="#3D6140"/>
<path d="M158.311 114.373C158.93 111.423 159.226 108.385 159.744 105.423C160.369 101.857 161.268 98.3121 161.912 94.7497C162.832 89.6603 162.943 84.2737 165.026 79.4737L203.533 79.1868C202.943 88.2078 200.835 97.0013 198.98 105.828C198.565 107.805 198.39 110.451 197.904 112.356C197.762 112.908 197.532 113.405 197.064 113.756L158.314 114.374L158.311 114.373ZM187.674 94.9802C187.395 94.3528 187.628 93.5026 187.189 92.5614C185.597 89.154 179.43 89.3906 177.196 91.9753C176.317 92.9911 176.843 93.5197 176.512 94.3681C176.287 94.9463 175.293 95.4067 174.939 96.1204C173.009 100.016 175.82 103.858 180.025 103.967C180.681 103.983 182.803 103.789 183.637 103.718C186.529 103.473 189.404 100.234 188.909 97.1905C188.709 95.9633 187.961 95.626 187.675 94.9833L187.674 94.9802Z" fill="#DBCCAC"/>
<path d="M131.895 109.007C131.39 106.65 130.381 104.451 129.885 102.085C129.67 101.055 128.891 96.1076 129.223 95.5171C130.396 93.4288 134.826 97.244 136.439 97.7715C136.936 97.9343 137.914 98.2912 138.077 97.512C137.822 90.8508 136.28 84.2945 135.865 77.6584C135.785 76.3897 134.974 69.5994 137.608 70.9806C142.737 77.0006 146.132 84.3215 150.316 91.0012C151.822 89.1722 155.729 76.3402 156.883 75.813C157.506 75.5288 158.221 75.8664 158.601 76.381C158.858 76.7273 160.83 83.3773 160.861 83.973C160.954 85.784 160.062 89.8045 159.713 91.8133C158.76 97.3147 157.48 102.792 156.5 108.285C148.353 109.085 140.085 108.805 131.896 109.006L131.895 109.007ZM155.216 94.3446C155.458 94.2268 156.003 94.4271 156.176 94.0991C157.623 91.3711 153.815 89.8649 152.909 91.8373C152.324 93.1114 152.555 94.422 154.002 94.8296C155.171 95.159 155.146 94.3784 155.215 94.346L155.216 94.3446ZM151.487 98.1661C148.536 98.0071 150.521 103.538 153.028 102.801C154.88 102.256 153.43 98.2699 151.487 98.1661ZM142.658 99.1297C140.722 99.0263 140.111 101.579 141.589 102.719C144.238 104.765 146.156 99.3149 142.658 99.1297Z" fill="#EF6839"/>
<path d="M156.183 111.159C155.707 112.069 156.098 113.566 155.662 114.378C155.522 114.641 154.452 114.593 154.105 114.613C145.502 115.121 136.126 113.83 127.447 114.035C126.025 114.373 125.518 111.83 126.708 111.571L156.181 111.158L156.183 111.159Z" fill="#DBCCAC"/>
<path d="M164.42 122.757C164.357 122.659 165.339 121.278 165.511 120.825C165.956 119.646 165.811 117.169 166.728 116.899C169.368 116.122 170.2 117.73 168.761 119.96C168.395 120.527 166.061 122.417 165.453 122.718C165.132 122.878 164.584 123.008 164.42 122.755L164.42 122.757Z" fill="#3D6140"/>
<path d="M174.06 117.323C174.254 117.523 174.31 119.037 174.104 119.422C173.878 119.844 171.283 121.728 171.031 121.216C171.651 120.287 171.378 117.848 171.81 117.174C172.146 116.649 173.744 116.995 174.061 117.321L174.06 117.323Z" fill="#3D6140"/>
<path d="M130.906 77.1434C132.072 77.2812 134.244 82.2052 131.518 82.2448C130.162 82.2652 129.076 78.191 129.87 77.4227C130.044 77.2546 130.659 77.1149 130.906 77.1434Z" fill="#EF6839"/>
<path d="M172.223 67.1418C173.485 67.0601 173.9 67.9775 173.62 69.0863C173.309 70.3172 172.545 72.3621 170.964 71.8193C169.819 71.4265 171.16 67.2113 172.223 67.1432L172.223 67.1418Z" fill="#EF6839"/>
<path d="M151.188 68.4971C152.57 68.6584 152.521 72.6117 152.006 73.1043C149.834 75.1769 148.591 68.1945 151.188 68.4971Z" fill="#EF6839"/>
<path d="M60.615 104.442C61.9458 104.002 62.3728 102.48 64.019 103.245C66.0128 104.172 61.6859 107.582 60.4592 107.586C58.4523 107.59 58.6385 106.088 58.0368 104.668C57.6747 104.574 55.6894 107.952 53.6971 106.277C52.8802 105.59 53.553 104.347 52.4851 104.401C52.0817 104.421 51.3323 106.788 49.6955 106.066C47.6012 105.144 52.2405 101.002 53.5218 100.948C54.0441 100.926 54.3473 101.076 54.6906 101.459C55.1926 102.019 54.8875 103.185 55.477 103.109C57.1503 102.896 59.7205 99.0378 60.6119 104.443L60.615 104.442Z" fill="#1C3D54"/>
<path d="M57.79 91.0394C59.9442 91.2555 59.8622 97.7716 57.0663 95.6157C55.9951 94.7904 55.4309 90.8027 57.79 91.0394Z" fill="#1C3D54"/>
<path d="M68.3413 89.0312C71.0617 88.8389 70.3842 93.6079 69.5697 93.912C66.8945 94.9125 66.9404 89.1302 68.3413 89.0312Z" fill="#1C3D54"/>
<path d="M100.475 122.683C98.8941 123.613 97.6356 121.163 99.1198 120.182C100.61 119.197 101.946 121.816 100.475 122.683Z" fill="#1C3D54"/>
<path d="M187.674 94.9803C187.961 95.623 188.708 95.9602 188.908 97.1875C189.403 100.232 186.528 103.471 183.636 103.715C182.802 103.786 180.681 103.981 180.025 103.964C175.819 103.857 173.009 100.013 174.939 96.1174C175.292 95.4037 176.286 94.9433 176.512 94.3651C176.843 93.5167 176.318 92.9884 177.195 91.9723C179.429 89.389 185.596 89.151 187.188 92.5584C187.627 93.4995 187.395 94.3498 187.674 94.9771L187.674 94.9803ZM177.222 99.9554C177.461 100.398 178.708 101.405 179.21 101.405C179.712 101.404 180.389 100.598 181.102 100.577C181.995 100.549 182.326 101.229 183.255 101.1C184.111 100.981 185.891 99.7276 186.225 98.898C187.112 96.6998 184.385 96.7218 184.424 95.1211C184.438 94.5165 185.095 94.1832 184.717 93.554C183.877 92.1565 179.787 92.1981 179.25 94.0589C180.466 94.3933 181.105 96.1488 179.736 96.6898C179.116 96.9347 177.936 96.5371 177.414 97.1319C176.869 97.756 176.844 99.2535 177.222 99.954L177.222 99.9554Z" fill="#1C3D54"/>
<path d="M151.487 98.1655C153.43 98.2693 154.88 102.257 153.028 102.8C150.522 103.536 148.536 98.0065 151.487 98.1655Z" fill="#1C3D54"/>
<path d="M142.659 99.1296C146.157 99.3165 144.238 104.766 141.59 102.719C140.111 101.577 140.721 99.0258 142.659 99.1296Z" fill="#1C3D54"/>
<path d="M155.216 94.3445C155.148 94.3773 155.172 95.1578 154.002 94.828C152.555 94.4205 152.323 93.1095 152.909 91.8358C153.816 89.8633 157.623 91.3709 156.177 94.0975C156.003 94.427 155.458 94.2252 155.216 94.3431C157.017 93.4478 154.948 89.6624 153.508 92.0411C152.548 93.6238 154.096 94.8997 155.216 94.3431L155.216 94.3445Z" fill="#3D6140"/>
<path d="M177.222 99.9551C176.844 99.2547 176.869 97.7572 177.414 97.133C177.934 96.5379 179.116 96.9359 179.736 96.6909C181.105 96.1499 180.465 94.3944 179.249 94.0601C179.785 92.1988 183.877 92.1576 184.717 93.5551C185.094 94.1843 184.438 94.5176 184.423 95.1223C184.385 96.7229 187.111 96.701 186.225 98.8992C185.891 99.7274 184.11 100.982 183.255 101.101C182.324 101.23 181.992 100.552 181.102 100.578C180.39 100.6 179.703 101.406 179.21 101.406C178.717 101.405 177.461 100.399 177.221 99.9565L177.222 99.9551Z" fill="#DBCCAC"/>
<path d="M155.216 94.3441C154.096 94.9008 152.549 93.6234 153.507 92.0421C154.948 89.6648 157.017 93.4502 155.216 94.3441Z" fill="#1C3D54"/>
</svg>
