<?xml version="1.0" encoding="UTF-8"?>
<svg id="Livello_2" data-name="Livello 2" xmlns="http://www.w3.org/2000/svg" viewBox="0 0 400.54 617.72">
  <defs>
    <style>
      .cls-1 {
        fill: #f5f1df;
      }

      .cls-2 {
        fill: #f4efde;
      }

      .cls-3 {
        fill: #1a364e;
      }

      .cls-4 {
        fill: #3a5e3d;
      }

      .cls-5 {
        fill: #bd5e4a;
      }

      .cls-6 {
        fill: #193a51;
      }
    </style>
  </defs>
  <g id="Livello_1-2" data-name="Livello 1">
    <g>
      <path class="cls-3" d="M353.53,328.59c-2.84-.72-7,.57-9.88,1.11.4,13.5,3.42,26.93,4.88,40.4,4.07,37.55,5.66,75.38,9.9,112.92.74,1.05,7.75-.21,8.02-.5.3-.32.91-6.09,1.91-8.6,3.93-9.85,12.63-19.04,23.17-21.33,7.43,4.35,2.7,15.55,8,22-1.84,7.83-7.06,12.12-15,14-16.26,3.85-39.07,3.02-56,5,1.72-5.84-8.52-1.38-8-6,2.95-.42,5.76-1.6,9.01-1-4.32-51.26-7-102.92-14.11-153.89l-120.9,11.89c5.31,38.04,8.47,76.37,11.63,114.66.92,11.09,1.19,22.05,2.37,33.34-4.23-.29-2.08-6.51-8-5-3.59-44.58-5.67-95.68-13.27-139.28-.9-5.14-8.8-2.43-12.71-1.68l13.97,153.46.95,2.07c.76.6,2.11.52,3.06.42l-1,8c-20.9,2.67-37.11,2.82-58,2,.55-5.4,5.28-1.61,5-7-.18-3.37-2.17-6.3-2.74-9.76-3.37-20.5-3.43-42.93-5.27-63.73-1.72-19.55-5.17-40.61-5.98-60.02-.98-23.31,4.49-28.19,26.62-31.36,11.78-1.69,23.81-2.12,35.37-4.13,3.6.21,7.87.18,11.49-.01,29.02-1.49,60.39-5.97,89.51-8.99,4.68-.49,9.68-1.54,14-2,15.45-1.64,31.03-2.68,46.52-3.97,1.77-.15,3.44-.36,4.48-2.03,2.14,1.24.55,6.73,1,9ZM335.52,330.6h-12c6.07,51.44,9.95,103.33,14,155,3.63-.56,7.99-.5,11.52-1.01,1.46-.21,1.63.61,1.49-1.49l-15.02-152.49ZM167.54,347.58c-11.28-1.81-8.21,3.63-11.51,11-3.77,8.42-13.35,17.94-22.38,20.11,1.99,32.72,5.73,65.48,8.01,98.27l.85,1.15c11.29,2.05,20.52,8.76,26.85,18.15,4,5.95,1.03,8.73,11.19,7.33l-13-156.01ZM150.53,348.59c-13.81-.5-21.56,8.46-17.99,22,9.2-2.41,16.89-12.74,17.99-22ZM392.53,460.59c-9.35,2.42-16.82,11.44-17.99,20.99,15.39.1,19.94-5.88,17.99-20.99ZM164.53,504.58c-3.87-9-12.19-16.33-21.99-17.98-1.15,14.68,7.66,22.18,21.99,17.98Z"/>
      <path class="cls-3" d="M134.53,329.59c13.24-1.83,26.65-3.69,40-3.99v-6.01c-30.42-.49-72.45-6.01-95.05-28.45-2.44-2.43-14.63-16.3-8.31-18.43,5.63-1.9,9.14,7.12,12.31,10.43,12.23,12.78,32.96,20.44,50.01,23.99,4.16.87,30.65,4.96,32.04,3.47.84-.9-2.3-6.7,4.41-5.99,4.45.47,18.38,8.87,24.31,10.77,6.15,1.97,11.28,3.16,17.21-.36,5.48-3.26,6.96-8.8,6.01-14.86-.6-3.83-7.91-10.38-3.99-13.12,5.37-3.76,9.59,3.92,11.11,8.01,1.21,3.25,1.22,12.97,5.15,6.25,8.59-14.67-8.23-31.02-20.53-36.87-18.99-9.03-39.83-12.28-59.34-22.66-4.46-2.37-18.23-8.55-16.21-14.53,1.87-5.54,10.27,2.46,12.34,2.43.8-.01.68-2.43,2.16-2.96,6.92-2.45,6.86,7.18,10,9.78,2.44,2.02,12.51,5.46,16.14,6.86,14.33,5.5,37.02,10.15,48.72,19.28,2.82,2.2,9.47,10.72,12.04,10.98.91.09,6.78-1.07,7.48-1.51.65-.41,5.57-10.8,7.59-13.41,1.9-2.44,5.53-6.08,7.89-8.11,5.6-4.79,19.47-10.61,21.09-16.91.58-2.24,1.14-12.02,2.56-12.93.81-.52,5.04-.31,5.93.3,2.24,1.54.38,7.26-.06,9.56.95.91,15.27-10.42,11.9,2.36-16.53,14.36-47.81,23.49-49.94,49.1-.5,6.03.01,15.75,7.03,17.54-1.32-7.26-.79-13.28,2.47-20.03,1.93-3.99,7.78-12.4,12.85-9.04,5.62,3.73-3.51,9.92-5.16,12.72-3.46,5.88-3.61,15.18,1.82,19.88,5.6,4.84,10.32,3.25,17.03,3.47,1.23.04,2.73,1.38,5.41.99,5.05-.74,4.45-5.03,6.59,2.01-10.43,3.23-15.51,10.5,0,9,.05.4,4.02,3.81,3,6-3.49.86-9.44,1.38-13,1s-4.71-.74-6.66-4.07c-23.3,4.3-47.46,3.74-70.83,7.08-8.01,1.14-5.41,1.35-9.98,5.02-2.55,2.05-9.99,2.35-13.54,2.96-7.72-.44-5.41-1.54-10.03-3.47-3.62-1.51-32.59,2.82-37.97,4.47,1.71-6.61-3.68-4.44-4-8ZM241.53,280.59c-7.18-1.34-3.25,4.58-1.98,9,3.31-1.48,1.68-6.17,1.98-9ZM271.53,315.58c-4.51-6.82-12.31-3.6-18.35-7.14-4.1-2.4-7.79-10.64-12.14-9.91-2.8.47-4.01,6.86-5.68,9.39-5.38,8.15-12.2,4.79-16.83,12.66l53-5ZM183.68,329.45c2.1,1.3,12.29.45,10.82-4.28-.54-1.72-9.72-3.87-11.96-4.57-.12,1.72-.07,8.1,1.14,8.86Z"/>
      <path class="cls-5" d="M208.53,492.59c-1.19-11.29-1.45-22.25-2.37-33.34-3.17-38.29-6.32-76.62-11.63-114.66l120.9-11.89c7.11,50.96,9.79,102.63,14.11,153.89-3.24-.61-6.05.57-9.01,1-35.95,5.13-72.5,7.09-108.5,12.04l-2.51-.03c.81-2.53-.8-5.14-1-7.01Z"/>
      <path class="cls-4" d="M191.53,510.59c2.34-.3,4.6-1.1,7-1v80.5c0,1.24,18.49,16.24,16,18.49-23.56.71-47.06-1.3-70.48-2.01l-10.04-1.96c-4.88-19.39-3.06-39.69-3.43-59.57-.05-2.61-1.02-5.06-1.09-7.91-.2-8.17.25-16.39.04-24.55,1.33.02,2.67-.05,4,0,20.89.82,37.1.67,58-2Z"/>
      <path class="cls-4" d="M311.53,496.59c-.39,23.81.53,47.72.05,71.54-.08,3.98-1.72,7.37-.98,11.91,1.13,6.92,15.23,11.88,15.93,20.55-26.73.03-53.47-2.4-79.88-6.1l.33-89.96,64.56-7.93Z"/>
      <path class="cls-5" d="M353.53,328.59c.33.08,1.7,1.55,2,2,1.66,2.54,2.22,5.73,4.59,8.91,5.79,7.78,11.33,10.89,20.41,13.09.75.18,1.47.72,3,1,1.68,5.57,1.45,11.67,2.08,17.41.09.81.9,1.4.92,1.59,2.71,26.52,3.1,53.41,5,80-10.55,2.29-19.25,11.48-23.17,21.33-1,2.51-1.61,8.28-1.91,8.6-.28.29-7.29,1.56-8.02.5-4.25-37.53-5.84-75.37-9.9-112.92-1.46-13.47-4.48-26.9-4.88-40.4,2.88-.54,7.04-1.83,9.88-1.11Z"/>
      <path class="cls-5" d="M119.53,339.6c-9.8,10.23-8.03,23.42-8.04,36.53l11.03,125.46c-10.77-3.79-13.58-5.55-15.7-16.79-4.66-24.79-4.54-50.58-6.3-75.7-.94-13.36-3.5-27.8-4.03-40.97-.76-18.89,3.89-25.46,23.04-28.53Z"/>
      <path class="cls-5" d="M192.53,502.59c-.95.09-2.3.17-3.06-.42l-.95-2.07-13.97-153.46c3.91-.75,11.81-3.46,12.71,1.68,7.6,43.6,9.68,94.69,13.27,139.28.34,4.19,1.85,8.43.86,12.86-.24.39-7.82,2.04-8.86,2.14Z"/>
      <path class="cls-5" d="M186.53,336.59c-11.56,2.01-23.59,2.44-35.37,4.13-22.13,3.18-27.59,8.05-26.62,31.36.81,19.41,4.26,40.47,5.98,60.02,1.84,20.81,1.89,43.23,5.27,63.73.57,3.46,2.56,6.39,2.74,9.76-9.72.59-8.93-7.05-9.88-14.62-3.35-26.72-4.05-54.92-6.13-81.87-1.12-14.45-8-48.29-.83-59.84,3.5-5.63,10.62-9.76,16.84-11.66,5.37-1.65,34.35-5.98,37.97-4.47,4.63,1.93,2.31,3.03,10.03,3.47Z"/>
      <path class="cls-5" d="M186.53,336.59c3.54-.62,10.99-.91,13.54-2.96,4.57-3.68,1.97-3.88,9.98-5.02,23.37-3.34,47.53-2.78,70.83-7.08,1.95,3.33,2.93,3.67,6.66,4.07v2c-29.12,3.02-60.49,7.5-89.51,8.99-3.62.19-7.89.22-11.49.01Z"/>
      <path class="cls-3" d="M312.53,299.59c-.08-5.36-3.15-3.18-5.57-4.91-1.78-1.27-1.84-5.04-4.43-6.09,1.09-1.9.4-7.25,4.51-8.02,10.39-1.96,2.93,10.48,3.49,11.02,16.92-2.44,28.72-14.63,30.89-31.6.58-4.53-2.11-14.56,4.63-14.36,1.12.03,3.47,1.91,3.47,2.47v16c0,6.28-7.37,19.53-11.96,24.04-8.17,8.02-15.04,8.78-25.04,11.46Z"/>
      <path class="cls-3" d="M120.53,511.59c.35.25,2.76-.29,3.56.92,1.77,2.71.38,10.46.4,13.54.11,22.13.78,45.05.04,67.09-.06,1.93,1.02,4.01-2,3.45-3.66-27.94,1.38-56.99-2-85Z"/>
      <path class="cls-3" d="M363.53,331.59c1.03.61,3.5,5.15,4.95,6.55,2.5,2.4,9.27,6.97,12.56,7.46,2.36.35,1.37-1.34,1.49-3,1.4-.97,9,2.37,6.99,3.99-7.32-.06-8.15-1.77-8.99,6.01-9.08-2.2-14.63-5.31-20.41-13.09-2.36-3.18-2.93-6.37-4.59-8.91.02-1.76,7.47.69,8,1Z"/>
      <path class="cls-5" d="M341.53,317.59c1.32.08,2.7-.15,4,0,.16.02,2.09.76,3,1,1.08.29,3.3.59,4,1-1.03,1.67-2.71,1.88-4.48,2.03-15.5,1.29-31.08,2.33-46.52,3.97v-1c3.85-1.16,4.29-5.28,9-6,7.7-1.17,23.07-1.46,31-1Z"/>
      <path class="cls-5" d="M382.53,342.59c-.12,1.66.87,3.36-1.49,3-3.29-.49-10.06-5.06-12.56-7.46-1.46-1.4-3.92-5.94-4.95-6.55-1.63-2.16-1.12-3.53,1.5-3.99,10.1-1.78,18.22,4.66,17.5,14.99Z"/>
      <path class="cls-3" d="M310.53,318.59c-.52-2.01,2.45-3.36,3.77-3.72,4.04-1.09,17.67-3.21,21.02-1.56,1.84.91,2.09,2.98,2.35,3.14.71.43,4.54-2.94,3.87,1.14-7.93-.46-23.3-.17-31,1Z"/>
      <path class="cls-5" d="M297.53,309.59c1.63,5.36-.27,7.07,0,9-15.51,1.5-10.43-5.77,0-9Z"/>
      <path class="cls-3" d="M383.53,353.59c1.46.27,3.33-.4,4.86.13.98.62.23,12.97.14,15.42-.07,1.92,1.02,4.01-2,3.45-.02-.19-.83-.78-.92-1.59-.63-5.74-.4-11.84-2.08-17.41Z"/>
      <path class="cls-3" d="M388.53,330.59c.3.22,1.81-.25,2,0,2.12,2.82-3.88,5.47-6.8,3.78-.82-.48-5.46-8.12-1.2-8.78,1.86,1.51,4.34,3.76,6,5Z"/>
      <path class="cls-4" d="M300.53,324.59c.32-.08.7.09,1,0v1c-4.32.46-9.32,1.51-14,2v-2c3.56.38,9.51-.14,13-1Z"/>
      <path class="cls-2" d="M361.53,246.59c-1.11-1.85-2.02-4.39-3-6"/>
      <path class="cls-3" d="M345.53,317.59c-.53-3.55,4.18-2.96,3,1-.91-.24-2.84-.98-3-1Z"/>
      <path class="cls-2" d="M216.53,13.59c-.75-.66-1.59-1.68-2-2"/>
      <path class="cls-2" d="M234.53,36.59l-1-2"/>
      <path class="cls-1" d="M93.53,430.59c.05.66-.05,1.34,0,2"/>
      <path class="cls-1" d="M92.53,415.59c.04.66-.04,1.34,0,2"/>
      <path class="cls-5" d="M167.54,347.58l13,156.01c-10.16,1.41-7.18-1.38-11.19-7.33-6.33-9.4-15.56-16.1-26.85-18.15l-.85-1.15c-2.28-32.79-6.02-65.55-8.01-98.27,9.03-2.17,18.61-11.69,22.38-20.11,3.3-7.37.22-12.81,11.51-11Z"/>
      <path class="cls-5" d="M335.52,330.6l15.02,152.49c.14,2.11-.03,1.28-1.49,1.49-3.54.51-7.89.45-11.52,1.01-4.05-51.67-7.93-103.56-14-155.01h12Z"/>
      <path class="cls-5" d="M164.53,504.58c-14.34,4.19-23.14-3.31-21.99-17.98,9.8,1.66,18.12,8.98,21.99,17.98Z"/>
      <path class="cls-5" d="M150.53,348.59c-1.09,9.26-8.78,19.59-17.99,22-3.58-13.53,4.17-22.49,17.99-22Z"/>
      <path class="cls-5" d="M392.53,460.59c1.95,15.11-2.6,21.09-17.99,20.99,1.17-9.55,8.64-18.57,17.99-20.99Z"/>
      <path class="cls-3" d="M183.78,137.84c3.44-3.41,10.46,1.87,14.49,2.51,2.98.47,7.78.58,10.77.25,5.13-.57,14.34-7.01,17.51-3.52,7.4,8.16-16.56,12.63-21.51,12.61-4.33-.02-29.08-4.09-21.25-11.84Z"/>
      <path class="cls-3" d="M169.79,115.32c-3.7-3.32-3.98-18.75,4.01-17.56,8.71,1.29,5.2,25.84-4.01,17.56Z"/>
      <path class="cls-3" d="M228.29,112.34c-2.55,2.55-7.58.9-8.55-2.47-.84-2.92-1.19-13.02,2.5-14.12,8.67-2.57,8.87,13.76,6.05,16.58Z"/>
      <path class="cls-3" d="M241.28,142.34c-6.95,6.94-12.92-14.94-6.05-16.64,5.78-1.44,3.29,6.23,3.73,7.94.62,2.42,5.56,5.47,2.33,8.71Z"/>
      <path class="cls-3" d="M171.14,128.67c7.74-2.58,6.96,17.68-1.08,16.99-5.8-.5,0-6.4.29-7.8.45-2.17-2.75-8.01.8-9.19Z"/>
      <path class="cls-4" d="M271.53,315.58l-53,5c4.63-7.87,11.45-4.51,16.83-12.66,1.67-2.53,2.88-8.92,5.68-9.39,4.35-.73,8.04,7.5,12.14,9.91,6.04,3.54,13.84.32,18.35,7.14Z"/>
      <path class="cls-5" d="M183.68,329.45c-1.21-.75-1.26-7.13-1.14-8.86,2.24.71,11.43,2.85,11.96,4.57,1.47,4.73-8.73,5.58-10.82,4.28Z"/>
      <path class="cls-4" d="M241.53,280.59c-.3,2.84,1.33,7.52-1.98,9-1.27-4.42-5.19-10.34,1.98-9Z"/>
      <path class="cls-6" d="M92.53,415.59c-.33-5.32-.52-10.69-1-16-.08-.92.55-2.85-.59-3.02-12.83,1.32-25.56,1.68-38.41,2.02-6.73.18-13.54-.24-20,0-7.61-4.06-16.1-7.39-22-14-.12-.13-1.42-2.19-2-3-11.74-16.41-9.63-41.45-4-60,.92-3.02,2.76-6.42,4-10,1.53-4.41,3.34-8.66,5-13,1.32-3.45,2.64-7.67,4-11,3.72-9.13,7.97-18.01,12-27,1.12-2.49,2.7-5.07,4-8,2.17-4.87,7.45-15.24,8-20,3.07-5.47,5.66-11.17,8-17,3.78-9.42,6.87-19.32,11-29,1.42-3.33,3.43-7.37,5-11,2.89-6.7,6.03-13.33,9-20,2.01-4.51,3.95-9.48,6-14,5.56-12.26,11.84-26.14,18-39,1.16-2.43,2.75-5.4,4-8,3.67-7.61,7.24-15.45,11-23,2.7-5.42,6.23-11.58,9-17,3.72-7.26,7.45-16.84,12-24,.49-.78,3.77-5.71,4-6,3.79-4.68,17.69-16.3,23-19,1.05-.53,12.31-4.88,13-5,13.83-2.37,29.04,2.62,40,11,.41.32,1.25,1.34,2,2,4.9,4.29,14.62,19.56,17,21l1,2c.04,1.51.8,1.56,1,2,1.6,3.57,4.31,6.14,6,9,3.84,6.48,8.03,12.61,12,19,1.01,1.63,1.97,3.34,3,5,4.53,7.3,9.67,14.84,14,22,.31.51.55,1.26,1,2,.99,1.65,2.02,3.35,3,5,1.59,2.68,3.67,5.7,5,8,4.12,7.15,7.72,14.78,12,22,.77,1.31.46,4.19,3,5,.03,2.76,2.07,4.17,3,6,1.35,2.67,2.68,4.6,4,7,4.49,8.16,9.17,15.96,14,24,.67,1.12,1.42,2.05,2,3,1.63,2.67,3.35,5.33,5,8,.15.24-.15.76,0,1,7.36,11.9,15.71,23.13,23,35,.24.39.79.66,1,1,3.96,6.44,8.01,13.43,12,20,.98,1.61,1.89,4.15,3,6,1.84,3.07,4.42,6.3,6,9,.94,1.61,2.13,3.51,3,5,3.58,6.13,7.54,12.74,11,19,.97,1.75,2.1,3.24,3,5,8.13,15.86,14.31,32.17,11.92,50.42-.68,5.19-4.87,10.21-5.01,15.08-.36,12.51,4.02,32.35,5.09,45.5.61,7.44,2,17.62,2,24.5v15c0,2.94.83,8.68,1,12.5s.93,7.12,1,11c.02,1.33,0,2.67,0,4,.02,4.8.09,7.39-1,12-5.3-6.45-.57-17.65-8-22-1.9-26.59-2.29-53.48-5-80,3.02.56,1.93-1.53,2-3.45.09-2.45.83-14.8-.14-15.42-1.53-.53-3.4.14-4.86-.13s-2.25-.82-3-1c.85-7.78,1.68-6.06,8.99-6.01,2-1.62-5.59-4.96-6.99-3.99.72-10.33-7.4-16.78-17.5-14.99-2.61.46-3.13,1.83-1.5,3.99-.53-.31-7.98-2.76-8-1-.3-.45-1.67-1.92-2-2-.45-2.27,1.14-7.76-1-9-.7-.41-2.92-.71-4-1,1.18-3.96-3.53-4.55-3-1-1.3-.15-2.68.08-4,0,.67-4.08-3.15-.71-3.87-1.14-.26-.16-.51-2.23-2.35-3.14-3.35-1.65-16.98.47-21.02,1.56-1.32.36-4.28,1.71-3.77,3.72-4.71.72-5.15,4.84-9,6-.3.09-.68-.08-1,0,1.02-2.19-2.95-5.6-3-6-.27-1.93,1.63-3.64,0-9-2.13-7.04-1.54-2.74-6.59-2.01-2.68.39-4.18-.95-5.41-.99,1.94-2.44,5.22-3.04,7.42-5.08,1.31-1.21,8.57-11.15,9.58-12.92,2.59,1.05,2.65,4.82,4.43,6.09,2.43,1.73,5.5-.46,5.57,4.91-.48.13-1.71,1.16-2.92,1.57-1.12.37-3.86.29-4.04.47-.51.51.27,8.2-.05,9.97,19.2-1.63,36.8-4.42,55.51,1.98,8.81,3.01,14.83,6.63,21.49,12.01-4.26.66.38,8.31,1.2,8.78,2.91,1.69,8.91-.96,6.8-3.78-.19-.25-1.7.22-2,0,1.05-16.25-7.36-31.73-14.83-45.67-19.87-37.1-45.29-72.01-66.98-108.02-17.28-28.69-32.24-58.66-49.78-87.22-10.99-17.9-38.66-66.1-54.75-75.25-24.57-13.97-50.26,4.39-62.21,26.12-36.04,65.53-63.98,137.97-93.28,206.72-12.08,28.34-38.3,74.38-38.17,104.83.07,17.4,12.14,35.51,30.49,37.51,16.15,1.76,35.23-1.66,51.51-2-.47-14.05-6.06-31.23,2.99-43.5s27.26-12.6,41-14.5c.32,3.56,5.71,1.39,4,8-6.22,1.91-13.34,6.03-16.84,11.66-7.17,11.55-.28,45.39.83,59.84,2.08,26.95,2.78,55.15,6.13,81.87.95,7.57.15,15.21,9.88,14.62.28,5.39-4.45,1.6-5,7-1.33-.05-2.68.01-4,0,.2,8.16-.24,16.38-.04,24.55.07,2.85,1.04,5.3,1.09,7.91.38,19.88-1.45,40.17,3.43,59.57l10.04,1.96c23.43.71,46.92,2.72,70.48,2.01,2.5-2.26-16-17.26-16-18.49v-80.5c-2.4-.1-4.66.7-7,1l1-8c1.04-.1,8.62-1.76,8.86-2.14.99-4.42-.52-8.67-.86-12.86,5.92-1.51,3.77,4.71,8,5,.2,1.87,1.81,4.47,1,7.01l2.51.03c36-4.95,72.55-6.91,108.5-12.04-.52,4.62,9.72.16,8,6-2.16.25-5.31,2.16-7.9,2.11-.35,1.27-.03,2.6-.1,3.89-1.29,25.34,1.03,51.15-.98,76.48.66,3.43,6.84,6.95,8.98,9.52.57.68,3.77,4.65,4,5,.95,1.45,3.74,7.04,3.95,8.58,1.77,12.67-11.69,10.23-19.95,10.42-2.32.05-4.68.03-7,0-15.64-.22-33.84-1.33-49.37-3.13-6.01-.69-17.64-1.56-21.09-6.91-1.63-2.54-2.37-10.85-2.58-14.42-1.57-25.93,1.25-53.45.05-79.55-3.24.13-28.81,2.14-29.06,3.58l.08,76.9c4.43,6.39,21.66,18.04,15.42,27.47-2.99,4.52-8.87,3.85-13.44,4.05-6.26.28-12.72.04-19,0-7.75-.05-16.12-1-23.5-1h-18c-6.09,0-16.3-3.28-21.5-3-1.54-4.44-3.05-7.42-4-12-.36-1.71-.77-3.24-1-5,3.02.56,1.94-1.53,2-3.45.74-22.04.06-44.96-.04-67.09-.01-3.08,1.38-10.83-.4-13.54-.79-1.21-3.21-.67-3.56-.92-.13-.1.17-1.89-1.66-2.8-1.02-.5-5.13-1.29-6.34-1.2-.34-2.7-5.37-4.36-8-7-.6-.6-1.41-.88-2-1.75-5.78-8.58-8.03-51.66-9-64.25-.05-.66.05-1.34,0-2s.05-1.34,0-2M119.53,339.6c-19.15,3.07-23.8,9.64-23.04,28.53.53,13.17,3.09,27.61,4.03,40.97,1.76,25.11,1.64,50.91,6.3,75.7,2.11,11.24,4.93,13,15.7,16.79l-11.03-125.46c.01-13.11-1.75-26.3,8.04-36.53ZM311.53,496.59l-64.56,7.93-.33,89.96c26.41,3.7,53.16,6.13,79.88,6.1-.7-8.67-14.81-13.63-15.93-20.55-.74-4.53.9-7.93.98-11.91.48-23.82-.44-47.72-.05-71.54Z"/>
      <path class="cls-4" d="M388.53,330.59c-1.66-1.24-4.14-3.49-6-5-6.66-5.38-12.55-14.61-21.49-12.01-50.23,14.61-40.57-.79-55.51-1.98.32-1.76-.46-9.45.05-9.97.18-.18,2.93-.1,4.04-.47,1.21-.4,2.43-1.44,2.92-1.57,10-2.68,16.87-3.44,25.04-11.46,4.59-4.51,11.96-17.76,11.96-24.04v-16c0-.55-2.35-2.44-3.47-2.47-6.75-.19-4.05,9.83-4.63,14.36-2.17,16.97-13.97,29.16-30.89,31.6-.56-.54,6.89-12.97-3.49-11.02-4.11.77-3.42,6.12-4.51,8.02-1.02,1.77-8.27,11.71-9.58,12.92-2.2,2.04-5.48,2.64-7.42,5.08-6.71-.22-11.43,1.37-17.03-3.47-5.43-4.7-5.28-14-1.82-19.88,1.65-2.81,10.79-9,5.16-12.72-5.07-3.36-10.92,5.04-12.85,9.04-3.26,6.75-3.78,12.77-2.47,20.03-7.02-1.79-7.54-11.51-7.03-17.54,2.13-25.61,33.41-34.74,49.94-49.1,3.37-12.78-10.95-1.45-11.9-2.36.44-2.3,2.3-8.01.06-9.56-.89-.61-5.12-.83-5.93-.3-1.42.92-1.99,10.7-2.56,12.93-1.62,6.3-15.49,12.12-21.09,16.91-2.37,2.02-5.99,5.67-7.89,8.11-2.03,2.6-6.94,13-7.59,13.41-.7.43-6.56,1.6-7.48,1.51-2.57-.25-9.21-8.77-12.04-10.98-11.7-9.13-34.4-13.78-48.72-19.28-3.64-1.4-13.71-4.84-16.14-6.86-3.14-2.6-3.08-12.23-10-9.78-1.48.52-1.36,2.94-2.16,2.96-2.07.03-10.47-7.96-12.34-2.43-2.02,5.99,11.76,12.16,16.21,14.53,19.51,10.38,40.35,13.63,59.34,22.66,12.3,5.85,29.12,22.2,20.53,36.87-3.93,6.72-3.94-3-5.15-6.25-1.52-4.09-5.74-11.77-11.11-8.01-3.92,2.74,3.39,9.29,3.99,13.12.96,6.06-.53,11.61-6.01,14.86-5.93,3.52-11.06,2.33-17.21.36-5.93-1.9-19.85-10.29-24.31-10.77-6.71-.71-3.57,5.09-4.41,5.99-1.39,1.49-27.88-2.6-32.04-3.47-17.06-3.55-37.78-11.2-50.01-23.99-3.17-3.32-6.68-12.33-12.31-10.43-6.32,2.13,5.87,16.01,8.31,18.43,22.6,22.43,64.63,27.96,95.05,28.45v6.01c-13.36.31-26.76,2.16-40.01,3.99-13.74,1.9-31.96,2.25-41,14.5s-3.46,29.45-2.99,43.5c-16.29.35-35.36,3.76-51.51,2-18.36-2-30.42-20.11-30.49-37.51-.13-30.45,26.1-76.49,38.17-104.83,29.3-68.75,57.25-141.19,93.28-206.72,11.95-21.73,37.64-40.09,62.21-26.12,16.09,9.15,43.76,57.35,54.75,75.25,17.54,28.56,32.5,58.53,49.78,87.22,21.69,36.01,47.11,70.92,66.98,108.02,7.47,13.95,15.88,29.42,14.83,45.67ZM228.29,112.34c2.81-2.82,2.62-19.16-6.05-16.58-3.69,1.1-3.34,11.2-2.5,14.12.97,3.37,6,5.02,8.55,2.47ZM169.79,115.32c9.22,8.28,12.72-16.27,4.01-17.56-7.99-1.19-7.71,14.24-4.01,17.56ZM241.28,142.34c3.24-3.23-1.71-6.29-2.33-8.71-.44-1.71,2.05-9.37-3.73-7.94-6.86,1.7-.89,23.59,6.05,16.64ZM171.14,128.67c-3.55,1.18-.35,7.02-.8,9.19-.29,1.4-6.09,7.3-.29,7.8,8.05.69,8.82-19.56,1.08-16.99ZM183.78,137.84c-7.82,7.75,16.92,11.82,21.25,11.84,4.95.02,28.91-4.44,21.51-12.61-3.17-3.49-12.38,2.96-17.51,3.52-2.99.33-7.78.23-10.77-.25-4.03-.64-11.05-5.92-14.49-2.51Z"/>
    </g>
  </g>
</svg>